<?xml version="1.0" encoding="UTF-8" standalone="no"?>
<svg width="242px" height="62px" viewBox="0 0 242 62" version="1.1" xmlns="http://www.w3.org/2000/svg" xmlns:xlink="http://www.w3.org/1999/xlink">
    <!-- Generator: Sketch 42 (36781) - http://www.bohemiancoding.com/sketch -->
    <title>Group 15</title>
    <desc>Created with Sketch.</desc>
    <defs></defs>
    <g id="V16_2_North-Web-(Mobile)" stroke="none" stroke-width="1" fill="none" fill-rule="evenodd">
        <g id="3_4_1_Brands" transform="translate(-254.000000, -1772.000000)">
            <g id="Group-15" transform="translate(204.000000, 1696.000000)">
                <rect id="Rectangle-3" x="0" y="0" width="342" height="214"></rect>
                <g id="logo_antai_svg_400x400" transform="translate(50.445000, 76.184000)" fill="#FFFFFF">
                    <g id="Capa_1">
                        <g id="Group">
                            <g transform="translate(71.786796, 0.000000)" id="Shape">
                                <path d="M15.7322324,12.5963326 C11.9603045,12.5963326 8.67917971,13.3351364 4.79332922,15.0561515 C3.99353068,15.3728932 3.18124748,16.3231182 3.18124748,17.5159704 C3.18124748,18.9046408 4.40084272,20.1263587 5.79210204,20.1263587 C6.16976301,20.1263587 6.59814291,20.0163573 6.9836068,19.8260002 C9.86054068,18.453713 12.5845375,17.8163289 15.5449625,17.8163289 C19.7757017,17.8163289 24.8109213,19.2814542 24.8756854,26.2606931 C22.4193285,25.6841608 19.5080618,25.21763 15.4801983,25.21763 C6.30163223,25.21763 0.367517184,29.752653 0.367517184,36.7669987 L0.367517184,36.8933833 C0.367517184,44.1519166 7.31679117,48.0690592 13.8564122,48.0690592 C19.0820228,48.0690592 22.6307875,45.9993163 24.8764657,43.928013 L24.8764657,44.8290884 C24.8764657,46.4159174 25.9977443,47.5650811 27.548183,47.5650811 C29.0986217,47.5650811 30.2199003,46.4159174 30.2199003,44.8290884 L30.2199003,26.2684946 C30.2199003,22.1274483 29.0096685,18.823505 26.626659,16.4354601 C24.1125606,13.9194702 20.3445341,12.5963326 15.7322324,12.5963326 Z M14.0429018,42.8482827 C10.0314245,42.8482827 5.96454641,40.7371917 5.96454641,36.7061468 L5.96454641,36.5797622 C5.96454641,32.6587188 9.45478922,30.3159226 15.2937087,30.3159226 C19.2685124,30.3159226 22.4801913,30.9041572 24.9326467,31.4970726 L24.9326467,34.2096608 C24.9326467,39.1300788 20.2548006,42.8482827 14.0429018,42.8482827 Z"></path>
                                <path d="M55.8618317,12.3443435 C51.6740085,12.3443435 48.165819,13.8063482 45.5346769,16.6156751 L45.5346769,15.5796334 C45.5346769,14.0169892 44.3572174,12.8436407 42.7981954,12.8436407 C41.3000362,12.8436407 40.1264782,14.0458548 40.1264782,15.5796334 L40.1264782,44.8290884 C40.1264782,46.3878319 41.3039377,47.5650811 42.8629596,47.5650811 C44.3853079,47.5650811 45.5346769,46.3878319 45.5346769,44.8290884 L45.5346769,27.7055344 C45.5346769,21.7951036 49.692849,17.5042682 55.4240883,17.5042682 C61.0351628,17.5042682 64.3810517,21.1288539 64.3810517,27.2023364 L64.3810517,44.8290884 C64.3810517,46.3878319 65.5585113,47.5650811 67.1175332,47.5650811 C68.6437829,47.5650811 69.7892505,46.3878319 69.7892505,44.8290884 L69.7892505,26.6421873 C69.7892505,18.0925027 64.1937818,12.3443435 55.8618317,12.3443435 Z"></path>
                                <path d="M95.6207927,18.2547743 C97.0339002,18.2547743 98.236329,17.0853266 98.236329,15.7013371 C98.236329,14.3126667 97.0104915,13.0909489 95.6207927,13.0909489 L86.7933577,13.0909489 L86.7933577,5.39006947 C86.7933577,3.85551068 85.5917091,2.65407676 84.0568762,2.65407676 C82.5540352,2.65407676 81.3843786,3.85551068 81.3843786,5.39006947 L81.3843786,13.0909489 L79.1191931,13.0909489 C77.6982827,13.0909489 76.5036568,14.2603966 76.5036568,15.6404853 C76.5036568,17.0330564 77.7224717,18.2547743 79.1191931,18.2547743 L81.3843786,18.2547743 L81.3843786,37.9598509 C81.3843786,44.0778021 85.2585248,47.8818228 91.4946125,47.8818228 C93.6060807,47.8818228 95.214261,47.410611 96.4322956,46.9846481 C97.5364078,46.5430821 98.1700043,45.6661914 98.1700043,44.5817803 C98.1700043,43.2219755 96.9769389,42.0322438 95.6200124,42.0322438 C95.3039945,42.0322438 95.0191882,42.1250819 94.6867841,42.2311826 C94.1429211,42.4012557 93.3306379,42.6618264 91.9986807,42.6618264 C88.4413328,42.6618264 86.7933577,41.0664158 86.7933577,37.6438894 L86.7933577,18.2547743 L95.6207927,18.2547743 Z"></path>
                                <path d="M118.692445,12.5963326 C114.915835,12.5963326 111.635491,13.3351364 107.745739,15.0561515 C106.949842,15.3728932 106.137558,16.3231182 106.137558,17.5159704 C106.137558,18.9046408 107.356373,20.1263587 108.744511,20.1263587 C109.126074,20.1263587 109.556795,20.0163573 109.94616,19.8260002 C112.821533,18.453713 115.541629,17.8163289 118.505955,17.8163289 C122.728111,17.8163289 127.771134,19.2814542 127.828095,26.2606931 C125.375639,25.6841608 122.468274,25.21763 118.440411,25.21763 C109.255602,25.21763 103.32851,29.752653 103.32851,36.7669987 L103.32851,36.8933833 C103.32851,44.1519166 110.270761,48.0690592 116.816625,48.0690592 C122.038334,48.0690592 125.587098,45.9993163 127.828095,43.928013 L127.828095,44.8290884 C127.828095,46.4159174 128.956396,47.5650811 130.508395,47.5650811 C132.051811,47.5650811 133.180113,46.4159174 133.180113,44.8290884 L133.180113,26.2684946 C133.180113,22.1274483 131.969881,18.823505 129.58297,16.4354601 C127.06419,13.9194702 123.304746,12.5963326 118.692445,12.5963326 Z M117.003114,42.8482827 C112.983834,42.8482827 108.923198,40.7371917 108.923198,36.7061468 L108.923198,36.5797622 C108.923198,32.6587188 112.407199,30.3159226 118.253921,30.3159226 C122.225604,30.3159226 125.441184,30.9041572 127.893639,31.4970726 L127.893639,34.2096608 C127.892859,39.1300788 123.20721,42.8482827 117.003114,42.8482827 Z"></path>
                                <path d="M146.196931,0.27929438 C144.484192,0.27929438 143.143652,1.61881519 143.143652,3.32344709 L143.143652,4.38679413 C143.143652,6.1000077 144.484192,7.43952851 146.196931,7.43952851 C147.910451,7.43952851 149.307172,6.07192223 149.307172,4.38679413 L149.307172,3.32344709 C149.307172,1.64690066 147.910451,0.27929438 146.196931,0.27929438 Z"></path>
                                <path d="M146.196931,12.8436407 C144.694871,12.8436407 143.516631,14.0458548 143.516631,15.5796334 L143.516631,44.8290884 C143.516631,46.3878319 144.694871,47.5650811 146.253893,47.5650811 C147.780142,47.5650811 148.92561,46.3878319 148.92561,44.8290884 L148.92561,15.5796334 C148.92561,14.0169892 147.755953,12.8436407 146.196931,12.8436407 Z"></path>
                            </g>
                            <path d="M58.1051691,45.8526477 L58.0809801,45.7793134 L58.0747378,45.7551287 L58.064594,45.7223623 L58.0443064,45.6615105 L58.0115342,45.5600907 L57.9506715,45.3736344 L57.8250446,45.0163249 C57.7438943,44.7846197 57.6588425,44.5614963 57.5753514,44.3344721 C57.4068084,43.8882252 57.2359247,43.4489997 57.057238,43.0152352 C56.7061069,42.1469262 56.3409306,41.2895392 55.9593682,40.4500958 C55.195463,38.7649677 54.3777178,37.1172869 53.5045718,35.5008122 C52.629085,33.8851176 51.6958567,32.3014092 50.7087883,30.7590489 C50.2156442,29.978897 49.7014322,29.2205894 49.1778568,28.4693031 C48.6542814,27.7180168 48.1143198,26.9753122 47.5556313,26.2443099 C45.3302406,23.3296624 42.8457932,20.5975704 40.0741986,18.1861209 L39.8167025,17.9583166 L39.5529641,17.7390939 C39.375838,17.5885246 39.201833,17.4426362 39.0247069,17.2967477 C38.6657729,17.0080915 38.3099601,16.7202155 37.9424429,16.4440417 C37.5835089,16.1600664 37.2097494,15.8916942 36.8422322,15.6241021 L36.2796422,15.2262246 L35.9979571,15.0311866 L35.7092493,14.8400494 C35.6913026,14.827567 35.6686742,14.8119639 35.6483866,14.7994815 C34.9375413,15.0717545 34.2313777,15.3518291 33.5267747,15.6475066 C32.7753542,15.9642483 32.0325169,16.2973732 31.2912402,16.6382995 C31.2631497,16.6546827 31.2327183,16.666385 31.2061884,16.6788674 C33.0804481,18.2376109 34.7791421,19.9874916 36.3100736,21.8668776 C38.3669214,24.3914491 40.1225767,27.1602082 41.6308797,30.050671 C41.9968363,30.7450062 42.3440659,31.4471429 42.6741291,32.1578613 C42.6866138,32.1859467 42.7029999,32.2140322 42.7147043,32.2428978 C43.0619339,32.9809215 43.3927774,33.728307 43.7095756,34.4749124 C44.0037454,35.1809499 44.2877715,35.8885476 44.5577522,36.6023866 C44.8644067,37.4145248 45.1585765,38.2305636 45.4363602,39.0551842 C45.9560342,40.5983247 46.4187469,42.1570682 46.8229378,43.7236132 C47.0258135,44.5029849 47.2107425,45.2862574 47.3792854,46.0617284 C47.4604357,46.4510242 47.541586,46.8411002 47.6149334,47.2186937 C47.6477056,47.4090507 47.683599,47.5994078 47.7163713,47.7827435 L47.7592873,48.0511157 L47.777234,48.180621 L47.7850369,48.2375721 C47.7873778,48.2461537 47.7850369,48.2461537 47.7850369,48.2539552 L47.7850369,48.2586362 L47.7889383,48.2781399 C47.8318544,48.566016 47.9044215,48.8796371 47.9980564,49.1675131 C48.9133381,51.9565562 51.9205806,53.4747317 54.7101218,52.561954 C57.502004,51.6460557 59.0212311,48.6409106 58.1051691,45.8526477" id="Shape"></path>
                            <path d="M51.6147064,4.64736486 C50.6970839,1.85442106 47.6921822,0.340146228 44.9010804,1.25760486 L44.8300739,1.28178957 L44.8074454,1.28569033 L44.7746732,1.294272 L44.709909,1.31455595 L44.610812,1.34732233 L44.4243224,1.41207494 L44.066949,1.53377863 C43.8375434,1.61881519 43.6104786,1.70073114 43.386535,1.7857677 C42.9402084,1.95194005 42.4993439,2.12669408 42.0647217,2.3014481 C41.1978181,2.65485691 40.3433991,3.02386876 39.4983437,3.40614319 C37.8129146,4.16523099 36.1649394,4.98126987 34.5466153,5.85816061 C32.9306321,6.73505134 31.3513226,7.66499241 29.8016642,8.65110441 C29.0299561,9.14650086 28.2691721,9.65828051 27.5138502,10.1856632 C26.7624297,10.7052444 26.0234939,11.2451095 25.2908004,11.8013578 C22.3756322,14.0302517 19.6430522,16.5150355 17.2327325,19.2830145 L17.0033269,19.5428051 L16.7801636,19.8064964 C16.6358097,19.9812504 16.4875544,20.1552243 16.3416399,20.3338791 C16.0529321,20.6911887 15.7650047,21.0484982 15.4887816,21.4136093 C15.2047555,21.7709189 14.9386762,22.1446116 14.664794,22.5136235 L14.2730878,23.0784535 L14.0741135,23.358528 L13.885283,23.6471842 C13.8712378,23.6674682 13.8587531,23.6877521 13.8447079,23.7080361 C14.1146886,24.4187544 14.3971541,25.1247919 14.6928845,25.8316095 C15.0057813,26.5821156 15.3428671,27.3256004 15.685415,28.0644043 C15.6994602,28.0932699 15.7135054,28.1213553 15.7259901,28.1494408 C17.2834515,26.2778564 19.0328645,24.5771253 20.9133664,23.050368 C23.4430707,20.9923273 26.206082,19.2338649 29.0986217,17.7281717 C29.793081,17.3622805 30.497684,17.0174534 31.2061884,16.6804277 C31.2327183,16.6679453 31.2631497,16.656243 31.2912402,16.6398598 C32.030176,16.2981533 32.7753542,15.9658086 33.5267747,15.6490669 C34.2313777,15.3526092 34.9375413,15.0725347 35.6483866,14.8010418 C36.4622304,14.4921017 37.2807559,14.1995447 38.1031829,13.9202503 C39.6481596,13.4006692 41.2095224,12.9380391 42.7747867,12.5362609 C43.5566385,12.3334214 44.340051,12.1461849 45.1172211,11.9800126 C45.5073667,11.894976 45.89127,11.8138402 46.2720521,11.7444067 C46.4632235,11.7077395 46.6497131,11.6710724 46.8346421,11.6390862 L47.1069638,11.5985183 L47.233371,11.5782343 L47.2903322,11.5743336 L47.3067183,11.5743336 L47.3129607,11.5743336 L47.3293468,11.5704328 C47.6180546,11.5259642 47.9364134,11.4526299 48.2227803,11.3629124 C51.0115413,10.4446736 52.5307683,7.44030866 51.6147064,4.64736486" id="Shape" opacity="0.5"></path>
                            <path d="M43.7119165,34.4819338 C43.3951183,33.7306475 43.0642748,32.983262 42.7170451,32.2452383 C42.7045605,32.2163727 42.6881744,32.1882872 42.67647,32.1602017 C41.1174481,34.031006 39.3734971,35.7325173 37.4914346,37.2584944 C34.9601697,39.3173152 32.1987189,41.0781181 29.3061792,42.5806906 C28.61172,42.9458017 27.907117,43.2953098 27.1962717,43.6284346 C27.1681812,43.6409171 27.1393104,43.6565201 27.1112199,43.6690025 C26.3722841,44.0107091 25.6294468,44.3430538 24.8764657,44.6597954 C24.1742036,44.9562532 23.4672597,45.2363277 22.7548538,45.5086007 C21.9425706,45.8175409 21.1224845,46.1132184 20.3000575,46.3893922 C18.7566414,46.9089734 17.1960588,47.3723836 15.6307946,47.7733817 C14.8489427,47.9809021 14.0678712,48.1634576 13.2883602,48.32963 C12.9005554,48.4185673 12.5127507,48.4919016 12.1288474,48.5691366 C11.9423578,48.601903 11.7535273,48.6385701 11.5662574,48.6666556 L11.2986175,48.7119044 L11.1706497,48.7321884 L11.1160293,48.7399899 L11.0980826,48.7399899 L11.0918403,48.7399899 L11.072333,48.7399899 C10.7859661,48.7852387 10.4676073,48.8577928 10.182801,48.951411 C7.38935825,49.8641888 5.87091146,52.8685537 6.79009456,55.6622777 C7.70537621,58.4505406 10.7102779,59.9694963 13.50216,59.0559384 L13.5755074,59.0317537 L13.5934541,59.0239522 L13.6277869,59.0114698 L13.6925511,58.9911858 L13.7916481,58.9584194 L13.9781377,58.9022485 L14.3355111,58.7719631 C14.5649167,58.6947281 14.7904209,58.6096915 15.015925,58.524655 C15.4630319,58.3584826 15.9031162,58.1876294 16.3377384,58.0089746 C17.2069829,57.6563459 18.0614018,57.2865539 18.9041164,56.9050596 C20.5911061,56.1459718 22.2390813,55.3291528 23.8558448,54.4530422 C25.471828,53.5800523 27.0534783,52.6501112 28.6000156,51.6600984 C29.3717237,51.164702 30.133288,50.6529223 30.8839282,50.1294404 C31.6369092,49.6051783 32.3797465,49.0660934 33.1108794,48.5098451 C36.0260476,46.2848518 38.757067,43.7961673 41.1712882,41.0274082 L41.3991332,40.7676176 L41.6222965,40.5039263 C41.7666504,40.3291723 41.9149057,40.1544182 42.0608202,39.9757634 C42.3471871,39.6184539 42.6374554,39.2658252 42.9136785,38.8960332 C43.1953637,38.5387236 43.4637839,38.1650309 43.7361055,37.796019 L44.1317132,37.2311891 L44.3283466,36.9511145 L44.5171771,36.6632385 C44.5335632,36.6468553 44.5460479,36.6226706 44.5577522,36.6062874 C44.2901123,35.8901079 44.005306,35.1832903 43.7119165,34.4819338" id="Shape" opacity="0.300000012"></path>
                            <path d="M22.096288,38.4396444 C20.0355387,35.9150728 18.2791031,33.1502145 16.7708001,30.2550708 C16.4095252,29.5654165 16.0622956,28.8585989 15.7275507,28.1525614 C15.715066,28.119795 15.7010208,28.0917096 15.6869755,28.0628439 C15.3436474,27.3240401 15.0065616,26.5774347 14.694445,25.8300492 C14.3979344,25.1240117 14.1162492,24.4171941 13.8462684,23.7064757 C13.5372731,22.8943376 13.2431033,22.074398 12.9676605,21.2505576 C12.4479865,19.7074171 11.980592,18.1486736 11.578742,16.5821286 C11.3758663,15.8027569 11.1924979,15.0148034 11.0247352,14.2401126 C10.9396835,13.8547176 10.8600938,13.4646416 10.7890873,13.0831473 C10.7547545,12.896691 10.7180808,12.7055538 10.6876494,12.5229983 L10.6423925,12.2554062 L10.6244458,12.1251208 L10.6205444,12.0681697 C10.614302,12.0556873 10.6166429,12.0595881 10.6166429,12.0595881 L10.6166429,12.0471056 L10.6150823,12.0268217 C10.5721663,11.7428464 10.4995992,11.4222039 10.4059643,11.1374485 C9.48834175,8.34840547 6.48187951,6.83022987 3.69389883,7.74378775 C0.902016699,8.66514714 -0.61799068,11.6648312 0.299631845,14.4546544 L0.323820874,14.5279887 L0.330063204,14.5521734 L0.342547864,14.5849397 L0.360494563,14.6496924 L0.393266796,14.7472113 L0.456470388,14.9344478 L0.580536699,15.2917574 C0.663247573,15.5195617 0.746738738,15.7465859 0.830229903,15.9743903 C0.998772816,16.4206372 1.17199748,16.8590825 1.34990388,17.2936271 C1.69947437,18.1627164 2.06465068,19.018543 2.44855398,19.8595467 C3.21011825,21.5485756 4.0278635,23.1923556 4.90335029,24.8088304 C5.77883709,26.424525 6.70816398,28.0074532 7.69679301,29.5544944 C8.19227796,30.3252845 8.70180816,31.0890532 9.22772447,31.8403394 C9.75364078,32.5955265 10.2936023,33.3343303 10.8522909,34.0653327 C13.0753407,36.9799802 15.5605683,39.7120721 18.3337235,42.1235216 L18.5912196,42.3466451 L18.8549581,42.5697685 C19.0313039,42.7195577 19.2045285,42.8662262 19.3847758,43.0121146 C19.7421492,43.2999907 20.0956212,43.5878667 20.4623581,43.8648207 C20.821292,44.1487959 21.1950516,44.4171682 21.5625687,44.6886611 L22.1267193,45.0826378 L22.4091848,45.2776757 L22.6955517,45.4727137 C22.7158392,45.4812954 22.7345662,45.4968984 22.7548538,45.5132816 C23.4696006,45.2371078 24.1757642,44.9617142 24.8788066,44.6605756 C25.6317877,44.3446141 26.374625,44.0114892 27.1135608,43.6697827 C27.1424316,43.6573003 27.170522,43.6370163 27.1986125,43.6292148 C25.3243529,42.068911 23.6248785,40.3190303 22.096288,38.4396444" id="Shape" opacity="0.449999988"></path>
                            <path d="M76.2531833,61.0882341 L73.8717344,55.5951846 C73.8475453,55.5429144 73.841303,55.4976656 73.841303,55.4368138 C73.841303,55.258159 73.9997021,55.0927668 74.1924341,55.0927668 C74.3672193,55.0927668 74.4928462,55.206669 74.5513681,55.3603589 L76.6854647,60.4719141 L78.8312656,55.3400749 C78.8921283,55.2191514 79.0161947,55.0935469 79.1722529,55.0935469 C79.3673257,55.0935469 79.5194825,55.2558185 79.5194825,55.4305726 C79.5194825,55.4828427 79.5116796,55.5234106 79.491392,55.5725602 L77.1013599,61.0897944 C77.0217702,61.2645485 76.8984842,61.3776705 76.6948282,61.3776705 L76.6604953,61.3776705 C76.456059,61.3761102 76.3241898,61.2629882 76.2531833,61.0882341" id="Shape"></path>
                            <path d="M85.2452598,60.954048 L85.2452598,55.4898641 C85.2452598,55.2948261 85.4036589,55.1364553 85.5862471,55.1364553 L89.4229392,55.1364553 C89.5977245,55.1364553 89.7397375,55.2792231 89.7397375,55.453197 C89.7397375,55.6271708 89.5977245,55.7691585 89.4229392,55.7691585 L85.9389387,55.7691585 L85.9389387,57.8763488 L89.0249907,57.8763488 C89.2036774,57.8763488 89.3417889,58.0300387 89.3417889,58.1923103 C89.3417889,58.3709651 89.2036774,58.5090519 89.0249907,58.5090519 L85.9389387,58.5090519 L85.9389387,60.6724132 L89.4674158,60.6724132 C89.6461025,60.6724132 89.7842141,60.815181 89.7842141,60.9891548 C89.7842141,61.1631287 89.6461025,61.3097973 89.4674158,61.3097973 L85.5854668,61.3097973 C85.4028786,61.3113576 85.2452598,61.149086 85.2452598,60.954048" id="Shape"></path>
                            <path d="M95.5622709,55.4539771 C95.5622709,55.2714216 95.72067,55.10915 95.9071596,55.10915 L96.0007946,55.10915 C96.1591937,55.10915 96.2567301,55.1902858 96.3542665,55.3119895 L100.102005,60.0943206 L100.102005,55.4375939 C100.102005,55.2558185 100.251821,55.0935469 100.446894,55.0935469 C100.633384,55.0935469 100.780079,55.2558185 100.780079,55.4375939 L100.780079,61.0117792 C100.780079,61.1943348 100.64977,61.3371026 100.46328,61.3371026 L100.430508,61.3371026 C100.27601,61.3371026 100.170671,61.2481653 100.065332,61.1256814 L96.240344,56.2302283 L96.240344,61.0117792 C96.240344,61.1943348 96.0905281,61.3534858 95.8993567,61.3534858 C95.7128671,61.3534858 95.5622709,61.1951149 95.5622709,61.0117792 L95.5622709,55.4539771 L95.5622709,55.4539771 Z" id="Shape"></path>
                            <path d="M108.567385,55.7816409 L106.780518,55.7816409 C106.601832,55.7816409 106.451235,55.6357525 106.451235,55.4609985 C106.451235,55.2862445 106.601832,55.1364553 106.780518,55.1364553 L111.064317,55.1364553 C111.243004,55.1364553 111.39282,55.2862445 111.39282,55.4609985 C111.39282,55.6365327 111.243004,55.7816409 111.064317,55.7816409 L109.273549,55.7816409 L109.273549,60.9985167 C109.273549,61.1935546 109.119051,61.3519255 108.924759,61.3519255 C108.729686,61.3519255 108.567385,61.1935546 108.567385,60.9985167 L108.567385,55.7816409 L108.567385,55.7816409 Z" id="Shape"></path>
                            <path d="M116.968001,58.725154 L116.968001,55.4414947 C116.968001,55.2550384 117.122499,55.0927668 117.308988,55.0927668 C117.504061,55.0927668 117.66246,55.2550384 117.66246,55.4414947 L117.66246,58.6806854 C117.66246,60.0124047 118.377207,60.7636909 119.546083,60.7636909 C120.691551,60.7636909 121.410199,60.0732565 121.410199,58.725154 L121.410199,55.4414947 C121.410199,55.2550384 121.568598,55.0927668 121.763671,55.0927668 C121.950161,55.0927668 122.104658,55.2550384 122.104658,55.4414947 L122.104658,58.6728838 C122.104658,60.4719141 121.073113,61.4049758 119.530478,61.4049758 C118.003448,61.4041956 116.968001,60.471134 116.968001,58.725154" id="Shape"></path>
                            <path d="M128.168302,55.4898641 C128.168302,55.2948261 128.3228,55.1364553 128.510069,55.1364553 L130.81661,55.1364553 C131.579735,55.1364553 132.189143,55.3681604 132.578508,55.7535554 C132.871117,56.0585948 133.049804,56.4876784 133.049804,56.9721527 L133.049804,56.9885359 C133.049804,58.0035135 132.367829,58.5925282 131.401829,58.7789845 L132.936662,60.7519887 C133.010009,60.8331245 133.050584,60.9142603 133.050584,61.0109991 C133.050584,61.1935546 132.871898,61.3527056 132.701794,61.3527056 C132.555099,61.3527056 132.45054,61.2754706 132.377193,61.1662493 L130.638704,58.9084897 L128.86042,58.9084897 L128.86042,60.9992968 C128.86042,61.1943348 128.706703,61.3527056 128.51163,61.3527056 C128.32514,61.3527056 128.169862,61.1943348 128.169862,60.9992968 L128.169862,55.4898641 L128.168302,55.4898641 Z M130.759649,58.2835881 C131.685855,58.2835881 132.34286,57.8084755 132.34286,57.0166214 L132.34286,56.9971176 C132.34286,56.2419305 131.766225,55.7824211 130.767452,55.7824211 L128.85886,55.7824211 L128.85886,58.2835881 L130.759649,58.2835881 Z" id="Shape"></path>
                            <path d="M138.953488,60.954048 L138.953488,55.4898641 C138.953488,55.2948261 139.107205,55.1364553 139.294475,55.1364553 L143.135849,55.1364553 C143.314536,55.1364553 143.452647,55.2792231 143.452647,55.453197 C143.452647,55.6271708 143.314536,55.7691585 143.135849,55.7691585 L139.651848,55.7691585 L139.651848,57.8763488 L142.7379,57.8763488 C142.916587,57.8763488 143.054699,58.0300387 143.054699,58.1923103 C143.054699,58.3709651 142.916587,58.5090519 142.7379,58.5090519 L139.651848,58.5090519 L139.651848,60.6724132 L143.177204,60.6724132 C143.355891,60.6724132 143.493222,60.815181 143.493222,60.9891548 C143.493222,61.1631287 143.355111,61.3097973 143.177204,61.3097973 L139.294475,61.3097973 C139.107205,61.3113576 138.953488,61.149086 138.953488,60.954048" id="Shape"></path>
                            <path d="M156.322771,55.4898641 C156.322771,55.2948261 156.485072,55.1364553 156.672342,55.1364553 L158.953913,55.1364553 C159.660077,55.1364553 160.212523,55.3392948 160.569897,55.6849021 C160.82115,55.9439125 160.967845,56.2770374 160.967845,56.6671133 L160.967845,56.6873973 C160.967845,57.4862728 160.47236,57.9013136 159.985458,58.1158554 C160.716591,58.3350781 161.308832,58.761041 161.308832,59.6098463 L161.308832,59.6223287 C161.308832,60.681775 160.414619,61.3113576 159.067056,61.3113576 L156.672342,61.3113576 C156.485072,61.3113576 156.322771,61.149086 156.322771,60.954048 L156.322771,55.4898641 L156.322771,55.4898641 Z M158.840771,57.8857106 C159.677243,57.8857106 160.261681,57.5081171 160.261681,56.7856964 L160.261681,56.7693132 C160.261681,56.1607947 159.77478,55.7629173 158.897732,55.7629173 L157.013329,55.7629173 L157.013329,57.8864907 L158.840771,57.8864907 L158.840771,57.8857106 Z M159.084222,60.6825551 C160.01745,60.6825551 160.602669,60.2682945 160.602669,59.582541 L160.602669,59.562257 C160.602669,58.8928867 160.041639,58.5035909 158.961716,58.5035909 L157.012549,58.5035909 L157.012549,60.6833353 L159.084222,60.6833353 L159.084222,60.6825551 Z" id="Shape"></path>
                            <path d="M167.010421,58.725154 L167.010421,55.4414947 C167.010421,55.2550384 167.164138,55.0927668 167.352188,55.0927668 C167.546481,55.0927668 167.700978,55.2550384 167.700978,55.4414947 L167.700978,58.6806854 C167.700978,60.0124047 168.415725,60.7636909 169.593185,60.7636909 C170.730069,60.7636909 171.452619,60.0732565 171.452619,58.725154 L171.452619,55.4414947 C171.452619,55.2550384 171.607116,55.0927668 171.802189,55.0927668 C171.988679,55.0927668 172.150979,55.2550384 172.150979,55.4414947 L172.150979,58.6728838 C172.150979,60.4719141 171.119434,61.4049758 169.576799,61.4049758 C168.049769,61.4041956 167.010421,60.471134 167.010421,58.725154" id="Shape"></path>
                            <path d="M178.273145,55.4492962 C178.273145,55.2550384 178.442435,55.0927668 178.647635,55.0927668 C178.861385,55.0927668 179.02982,55.2550384 179.02982,55.4492962 L179.02982,60.9985167 C179.02982,61.1935546 178.861385,61.3519255 178.647635,61.3519255 C178.44329,61.3519255 178.273145,61.1935546 178.273145,60.9985167 L178.273145,55.4492962 Z" id="Shape"></path>
                            <path d="M185.184184,55.4492962 C185.184184,55.2550384 185.347265,55.0927668 185.525952,55.0927668 C185.721025,55.0927668 185.883325,55.2550384 185.883325,55.4492962 L185.883325,60.6669521 L189.0833,60.6669521 C189.261987,60.6669521 189.399318,60.8167413 189.399318,60.9914953 C189.399318,61.1662493 189.261206,61.3121377 189.0833,61.3121377 L185.525952,61.3121377 C185.347265,61.3121377 185.184184,61.1498661 185.184184,60.9548282 L185.184184,55.4492962 Z" id="Shape"></path>
                            <path d="M195.050967,55.4898641 C195.050967,55.2948261 195.213268,55.1364553 195.391955,55.1364553 L197.195208,55.1364553 C199.135792,55.1364553 200.476333,56.4681746 200.476333,58.2016721 L200.476333,58.2219561 C200.476333,59.9593543 199.135792,61.3113576 197.195208,61.3113576 L195.391955,61.3113576 C195.213268,61.3113576 195.050967,61.149086 195.050967,60.954048 L195.050967,55.4898641 L195.050967,55.4898641 Z M197.194427,60.6661719 C198.753449,60.6661719 199.752222,59.6098463 199.752222,58.24224 L199.752222,58.2227362 C199.752222,56.8582505 198.753449,55.7824211 197.194427,55.7824211 L195.748548,55.7824211 L195.748548,60.6669521 L197.194427,60.6669521 L197.194427,60.6661719 Z" id="Shape"></path>
                            <path d="M206.36285,60.954048 L206.36285,55.4898641 C206.36285,55.2948261 206.517347,55.1364553 206.704617,55.1364553 L210.537408,55.1364553 C210.716095,55.1364553 210.853426,55.2792231 210.853426,55.453197 C210.853426,55.6271708 210.715314,55.7691585 210.537408,55.7691585 L207.053408,55.7691585 L207.053408,57.8763488 L210.147262,57.8763488 C210.318146,57.8763488 210.456258,58.0300387 210.456258,58.1923103 C210.456258,58.3709651 210.318146,58.5090519 210.147262,58.5090519 L207.053408,58.5090519 L207.053408,60.6724132 L210.585786,60.6724132 C210.764473,60.6724132 210.901804,60.815181 210.901804,60.9891548 C210.901804,61.1631287 210.763693,61.3097973 210.585786,61.3097973 L206.703837,61.3097973 C206.517347,61.3113576 206.36285,61.149086 206.36285,60.954048" id="Shape"></path>
                            <path d="M216.675959,55.4898641 C216.675959,55.2948261 216.83904,55.1364553 217.02553,55.1364553 L219.331291,55.1364553 C220.095196,55.1364553 220.703823,55.3681604 221.085385,55.7535554 C221.386578,56.0585948 221.564484,56.4876784 221.564484,56.9721527 L221.564484,56.9885359 C221.564484,58.0035135 220.873926,58.5925282 219.916509,58.7789845 L221.451342,60.7519887 C221.516106,60.8331245 221.565264,60.9142603 221.565264,61.0109991 C221.565264,61.1935546 221.386578,61.3527056 221.216474,61.3527056 C221.06978,61.3527056 220.96444,61.2754706 220.88329,61.1662493 L219.144801,58.9084897 L217.37432,58.9084897 L217.37432,60.9992968 C217.37432,61.1943348 217.21202,61.3527056 217.02553,61.3527056 C216.83904,61.3527056 216.675959,61.1943348 216.675959,60.9992968 L216.675959,55.4898641 L216.675959,55.4898641 Z M219.27511,58.2835881 C220.192732,58.2835881 220.858321,57.8084755 220.858321,57.0166214 L220.858321,56.9971176 C220.858321,56.2419305 220.273882,55.7824211 219.282132,55.7824211 L217.37432,55.7824211 L217.37432,58.2835881 L219.27511,58.2835881 Z" id="Shape"></path>
                            <path d="M236.385336,47.5167117 C235.718968,47.5167117 235.11034,47.3996889 234.557894,47.1726647 C234.014031,46.9448604 233.542735,46.6327996 233.15337,46.2349221 C232.763224,45.8362645 232.462812,45.3658329 232.252134,44.8212869 C232.032872,44.277521 231.926752,43.6846056 231.926752,43.0433207 C231.926752,42.4098374 232.032872,41.8177021 232.252134,41.2700354 C232.463593,40.7215887 232.763224,40.2503769 233.15337,39.8532796 C233.542735,39.4554021 234.014031,39.1433414 234.557894,38.9116363 C235.11034,38.6846121 235.718968,38.5699297 236.385336,38.5699297 C237.051705,38.5699297 237.660332,38.6838319 238.204195,38.9077355 C238.756642,39.1308589 239.219354,39.4468205 239.6095,39.8454781 C239.999646,40.2472563 240.307861,40.7176879 240.527122,41.2653545 C240.738581,41.8099006 240.843921,42.4020358 240.843921,43.0433207 C240.843921,43.6846056 240.737801,44.277521 240.527122,44.8212869 C240.307861,45.3650528 239.999646,45.8362645 239.6095,46.2349221 C239.219354,46.6327996 238.756642,46.9448604 238.204195,47.1726647 C237.660332,47.3989088 237.050925,47.5167117 236.385336,47.5167117 L236.385336,47.5167117 Z M236.385336,46.8028727 C236.954169,46.8028727 237.46604,46.7092545 237.912366,46.5103157 C238.358693,46.3152778 238.741036,46.0476857 239.049251,45.7067593 C239.365269,45.3650528 239.6095,44.9679554 239.7718,44.5131269 C239.942684,44.0504968 240.023054,43.5629019 240.023054,43.0433207 C240.023054,42.5237395 239.941904,42.033024 239.7718,41.5742947 C239.6095,41.1194661 239.365269,40.7208085 239.049251,40.3806623 C238.740255,40.0389557 238.358693,39.7721438 237.912366,39.5724249 C237.46604,39.3781671 236.953388,39.2767473 236.385336,39.2767473 C235.817284,39.2767473 235.305413,39.3781671 234.859087,39.5724249 C234.404177,39.7721438 234.030417,40.0397359 233.713619,40.3806623 C233.404624,40.7215887 233.161173,41.1194661 232.990289,41.5742947 C232.827989,42.033024 232.739035,42.5237395 232.739035,43.0433207 C232.739035,43.5629019 232.827989,44.0504968 232.990289,44.5131269 C233.161173,44.9679554 233.404624,45.3658329 233.713619,45.7067593 C234.030417,46.0484658 234.404177,46.3152778 234.859087,46.5103157 C235.305413,46.7092545 235.816504,46.8028727 236.385336,46.8028727 L236.385336,46.8028727 Z M235.004221,40.6482544 C235.191491,40.6240697 235.370177,40.6069063 235.556667,40.5952041 C235.75174,40.5827216 235.954616,40.5788209 236.182461,40.5788209 C236.39392,40.5788209 236.613181,40.5991048 236.831663,40.6435735 C237.043122,40.6888223 237.245998,40.7613764 237.424684,40.8752786 C237.603371,40.9813792 237.750066,41.1264875 237.863988,41.3059224 C237.977911,41.4845772 238.034872,41.7194029 238.034872,41.9963569 C238.034872,42.1828132 238.0021,42.3450848 237.945139,42.4917533 C237.880374,42.633741 237.807027,42.7601256 237.718074,42.8732476 C237.629121,42.9863696 237.531584,43.0846688 237.417662,43.1611236 C237.311542,43.2422594 237.1984,43.3077922 237.09228,43.3561616 L238.497585,45.2761154 C238.391465,45.2963994 238.302512,45.3003002 238.237748,45.3003002 L238.059061,45.3003002 L237.864769,45.3003002 C237.807807,45.3003002 237.750846,45.3003002 237.693885,45.2917185 L236.110674,43.1244565 L236.386897,43.0183558 C236.484433,42.9777879 236.58197,42.9294185 236.695892,42.8724674 C236.802012,42.8194171 236.907351,42.7507637 236.996304,42.6688478 C237.093841,42.587712 237.174991,42.4979945 237.231952,42.392674 C237.297497,42.2865734 237.321686,42.1656498 237.321686,42.0314637 C237.321686,41.7591907 237.215566,41.5563512 237.004888,41.4182643 C236.793429,41.2840782 236.542175,41.2154248 236.240983,41.2154248 C236.062296,41.2154248 235.892192,41.2279072 235.713506,41.2513118 L235.713506,45.2909383 C235.67215,45.29952 235.623772,45.3034208 235.566811,45.3073215 C235.50985,45.3112223 235.436502,45.315123 235.347549,45.315123 C235.266399,45.315123 235.193832,45.3112223 235.144673,45.3073215 C235.087712,45.3026406 235.047137,45.2987398 235.005781,45.2909383 L235.005781,40.6482544 L235.004221,40.6482544 Z" id="Shape"></path>
                        </g>
                    </g>
                </g>
            </g>
        </g>
    </g>
</svg>