<?xml version="1.0" encoding="UTF-8"?>
<svg width="200px" height="125px" viewBox="0 0 200 125" version="1.1" xmlns="http://www.w3.org/2000/svg" xmlns:xlink="http://www.w3.org/1999/xlink">
    <!-- Generator: Sketch 42 (36781) - http://www.bohemiancoding.com/sketch -->
    <title>Logo_ICAR</title>
    <desc>Created with Sketch.</desc>
    <defs></defs>
    <g id="V16_1_North-Web-(Desktop)" stroke="none" stroke-width="1" fill="none" fill-rule="evenodd">
        <g id="Logo_ICAR">
            <g id="Group-20">
                <rect id="Rectangle-3" opacity="0.5" x="0" y="0" width="200" height="125"></rect>
                <g id="Group-2" transform="translate(46.782609, 44.500000)" fill="#FFFFFF">
                    <g id="Group-3">
                        <path d="M44.695607,2.82242156 C44.695607,4.3389485 43.5587467,5.60282874 41.7486463,5.60282874 C40.0225662,5.60282874 38.8857059,4.3389485 38.8857059,2.82242156 C38.8857059,1.22160719 40.0647918,-2.15568871e-05 41.7906565,-2.15568871e-05 C43.5587467,-2.15568871e-05 44.6535968,1.22160719 44.695607,2.82242156" id="Fill-2"></path>
                        <path d="M66.2179211,28.4343305 C65.1235019,28.9400551 62.9760273,29.4876 60.40802,29.4876 C54.0091146,29.4876 49.8412732,25.3594563 49.8412732,18.9982347 C49.8412732,12.8482707 54.0511247,8.08807904 61.2501627,8.08807904 C63.1444989,8.08807904 65.0810608,8.5093006 66.2599313,9.01502515 L65.3337683,12.9325581 C64.491841,12.511121 63.2709604,12.1319353 61.4186343,12.1319353 C57.4612747,12.1319353 55.1037492,15.0386659 55.1457594,18.787624 C55.1457594,23.0000551 57.8822383,25.4012766 61.4186343,25.4012766 C63.1867246,25.4012766 64.491841,25.0225222 65.5022399,24.601085 L66.2179211,28.4343305 Z" id="Fill-5"></path>
                        <path d="M87.8547399,24.1375473 C87.8547399,25.9910084 87.9389757,27.8026491 88.1914677,29.0663138 L83.5184269,29.0663138 L83.1394735,26.7914156 L83.0132275,26.7914156 C81.7921314,28.3922299 79.6455186,29.5295713 76.9510498,29.5295713 C72.8254341,29.5295713 70.5099187,26.5387689 70.5099187,23.4214275 C70.5099187,18.2824814 75.0987237,15.6286132 82.6762842,15.6706491 L82.6762842,15.3334994 C82.6762842,13.9855473 82.1290746,11.7531162 78.5086583,11.7531162 C76.4878606,11.7531162 74.3830425,12.3847329 72.9939057,13.2694275 L71.9832914,9.89965509 C73.4986742,8.97270898 76.1509173,8.08801437 79.3928111,8.08801437 C85.9601882,8.08801437 87.8547399,12.2586251 87.8547399,16.7657389 L87.8547399,24.1375473 Z M82.8025302,19.0404216 C79.1401037,18.9983856 75.6459334,19.7567569 75.6459334,22.8738826 C75.6459334,24.8959186 76.9510498,25.8224335 78.5928941,25.8224335 C80.6977122,25.8224335 82.1710848,24.474697 82.6762842,22.9999904 C82.8025302,22.6212359 82.8025302,22.2420503 82.8025302,21.8628647 L82.8025302,19.0404216 Z" id="Fill-7"></path>
                        <path d="M11.088815,18.8531569 C11.088815,16.5500192 12.9911224,14.6829772 15.3376606,14.6829772 C17.6841988,14.6829772 19.5862908,16.5500192 19.5862908,18.8531569 C19.5862908,21.1565102 17.6841988,23.0235521 15.3376606,23.0235521 C12.9911224,23.0235521 11.088815,21.1565102 11.088815,18.8531569" id="Fill-12"></path>
                        <path d="M11.088815,5.99234012 C11.088815,3.68963353 12.9911224,1.82237605 15.3376606,1.82237605 C17.6841988,1.82237605 19.5862908,3.68963353 19.5862908,5.99234012 C19.5862908,8.29569341 17.6841988,10.1627353 15.3376606,10.1627353 C12.9911224,10.1627353 11.088815,8.29569341 11.088815,5.99234012" id="Fill-14"></path>
                        <path d="M11.088815,31.7067521 C11.088815,29.4033988 12.9911224,27.5363569 15.3376606,27.5363569 C17.6841988,27.5363569 19.5862908,29.4033988 19.5862908,31.7067521 C19.5862908,34.0101054 17.6841988,35.8769317 15.3376606,35.8769317 C12.9911224,35.8769317 11.088815,34.0101054 11.088815,31.7067521" id="Fill-16"></path>
                        <path d="M24.3011479,28.8798683 C22.2689321,27.7282994 21.5724247,25.1779042 22.7459093,23.1830299 C23.9193938,21.1888024 26.5177777,20.505018 28.5499936,21.6568024 C30.581994,22.8083713 31.2782859,25.3587665 30.1048013,27.3534251 C28.9315322,29.3480838 26.3331483,30.0312216 24.3011479,28.8798683" id="Fill-19"></path>
                        <path d="M2.12524148,15.9760671 C0.0930256337,14.8244982 -0.603050843,12.2743186 0.570002829,10.2792287 C1.74348738,8.2850012 4.34187128,7.60121677 6.37408712,8.7530012 C8.40630297,9.90457006 9.10237945,12.4551808 7.92911034,14.449624 C6.75605667,16.4444982 4.15745733,17.1276359 2.12524148,15.9760671" id="Fill-21"></path>
                        <path d="M28.549735,15.9760671 C30.5819509,14.8244982 31.2784582,12.2743186 30.1051891,10.2792287 C28.9317046,8.2850012 26.3335361,7.60121677 24.3013203,8.7530012 C22.268889,9.90457006 21.5728125,12.4551808 22.7460816,14.449624 C23.9193507,16.4444982 26.5175192,17.1276359 28.549735,15.9760671" id="Fill-23"></path>
                        <path d="M6.37400095,28.8795665 C8.4062168,27.7279976 9.10229327,25.177818 7.9292396,23.1829437 C6.75575505,21.1885006 4.15737115,20.5049317 2.12515531,21.6565006 C0.092939459,22.8080695 -0.603352454,25.3586802 0.570132091,27.3531234 C1.74318576,29.3479976 4.3417851,30.0311353 6.37400095,28.8795665" id="Fill-25"></path>
                        <polygon id="Fill-1" points="39.1804235 29.0662275 44.3586638 29.0662275 44.3586638 8.5514012 39.1804235 8.5514012"></polygon>
                        <path d="M94.3713385,15.1650754 C94.3713385,12.3846683 94.3293283,10.3628479 94.2028669,8.55142275 L98.6654259,8.55142275 L98.8761231,12.4269198 L99.0023691,12.4269198 C100.012768,9.56222515 102.412088,8.0879497 104.643368,8.0879497 C105.148567,8.0879497 105.4435,8.1302012 105.864248,8.21448862 L105.864248,13.0589677 C105.401275,12.9746802 104.938085,12.9324287 104.306855,12.9324287 C101.864663,12.9324287 100.138799,14.4914228 99.6758247,16.8499617 C99.5913735,17.3134347 99.5495787,17.8611952 99.5495787,18.4089557 L99.5495787,29.0664647 L94.3713385,29.0664647 L94.3713385,15.1650754 Z" id="Fill-9"></path>
                    </g>
                </g>
            </g>
        </g>
    </g>
</svg>