<?xml version="1.0" encoding="UTF-8"?>
<svg width="200px" height="125px" viewBox="0 0 200 125" version="1.1" xmlns="http://www.w3.org/2000/svg" xmlns:xlink="http://www.w3.org/1999/xlink">
    <!-- Generator: Sketch 42 (36781) - http://www.bohemiancoding.com/sketch -->
    <title>Logo_Nestlea</title>
    <desc>Created with Sketch.</desc>
    <defs></defs>
    <g id="V16_1_North-Web-(Desktop)" stroke="none" stroke-width="1" fill="none" fill-rule="evenodd">
        <g id="Logo_Nestlea">
            <g id="Group-21">
                <rect id="Rectangle-3" opacity="0.5" x="0" y="0" width="200" height="125"></rect>
                <g id="Group-8" transform="translate(35.000000, 44.500000)" fill="#FEFEFE">
                    <path d="M102.684803,2.95163636 C102.684803,1.86618182 101.807985,0.986181818 100.722985,0.986181818 L97.8175303,0.986181818 C96.7320758,0.986181818 95.8561667,1.86981818 95.8561667,2.95572727 L95.8570758,33.3434545 C95.8570758,34.4289091 96.7334394,35.3098182 97.8188939,35.3098182 L100.723894,35.3098182 C101.808894,35.3098182 102.684803,34.4252727 102.684803,33.3398182 L102.684803,2.95163636 Z" id="Fill-36"></path>
                    <path d="M106.389076,3.7595 L106.388167,5.20359091 C106.388167,5.80177273 106.876348,6.2845 107.474985,6.2845 L127.520439,6.28404545 C128.434985,6.28404545 129.175894,5.54631818 129.175894,4.63177273 L129.175894,2.18495455 C129.175894,1.27040909 128.425439,0.443136364 127.517258,0.533136364 C127.517258,0.533136364 108.140894,2.43404545 107.516348,2.5045 C106.794985,2.58631818 106.389076,3.16131818 106.389076,3.7595" id="Fill-38"></path>
                    <path d="M90.1603485,35.3113636 C85.1735303,35.3113636 82.035803,31.5295455 82.035803,27.32 L82.0312576,15.1613636 L80.6039848,15.1609091 C79.8435303,15.1609091 79.2262576,14.5472727 79.2262576,13.7863636 L79.2262576,11.7513636 C79.2262576,10.9904545 79.845803,10.3790909 80.6062576,10.3790909 L82.0312576,10.3813636 L82.0294394,2.90590909 C82.0294394,1.84727273 82.8830758,0.989090909 83.9417121,0.989090909 L86.7739848,0.988636364 C87.8326212,0.988636364 88.6876212,1.85272727 88.6876212,2.91136364 L88.6885303,10.3813636 L93.1071667,10.3795455 C93.8676212,10.3795455 94.4867121,10.9918182 94.4867121,11.7527273 L94.4867121,13.7881818 C94.4867121,14.5486364 93.8703485,15.1618182 93.1094394,15.1618182 L88.6889848,15.1613636 L88.6926212,26.4072727 C88.6926212,28.615 90.0298939,30.1227273 92.4217121,30.1227273 L92.8230758,30.1204545 C93.6489848,30.1204545 94.320803,30.7845455 94.320803,31.6104545 L94.320803,33.8204545 C94.320803,34.6468182 93.6517121,35.3113636 92.8253485,35.3113636 L90.1603485,35.3113636 Z" id="Fill-40"></path>
                    <path d="M43.4613485,14.7072273 C46.4372576,14.7072273 49.0058939,16.8245 49.2663485,19.6899545 L37.7004394,19.6899545 C37.9608939,16.8249545 40.4854394,14.7072273 43.4613485,14.7072273 L43.4613485,9.50540909 C35.4004394,9.50540909 30.8790758,15.8135909 30.8790758,22.4613182 C30.8790758,29.5458636 35.721803,35.7831364 43.5140758,35.7831364 C48.8477121,35.7831364 54.1054394,32.9726818 55.0990758,28.3576818 C55.2331667,27.7349545 54.8136212,26.9181364 53.936803,26.9149545 L50.1258939,26.9154091 C49.4331667,26.9154091 48.8681667,27.2472273 48.5272576,27.7467727 C47.4372576,29.3449545 45.8390758,30.1958636 43.4772576,30.1958636 C40.1395303,30.1958636 37.8258939,27.5654091 37.6508939,24.6504091 L53.8586212,24.6499545 C55.3504394,24.6499545 56.0177121,23.8390455 56.0177121,22.4608636 C56.0177121,15.9785909 52.1808939,9.50540909 43.4613485,9.50540909 L43.4613485,14.7072273 Z" id="Fill-42"></path>
                    <path d="M117.313667,14.7072273 C120.289576,14.7072273 122.858212,16.8245 123.119121,19.6899545 L111.552758,19.6899545 C111.813667,16.8249545 114.338212,14.7072273 117.313667,14.7072273 L117.313667,9.50540909 C109.253212,9.50540909 104.731394,15.8135909 104.731394,22.4613182 C104.731394,29.5458636 109.574576,35.7831364 117.366394,35.7831364 C122.700485,35.7831364 127.957758,32.9726818 128.951394,28.3576818 C129.08503,27.7349545 128.665939,26.9181364 127.789121,26.9149545 L123.978212,26.9154091 C123.285939,26.9154091 122.720939,27.2472273 122.38003,27.7467727 C121.289576,29.3449545 119.691848,30.1958636 117.329576,30.1958636 C113.991848,30.1958636 111.678667,27.5654091 111.503212,24.6504091 L127.710939,24.6499545 C129.203212,24.6499545 129.87003,23.8390455 129.87003,22.4608636 C129.870485,15.9785909 126.033667,9.50540909 117.313667,9.50540909 L117.313667,14.7072273 Z" id="Fill-44"></path>
                    <path d="M76.5794848,1.32740909 L24.081303,1.32740909 C22.8872121,1.32740909 21.9240303,2.29513636 21.9240303,3.48968182 L22.1044848,24.1074091 C22.1044848,24.1074091 10.7917576,3.67377273 10.2022121,2.63104545 C9.64766667,1.65059091 8.45630303,0.747409091 6.80857576,0.747409091 L2.49130303,0.747409091 C1.29721212,0.747409091 0.330848485,1.71559091 0.330848485,2.91013636 L0.332666667,33.1465 C0.332666667,34.3401364 1.29857576,35.3087727 2.49221212,35.3087727 L5.26130303,35.3092273 C6.45539394,35.3092273 7.4190303,34.3355909 7.4190303,33.1424091 L7.24493939,11.9446818 C7.24493939,11.9446818 18.6672121,32.5824091 19.1558485,33.3951364 C19.8149394,34.4933182 20.9299394,35.3092273 22.5458485,35.3092273 L26.511303,35.3101364 C27.7058485,35.3101364 28.6703939,34.3401364 28.6703939,33.1465 L28.6685758,6.4515 L76.5822121,6.45331818 C77.3972121,6.45331818 78.0581212,5.79604545 78.0581212,4.98059091 L78.0581212,2.79922727 C78.0581212,1.98377273 77.3949394,1.32740909 76.5794848,1.32740909" id="Fill-46"></path>
                    <path d="M68.0825303,14.4555 C70.364803,14.4555 72.0725303,15.2832273 72.6875303,16.7136818 C72.9825303,17.4005 73.5543485,17.5336818 74.3411667,17.5336818 L77.4793485,17.5336818 C77.9988939,17.5336818 78.5938939,17.0877727 78.5938939,16.4091364 C78.5938939,12.7595909 74.2429848,9.50231818 68.0788939,9.50231818 C61.7043485,9.50231818 57.5179848,12.5395909 57.5179848,17.3759545 C57.5179848,21.0777727 60.4425303,23.2805 64.0384394,24.2200455 C65.6770758,24.6482273 68.4743485,25.3405 69.8366212,25.6973182 C71.3066212,26.0823182 72.619803,26.5323182 72.619803,27.7900455 C72.619803,29.7755 70.5261667,30.4514091 68.2411667,30.4514091 C66.0757121,30.4514091 63.9179848,29.4841364 63.299803,27.9395909 C62.9411667,27.0450455 62.3143485,26.9150455 61.3629848,26.9150455 L58.1707121,26.9150455 C57.6138939,26.9150455 56.9729848,27.3932273 56.9729848,28.1200455 L56.9729848,28.5309545 C56.9729848,32.0632273 61.7111667,35.7609545 68.2461667,35.7609545 C72.8825303,35.7609545 79.3402576,33.8345909 79.3402576,27.6186818 C79.3402576,24.0200455 76.9307121,21.5268636 73.0111667,20.5309545 C71.4788939,20.1423182 67.7943485,19.2050455 66.9934394,18.9977727 C65.5652576,18.6286818 64.2320758,18.1627727 64.2320758,16.9386818 C64.2320758,15.0855 65.944803,14.4555 68.0825303,14.4555" id="Fill-48"></path>
                </g>
            </g>
        </g>
    </g>
</svg>