<?xml version="1.0" encoding="UTF-8"?>
<svg width="200px" height="125px" viewBox="0 0 200 125" version="1.1" xmlns="http://www.w3.org/2000/svg" xmlns:xlink="http://www.w3.org/1999/xlink">
    <!-- Generator: Sketch 42 (36781) - http://www.bohemiancoding.com/sketch -->
    <title>Logo_EAE</title>
    <desc>Created with Sketch.</desc>
    <defs>
        <polygon id="path-1" points="180.35 44.7706767 105.117019 44.7706767 105.117019 59.3733053 180.35 59.3733053 180.35 44.7706767"></polygon>
    </defs>
    <g id="V16_1_North-Web-(Desktop)" stroke="none" stroke-width="1" fill="none" fill-rule="evenodd">
        <g id="Logo_EAE">
            <g id="Group-13">
                <g id="Page-1" transform="translate(104.350000, 44.500000)">
                    <g id="Group-17" transform="translate(0.653480, 0.266887)"></g>
                </g>
                <rect id="Rectangle-3" opacity="0.5" x="0" y="0" width="200" height="125"></rect>
                <path d="M53.3963387,66.3491038 L60.8666703,66.3491038 C59.6985605,62.1273594 58.6816369,58.7200812 57.4115642,53.6337955 C55.937025,58.7200812 54.7169871,62.1273594 53.3963387,66.3491038 L53.3963387,66.3491038 Z M54.2604533,44.8860662 L63.2545476,44.8860662 L75.2877829,76.5771639 L75.2877829,44.8860662 L96.8860501,44.8860662 L95.9919146,51.5482316 L86.0111881,51.5482316 L86.0111881,59.2265173 L96.6326306,59.2265173 L95.7374133,65.8897654 L86.0111881,65.8897654 L86.0111881,73.825194 L99.0721654,73.825194 L98.1769481,80.4884421 L76.7731404,80.4884421 L75.2877829,80.4884421 L65.3900871,80.4884421 L62.5948995,71.9935248 L51.5661467,71.9935248 L48.1613459,80.4884421 L44.1331384,80.4884421 L39.7765944,80.4884421 L20.3501082,80.4884421 L20.3501082,44.8860662 L41.9483754,44.8860662 L41.0542399,51.5482316 L31.0721612,51.5482316 L31.0721612,59.2265173 L41.6936036,59.2265173 L40.7994681,65.8897654 L31.0721612,65.8897654 L31.0721612,73.825194 L42.4865876,73.825194 L54.2604533,44.8860662 Z" id="Fill-1" fill="#FFFFFF"></path>
                <path d="M112.870926,68.7401263 L112.870926,66.0073744 C112.870926,65.9028932 112.849289,65.8197955 112.724338,65.7778406 C111.891596,65.4855098 110.702932,65.3807579 109.806362,65.3807579 C107.4101,65.3807579 105.324866,66.8627128 105.324866,68.7401263 C105.324866,71.0132692 106.721513,71.8274647 107.847432,72.5780511 C110.97339,74.6433143 111.703898,75.7498406 111.703898,77.1051188 C111.703898,78.6279459 110.494949,79.7547729 109.01446,79.7547729 C107.4101,79.7547729 105.88742,78.8360962 105.659153,76.5207278 L105.117154,76.5207278 L105.117154,79.5252391 C105.117154,79.6922466 105.17963,79.7753444 105.26239,79.8172992 C106.346658,80.2346827 107.493131,80.4850586 108.827032,80.4850586 C111.327961,80.4850586 113.870811,79.1078556 113.870811,76.625209 C113.870811,74.8945023 113.163021,73.8302015 110.952835,72.1823218 C108.868953,70.6175398 107.4101,69.740818 107.4101,68.280788 C107.4101,66.7376602 108.492745,66.1121263 109.701965,66.1121263 C111.369882,66.1121263 112.162055,67.2800962 112.328927,68.7401263 L112.870926,68.7401263 Z" id="Fill-3" fill="#FFFFFF"></path>
                <path d="M123.271052,78.5232481 C122.749609,78.7950075 122.082658,79.2954887 120.935915,79.2954887 C117.935179,79.2954887 116.934212,76.5002105 116.934212,74.2885113 C116.934212,71.264782 118.789557,70.2833083 120.019061,70.2833083 C120.810963,70.2833083 121.374598,70.617594 121.665611,70.950797 L122.729054,72.1823759 C122.812085,72.2449023 122.937036,72.2232481 123.041433,72.1618045 L123.77113,71.7024662 C123.833606,71.6605113 123.833606,71.5774135 123.77113,71.4932331 L123.041433,70.096812 C122.354198,69.7 121.248565,69.5543759 120.478029,69.5543759 C117.39318,69.5543759 114.870614,71.680812 114.870614,74.9776541 C114.870614,76.520782 115.600041,78.1480902 116.266991,78.8781053 C117.914894,80.735218 120.33144,80.4848421 120.853154,80.4848421 L123.625623,79.1704361 L123.271052,78.5232481 Z" id="Fill-5" fill="#FFFFFF"></path>
                <path d="M127.689991,64.9022015 C126.773137,65.2354045 125.437884,65.4855098 124.188096,65.5277353 L124.188096,66.0699008 L125.063029,66.0699008 C125.605027,66.0699008 125.854931,66.4247579 125.854931,66.9877654 L125.854931,77.6272541 C125.854931,79.503585 125.959328,79.4421414 124.188096,79.6922466 L124.188096,80.2346827 L129.399018,80.2346827 L129.399018,79.6922466 C127.627515,79.4421414 127.73083,79.503585 127.73083,77.6272541 L127.73083,75.0820812 C127.73083,72.9329083 128.147877,70.6381113 130.815679,70.6381113 C133.025865,70.6381113 133.108896,72.4746526 133.108896,73.7879759 L133.108896,77.6272541 C133.108896,79.503585 133.213293,79.4421414 131.442061,79.6922466 L131.442061,80.2346827 L136.652712,80.2346827 L136.652712,79.6922466 C134.880128,79.4421414 134.984795,79.503585 134.984795,77.6272541 L134.984795,73.2455398 C134.984795,71.0757955 134.484718,69.5543218 131.941868,69.5543218 C130.128444,69.5543218 128.6274,70.3457805 127.73083,71.3897805 L127.73083,64.9430737 L127.689991,64.9022015 Z" id="Fill-7" fill="#FFFFFF"></path>
                <path d="M141.922594,79.7548812 C139.651285,79.7548812 138.46262,77.6898887 138.46262,75.0196632 C138.46262,71.8059188 139.879551,70.2833624 141.672691,70.2833624 C144.110873,70.2833624 145.091826,72.7248662 145.091826,75.0402346 C145.091826,78.273197 143.653258,79.7548812 141.922594,79.7548812 M141.58966,80.4848962 C144.924683,80.4848962 147.155153,77.9602947 147.155153,74.9354827 C147.155153,71.3273624 144.570112,69.5544301 141.964786,69.5544301 C138.504811,69.5544301 136.399293,72.2027308 136.399293,75.1027609 C136.399293,78.670009 138.921858,80.4848962 141.58966,80.4848962" id="Fill-9" fill="#FFFFFF"></path>
                <path d="M153.84056,79.7548812 C151.567898,79.7548812 150.380586,77.6898887 150.380586,75.0196632 C150.380586,71.8059188 151.797517,70.2833624 153.590657,70.2833624 C156.028839,70.2833624 157.008439,72.7248662 157.008439,75.0402346 C157.008439,78.273197 155.569871,79.7548812 153.84056,79.7548812 M153.506544,80.4848962 C156.841296,80.4848962 159.072037,77.9602947 159.072037,74.9354827 C159.072037,71.3273624 156.486996,69.5544301 153.882752,69.5544301 C150.422777,69.5544301 148.317259,72.2027308 148.317259,75.1027609 C148.317259,78.670009 150.838472,80.4848962 153.506544,80.4848962" id="Fill-11" fill="#FFFFFF"></path>
                <path d="M162.944028,64.9022015 C162.027174,65.2354045 160.693002,65.4855098 159.442132,65.5277353 L159.442132,66.0699008 L160.318147,66.0699008 C160.860146,66.0699008 161.110049,66.4247579 161.110049,66.9877654 L161.110049,77.6272541 C161.110049,79.503585 161.214717,79.4421414 159.442132,79.6922466 L159.442132,80.2346827 L164.653054,80.2346827 L164.653054,79.6922466 C162.881552,79.4421414 162.985949,79.503585 162.985949,77.6272541 L162.985949,64.9430737 L162.944028,64.9022015 Z" id="Fill-13" fill="#FFFFFF"></path>
                <mask id="mask-2" fill="white">
                    <use xlink:href="#path-1"></use>
                </mask>
                <g id="Clip-16"></g>
                <path d="M108.931564,45.4394105 L110.118877,45.4394105 C112.119728,45.4394105 113.120965,46.2308692 113.120965,48.297215 C113.120965,50.7170647 111.704033,51.4051248 110.515369,51.4051248 L108.931564,51.4051248 L108.931564,45.4394105 Z M108.931564,52.0726135 L110.265465,52.0726135 C112.224395,52.0726135 113.80847,52.9696361 113.80847,55.4931549 C113.80847,57.5581474 112.911901,58.7055459 111.037083,58.7055459 C109.30642,58.7055459 108.931564,58.1847639 108.931564,56.3482226 L108.931564,52.0726135 Z M105.117019,44.7705684 L105.117019,45.3143579 C106.993189,45.542809 106.908806,45.4394105 106.908806,47.3793504 L106.908806,56.765606 C106.908806,58.7055459 106.993189,58.6021474 105.117019,58.8308692 L105.117019,59.3733053 L110.890494,59.3733053 C113.955059,59.3733053 116.184177,58.1222376 116.184177,55.2021774 C116.184177,53.0118617 114.412945,51.5721323 112.20384,51.509606 L112.20384,51.4676511 C113.850391,50.9877414 115.204847,49.6947188 115.204847,47.9423579 C115.204847,45.5644632 113.453899,44.7705684 110.265465,44.7705684 L105.117019,44.7705684 Z" id="Fill-15" fill="#FFFFFF" mask="url(#mask-2)"></path>
                <path d="M128.292113,58.685218 L128.165809,58.1008271 C126.769432,58.6429925 126.706956,57.7459699 126.706956,56.6827519 L126.706956,48.7348722 L126.666117,48.6929173 C125.707071,49.2773083 124.310695,49.5274135 123.164221,49.5696391 L123.164221,50.1109925 C124.185743,50.1109925 124.831057,50.0278947 124.831057,50.9877143 L124.831057,54.2626316 C124.831057,57.3502406 123.913932,58.3928872 121.975557,58.3928872 C120.141578,58.3928872 119.891675,56.9328571 119.891675,55.3680752 L119.891675,48.7348722 L119.849754,48.6929173 C118.870153,49.2773083 117.473777,49.5274135 116.347588,49.5696391 L116.347588,50.1109925 C117.369109,50.1109925 118.015775,50.0278947 118.015775,50.9877143 L118.015775,55.5556541 C118.015775,57.8926767 118.662441,59.6233835 121.058703,59.6233835 C121.663177,59.6233835 122.122145,59.5825113 122.997078,59.0820301 L124.831057,58.0177293 C124.831057,58.6226917 124.997929,59.269609 125.310579,59.6233835 L128.292113,58.685218 Z" id="Fill-18" fill="#FFFFFF" mask="url(#mask-2)"></path>
                <path d="M129.29078,59.0604571 C130.062398,59.435615 130.958968,59.6234647 132.105441,59.6234647 C133.918865,59.6234647 135.877795,58.6647278 135.877795,56.4949835 C135.877795,55.5351639 135.627621,54.7642767 133.668961,53.3870737 C132.14628,52.3022015 131.08392,51.7597654 131.08392,50.757991 C131.08392,49.9448782 131.813346,49.4227429 132.688279,49.4227429 C133.876673,49.4227429 134.502784,50.424788 134.564178,51.1331489 L135.106177,51.1331489 L135.106177,49.047585 C134.148213,48.7349534 133.31439,48.6927278 132.647169,48.6927278 C130.938413,48.6927278 129.312417,49.6731188 129.312417,51.4254797 C129.312417,52.8026827 129.999652,53.1369684 131.688394,54.3674647 C132.939264,55.2634045 134.023262,55.744397 134.023262,57.0999459 C134.023262,57.975585 133.31439,58.8931789 132.105441,58.8931789 C130.896221,58.8931789 129.812495,58.184818 129.832779,56.724788 L129.29078,56.724788 L129.29078,59.0604571 Z" id="Fill-20" fill="#FFFFFF" mask="url(#mask-2)"></path>
                <path d="M138.063694,46.1057083 C138.063694,46.7948511 138.627329,47.3372872 139.294279,47.3372872 C139.939593,47.3372872 140.503229,46.7528962 140.503229,46.1057083 C140.503229,45.4598737 139.939593,44.8968662 139.272643,44.8968662 C138.627329,44.8968662 138.063694,45.4393023 138.063694,46.1057083 L138.063694,46.1057083 Z M140.398832,48.6928361 C139.439786,49.2774977 138.043409,49.527603 136.896666,49.5695579 L136.896666,50.1109113 C137.918187,50.1109113 138.564853,50.0278135 138.564853,50.9876331 L138.564853,56.7654977 C138.564853,58.643182 138.668168,58.5806556 136.896666,58.8307609 L136.896666,59.373197 L142.107588,59.373197 L142.107588,58.8307609 C140.336356,58.5806556 140.440753,58.643182 140.440753,56.7654977 L140.440753,48.734791 L140.398832,48.6928361 Z" id="Fill-22" fill="#FFFFFF" mask="url(#mask-2)"></path>
                <path d="M146.482144,54.2206226 C146.482144,52.0725323 146.899191,49.7777353 149.568345,49.7777353 C151.777179,49.7777353 151.859939,51.613194 151.859939,52.9276 L151.859939,56.7655248 C151.859939,58.643209 151.964607,58.5806827 150.193104,58.830788 L150.193104,59.3732241 L155.404026,59.3732241 L155.404026,58.830788 C153.631442,58.5806827 153.736109,58.643209 153.736109,56.7655248 L153.736109,52.3851639 C153.736109,50.2154195 153.236032,48.6928632 150.693182,48.6928632 C148.879758,48.6928632 147.378714,49.4854045 146.482144,50.5283218 L146.482144,48.734818 L146.441305,48.6928632 C145.48226,49.2772541 144.085883,49.5276301 142.93941,49.569585 L142.93941,50.1109383 C143.960661,50.1109383 144.606245,50.0278406 144.606245,50.9876602 L144.606245,56.7655248 C144.606245,58.643209 144.710642,58.5806827 142.93941,58.830788 L142.93941,59.3732241 L148.150332,59.3732241 L148.150332,58.830788 C146.378829,58.5806827 146.482144,58.643209 146.482144,56.7655248 L146.482144,54.2206226 Z" id="Fill-24" fill="#FFFFFF" mask="url(#mask-2)"></path>
                <path d="M157.33894,52.885591 C157.33894,50.257591 158.693395,49.4228241 160.089772,49.4228241 C161.257882,49.4228241 162.278321,50.3406887 162.278321,51.6756662 C162.278321,52.5946135 161.695484,52.885591 161.237598,52.885591 L157.33894,52.885591 Z M164.091745,53.615606 L164.091745,53.0322977 C164.091745,50.403215 162.570417,48.692809 160.214724,48.692809 C156.671989,48.692809 155.358373,51.6756662 155.358373,54.1171699 C155.358373,55.6808692 156.129991,57.3284782 156.754749,58.0381925 C158.443492,59.8950346 160.194439,59.6232752 160.715883,59.6232752 L161.362549,59.6232752 L164.091745,58.3302526 L163.758811,57.684418 C163.259004,57.934794 162.570417,58.4350045 161.423673,58.4350045 C158.443492,58.4350045 157.33894,55.9945835 157.33894,53.615606 L164.091745,53.615606 Z" id="Fill-26" fill="#FFFFFF" mask="url(#mask-2)"></path>
                <path d="M165.34513,59.0604571 C166.116748,59.435615 167.011966,59.6234647 168.158439,59.6234647 C169.972133,59.6234647 171.930793,58.6647278 171.930793,56.4949835 C171.930793,55.5351639 171.680889,54.7642767 169.721959,53.3870737 C168.20063,52.3022015 167.136917,51.7597654 167.136917,50.757991 C167.136917,49.9448782 167.866614,49.4227429 168.742629,49.4227429 C169.929941,49.4227429 170.556053,50.424788 170.618528,51.1331489 L171.160527,51.1331489 L171.160527,49.047585 C170.201482,48.7349534 169.367388,48.6927278 168.700437,48.6927278 C166.991681,48.6927278 165.365685,49.6731188 165.365685,51.4254797 C165.365685,52.8026827 166.05292,53.1369684 167.741392,54.3674647 C168.992532,55.2634045 170.07653,55.744397 170.07653,57.0999459 C170.07653,57.975585 169.367388,58.8931789 168.158439,58.8931789 C166.94949,58.8931789 165.865492,58.184818 165.887129,56.724788 L165.34513,56.724788 L165.34513,59.0604571 Z" id="Fill-28" fill="#FFFFFF" mask="url(#mask-2)"></path>
                <path d="M172.992071,59.0604571 C173.763689,59.435615 174.660259,59.6234647 175.80538,59.6234647 C177.618803,59.6234647 179.578815,58.6647278 179.578815,56.4949835 C179.578815,55.5351639 179.328912,54.7642767 177.3689,53.3870737 C175.847571,52.3022015 174.785211,51.7597654 174.785211,50.757991 C174.785211,49.9448782 175.514637,49.4227429 176.38957,49.4227429 C177.577964,49.4227429 178.202993,50.424788 178.265469,51.1331489 L178.807468,51.1331489 L178.807468,49.047585 C177.848422,48.7349534 177.014329,48.6927278 176.347378,48.6927278 C174.638622,48.6927278 173.012356,49.6731188 173.012356,51.4254797 C173.012356,52.8026827 173.700943,53.1369684 175.389685,54.3674647 C176.639473,55.2634045 177.723471,55.744397 177.723471,57.0999459 C177.723471,57.975585 177.014329,58.8931789 175.80538,58.8931789 C174.596431,58.8931789 173.512433,58.184818 173.53407,56.724788 L172.992071,56.724788 L172.992071,59.0604571 Z" id="Fill-30" fill="#FFFFFF" mask="url(#mask-2)"></path>
            </g>
        </g>
    </g>
</svg>