<?xml version="1.0" encoding="UTF-8"?>
<svg width="200px" height="125px" viewBox="0 0 200 125" version="1.1" xmlns="http://www.w3.org/2000/svg" xmlns:xlink="http://www.w3.org/1999/xlink">
    <!-- Generator: Sketch 42 (36781) - http://www.bohemiancoding.com/sketch -->
    <title>Logo_Antai</title>
    <desc>Created with Sketch.</desc>
    <defs></defs>
    <g id="V16_1_North-Web-(Desktop)" stroke="none" stroke-width="1" fill="none" fill-rule="evenodd">
        <g id="Logo_Antai">
            <g id="Group-15">
                <rect id="Rectangle-3" opacity="0.5" x="0" y="0" width="200" height="125"></rect>
                <g id="logo_antai_svg_400x400" transform="translate(29.500000, 44.500000)" fill="#FFFFFF">
                    <g id="Capa_1">
                        <g id="Group">
                            <g transform="translate(41.980583, 0.000000)" id="Shape">
                                <path d="M9.20013592,7.35767089 C6.9943301,7.35767089 5.07554369,7.78921519 2.8031165,8.79448101 C2.33539806,8.97949367 1.86037864,9.53453165 1.86037864,10.2312911 C1.86037864,11.0424304 2.57359223,11.7560506 3.38719417,11.7560506 C3.60804854,11.7560506 3.85856311,11.6917975 4.08398058,11.5806076 C5.76639806,10.779038 7.35937864,10.4067342 9.09062136,10.4067342 C11.5647379,10.4067342 14.5093107,11.2625316 14.5471845,15.3391899 C13.1107184,15.0024304 11.4082233,14.7299241 9.05274757,14.7299241 C3.68516505,14.7299241 0.21492233,17.3788861 0.21492233,21.4760506 L0.21492233,21.5498734 C0.21492233,25.7896709 4.27882524,28.0777215 8.10316505,28.0777215 C11.1590777,28.0777215 13.2343786,26.8687595 14.5476408,25.6588861 L14.5476408,26.1852152 C14.5476408,27.1121013 15.2033592,27.7833418 16.1100485,27.7833418 C17.0167379,27.7833418 17.6724563,27.1121013 17.6724563,26.1852152 L17.6724563,15.3437468 C17.6724563,12.9249114 16.9647184,10.995038 15.5711456,9.6001519 C14.1009126,8.13053165 11.8973883,7.35767089 9.20013592,7.35767089 Z M8.2122233,25.0282025 C5.8663301,25.0282025 3.48803883,23.7950886 3.48803883,21.4405063 L3.48803883,21.3666835 C3.48803883,19.0763544 5.5291165,17.7078987 8.94368932,17.7078987 C11.2681359,17.7078987 13.1463107,18.0514937 14.5804951,18.3978228 L14.5804951,19.9822785 C14.5804951,22.8563544 11.8449126,25.0282025 8.2122233,25.0282025 Z"></path>
                                <path d="M32.6677379,7.21048101 C30.2187184,7.21048101 28.1671456,8.0644557 26.628466,9.70541772 L26.628466,9.10025316 C26.628466,8.18749367 25.9398932,7.50212658 25.0281845,7.50212658 C24.152068,7.50212658 23.4657767,8.20435443 23.4657767,9.10025316 L23.4657767,26.1852152 C23.4657767,27.0956962 24.1543495,27.7833418 25.0660583,27.7833418 C25.9563204,27.7833418 26.628466,27.0956962 26.628466,26.1852152 L26.628466,16.1831392 C26.628466,12.7307848 29.0601456,10.2244557 32.4117476,10.2244557 C35.6930777,10.2244557 37.6497379,12.3416203 37.6497379,15.8892152 L37.6497379,26.1852152 C37.6497379,27.0956962 38.3383107,27.7833418 39.2500194,27.7833418 C40.1425631,27.7833418 40.8124272,27.0956962 40.8124272,26.1852152 L40.8124272,15.5620253 C40.8124272,10.5680506 37.5402233,7.21048101 32.6677379,7.21048101 Z"></path>
                                <path d="M55.9185922,10.6628354 C56.7449709,10.6628354 57.4481456,9.97974684 57.4481456,9.17134177 C57.4481456,8.36020253 56.7312816,7.64658228 55.9185922,7.64658228 L50.7563495,7.64658228 L50.7563495,3.14840506 C50.7563495,2.25205063 50.0536311,1.55027848 49.156068,1.55027848 C48.2772136,1.55027848 47.5932039,2.25205063 47.5932039,3.14840506 L47.5932039,7.64658228 L46.268534,7.64658228 C45.4375922,7.64658228 44.7389806,8.32967089 44.7389806,9.13579747 C44.7389806,9.94921519 45.4517379,10.6628354 46.268534,10.6628354 L47.5932039,10.6628354 L47.5932039,22.1728101 C47.5932039,25.7463797 49.8587864,27.9683544 53.5056214,27.9683544 C54.7403981,27.9683544 55.6808544,27.6931139 56.3931553,27.4443038 C57.038835,27.1863797 57.4093592,26.6741772 57.4093592,26.0407595 C57.4093592,25.246481 56.7116602,24.5515443 55.9181359,24.5515443 C55.7333301,24.5515443 55.5667767,24.6057722 55.3723883,24.6677468 C55.0543398,24.7670886 54.5793204,24.9192911 53.8003981,24.9192911 C51.7200777,24.9192911 50.7563495,23.9873924 50.7563495,21.9882532 L50.7563495,10.6628354 L55.9185922,10.6628354 Z"></path>
                                <path d="M69.4107864,7.35767089 C67.2022427,7.35767089 65.2839126,7.78921519 63.0092039,8.79448101 C62.543767,8.97949367 62.0687476,9.53453165 62.0687476,10.2312911 C62.0687476,11.0424304 62.7815049,11.7560506 63.5932816,11.7560506 C63.8164175,11.7560506 64.068301,11.6917975 64.296,11.5806076 C65.9775049,10.779038 67.5682039,10.4067342 69.3017282,10.4067342 C71.7708252,10.4067342 74.7199612,11.2625316 74.7532718,15.3391899 C73.3190874,15.0024304 71.6188738,14.7299241 69.2633981,14.7299241 C63.892165,14.7299241 60.4260291,17.3788861 60.4260291,21.4760506 L60.4260291,21.5498734 C60.4260291,25.7896709 64.4858252,28.0777215 68.3138155,28.0777215 C71.3674466,28.0777215 73.4427476,26.8687595 74.7532718,25.6588861 L74.7532718,26.1852152 C74.7532718,27.1121013 75.4130971,27.7833418 76.320699,27.7833418 C77.2232816,27.7833418 77.8831068,27.1121013 77.8831068,26.1852152 L77.8831068,15.3437468 C77.8831068,12.9249114 77.1753689,10.995038 75.7795146,9.6001519 C74.3065437,8.13053165 72.1080388,7.35767089 69.4107864,7.35767089 Z M68.4228738,25.0282025 C66.0724175,25.0282025 63.6977767,23.7950886 63.6977767,21.4405063 L63.6977767,21.3666835 C63.6977767,19.0763544 65.7352039,17.7078987 69.1543398,17.7078987 C71.4769612,17.7078987 73.3574175,18.0514937 74.7916019,18.3978228 L74.7916019,19.9822785 C74.7911456,22.8563544 72.051,25.0282025 68.4228738,25.0282025 Z"></path>
                                <path d="M85.4952816,0.163139241 C84.4936796,0.163139241 83.7097379,0.94556962 83.7097379,1.94126582 L83.7097379,2.56237975 C83.7097379,3.56308861 84.4936796,4.34551899 85.4952816,4.34551899 C86.4973398,4.34551899 87.3141359,3.54668354 87.3141359,2.56237975 L87.3141359,1.94126582 C87.3141359,0.961974684 86.4973398,0.163139241 85.4952816,0.163139241 Z"></path>
                                <path d="M85.4952816,7.50212658 C84.6168835,7.50212658 83.9278544,8.20435443 83.9278544,9.10025316 L83.9278544,26.1852152 C83.9278544,27.0956962 84.6168835,27.7833418 85.5285922,27.7833418 C86.4211359,27.7833418 87.091,27.0956962 87.091,26.1852152 L87.091,9.10025316 C87.091,8.18749367 86.4069903,7.50212658 85.4952816,7.50212658 Z"></path>
                            </g>
                            <path d="M33.9796311,26.7830886 L33.9654854,26.7402532 L33.961835,26.7261266 L33.9559029,26.7069873 L33.9440388,26.671443 L33.9248738,26.6122025 L33.8892816,26.5032911 L33.8158155,26.2945823 C33.7683592,26.1592405 33.7186214,26.0289114 33.6697961,25.8963038 C33.571233,25.6356456 33.471301,25.3790886 33.3668058,25.1257215 C33.161466,24.6185316 32.9479126,24.1177215 32.7247767,23.6273924 C32.2780485,22.6430886 31.799835,21.6806582 31.2892233,20.7364557 C30.7772427,19.7927089 30.2314951,18.8676456 29.6542621,17.9667342 C29.3658738,17.511038 29.065165,17.0681013 28.7589806,16.6292658 C28.4527961,16.1904304 28.1370291,15.7566076 27.8103107,15.3296203 C26.5089126,13.6271392 25.0560194,12.0312911 23.4352039,10.6227342 L23.2846214,10.4896709 L23.1303883,10.3616203 C23.0268058,10.2736709 22.9250485,10.1884557 22.821466,10.1032405 C22.6115631,9.93463291 22.4034854,9.76648101 22.1885631,9.60516456 C21.9786602,9.43929114 21.7600874,9.28253165 21.545165,9.12622785 L21.216165,8.89382278 L21.0514369,8.77989873 L20.8826019,8.66825316 C20.8721068,8.66096203 20.8588738,8.6518481 20.8470097,8.64455696 C20.4313107,8.80359494 20.0183495,8.96718987 19.606301,9.13989873 C19.1668738,9.32491139 18.732466,9.51949367 18.2989709,9.71863291 C18.2825437,9.72820253 18.2647476,9.73503797 18.249233,9.74232911 C19.3452913,10.6528101 20.3386796,11.6749367 21.2339612,12.7727089 C22.4367961,14.2473418 23.4634951,15.8646076 24.3455437,17.552962 C24.5595534,17.9585316 24.7626117,18.3686582 24.9556311,18.7837975 C24.962932,18.8002025 24.9725146,18.8166076 24.9793592,18.8334684 C25.1824175,19.264557 25.3758932,19.7011139 25.5611553,20.1372152 C25.7331845,20.5496203 25.8992816,20.9629367 26.057165,21.3798987 C26.2364951,21.8542785 26.4085243,22.3309367 26.5709709,22.8126076 C26.8748738,23.7139747 27.145466,24.6244557 27.381835,25.5394937 C27.5004757,25.9947342 27.6086214,26.4522532 27.7071845,26.9052152 C27.7546408,27.1326076 27.8020971,27.3604557 27.8449903,27.5810127 C27.8641553,27.6922025 27.8851456,27.8033924 27.9043107,27.910481 L27.9294078,28.0672405 L27.9399029,28.1428861 L27.944466,28.1761519 C27.945835,28.1811646 27.944466,28.1811646 27.944466,28.1857215 L27.944466,28.1884557 L27.9467476,28.1998481 C27.9718447,28.368 28.0142816,28.5511899 28.0690388,28.7193418 C28.6042913,30.3484557 30.3629126,31.2352405 31.9942233,30.7020759 C33.6269029,30.1670886 34.5153398,28.4117468 33.9796311,26.7830886" id="Shape"></path>
                            <path d="M30.1840388,2.71458228 C29.6474175,1.08318987 27.890165,0.198683544 26.2579417,0.734582278 L26.2164175,0.748708861 L26.2031845,0.750987342 L26.1840194,0.756 L26.1461456,0.767848101 L26.0881942,0.786987342 L25.9791359,0.824810127 L25.7701456,0.895898734 C25.6359903,0.94556962 25.5032039,0.993417722 25.3722427,1.04308861 C25.111233,1.1401519 24.8534175,1.24222785 24.5992524,1.3443038 C24.0922913,1.55073418 23.5926311,1.76627848 23.0984466,1.98956962 C22.1128155,2.43296203 21.1490874,2.90962025 20.202699,3.42182278 C19.2576796,3.93402532 18.3341068,4.47721519 17.4278738,5.05321519 C16.9765825,5.34258228 16.5316796,5.64151899 16.0899709,5.94956962 C15.6505437,6.25306329 15.2184175,6.56840506 14.7899417,6.89331646 C13.085165,8.19524051 11.487165,9.64663291 10.0776214,11.263443 L9.94346602,11.4151899 L9.81296117,11.5692152 C9.72854369,11.6712911 9.64184466,11.7729114 9.55651456,11.8772658 C9.38767961,12.0859747 9.21930097,12.2946835 9.05776699,12.5079494 C8.8916699,12.7166582 8.73606796,12.9349367 8.57590291,13.150481 L8.34683495,13.4804051 L8.23047573,13.644 L8.12004854,13.8126076 C8.11183495,13.8244557 8.10453398,13.8363038 8.09632039,13.8481519 C8.25420388,14.2632911 8.41938835,14.6756962 8.5923301,15.088557 C8.77531068,15.5269367 8.97243689,15.9612152 9.17275728,16.3927595 C9.18097087,16.4096203 9.18918447,16.4260253 9.19648544,16.4424304 C10.1072816,15.3492152 11.1303301,14.3557975 12.2300388,13.464 C13.7093981,12.2618734 15.3251942,11.2347342 17.0167379,10.3552405 C17.4228544,10.141519 17.8349029,9.94010127 18.249233,9.74324051 C18.2647476,9.73594937 18.2825437,9.72911392 18.2989709,9.7195443 C18.7310971,9.51994937 19.1668738,9.32582278 19.606301,9.14081013 C20.0183495,8.96764557 20.4313107,8.80405063 20.8470097,8.64546835 C21.3229417,8.46501266 21.8016117,8.29412658 22.2825631,8.13098734 C23.1860583,7.82749367 24.0991359,7.55726582 25.0144951,7.32258228 C25.4717184,7.20410127 25.9298544,7.09473418 26.3843398,6.99767089 C26.6124951,6.948 26.837,6.90060759 27.0596796,6.86005063 C27.1714757,6.83863291 27.280534,6.81721519 27.3886796,6.79853165 L27.547932,6.77483544 L27.6218544,6.76298734 L27.655165,6.76070886 L27.6647476,6.76070886 L27.6683981,6.76070886 L27.6779806,6.75843038 C27.8468155,6.7324557 28.0329903,6.68962025 28.2004563,6.63721519 C29.8313107,6.10086076 30.7197476,4.34597468 30.1840388,2.71458228" id="Shape" opacity="0.5"></path>
                            <path d="M25.5625243,20.1413165 C25.3772621,19.702481 25.1837864,19.2659241 24.9807282,18.8348354 C24.9734272,18.8179747 24.9638447,18.8015696 24.957,18.7851646 C24.0452913,19.8779241 23.0254369,20.8717975 21.9248155,21.7631392 C20.4445437,22.9657215 18.8296602,23.9942278 17.1381165,24.8718987 C16.732,25.0851646 16.3199515,25.2893165 15.9042524,25.4838987 C15.8878252,25.4911899 15.8709417,25.5003038 15.8545146,25.5075949 C15.4223883,25.7071899 14.9879806,25.9013165 14.5476408,26.0863291 C14.1369612,26.2594937 13.7235437,26.4230886 13.306932,26.5821266 C12.8319126,26.7625823 12.3523301,26.9352911 11.8713786,27.0966076 C10.9687961,27.4001013 10.0561748,27.6707848 9.14081553,27.9050127 C8.68359223,28.0262278 8.22682524,28.1328608 7.77097087,28.2299241 C7.54418447,28.2818734 7.31739806,28.3247089 7.0928932,28.3698228 C6.98383495,28.388962 6.87340777,28.4103797 6.7638932,28.4267848 L6.60737864,28.4532152 L6.53254369,28.4650633 L6.50060194,28.4696203 L6.4901068,28.4696203 L6.48645631,28.4696203 L6.47504854,28.4696203 C6.30758252,28.4960506 6.12140777,28.5384304 5.95485437,28.5931139 C4.32126214,29.1262785 3.43328155,30.8811646 3.97081553,32.5130127 C4.50606796,34.1416709 6.26332039,35.0289114 7.896,34.4952911 L7.9388932,34.4811646 L7.94938835,34.4766076 L7.96946602,34.4693165 L8.00733981,34.4574684 L8.06529126,34.4383291 L8.17434951,34.405519 L8.38333981,34.3294177 C8.51749515,34.2843038 8.64936893,34.2346329 8.78124272,34.184962 C9.04270874,34.0878987 9.30006796,33.9881013 9.55423301,33.8837468 C10.0625631,33.6777722 10.5622233,33.4617722 11.0550388,33.2389367 C12.0415825,32.7955443 13.0053107,32.3184304 13.9507864,31.8066835 C14.8958058,31.2967595 15.8207476,30.7535696 16.7251553,30.1752911 C17.1764466,29.8859241 17.6218058,29.5869873 18.0607767,29.2812152 C18.5011165,28.9749873 18.9355243,28.6601013 19.3630874,28.3351899 C21.0678641,27.0355443 22.6649515,25.5818734 24.0767767,23.9646076 L24.2100194,23.8128608 L24.3405243,23.6588354 C24.4249417,23.5567595 24.5116408,23.4546835 24.5969709,23.3503291 C24.7644369,23.1416203 24.9341845,22.9356456 25.0957184,22.7196456 C25.2604466,22.5109367 25.4174175,22.2926582 25.5766699,22.0771139 L25.8080194,21.7471899 L25.9230097,21.5835949 L26.0334369,21.415443 C26.0430194,21.4058734 26.0503204,21.3917468 26.057165,21.3821772 C25.9006505,20.9638481 25.7340971,20.5509873 25.5625243,20.1413165" id="Shape" opacity="0.300000012"></path>
                            <path d="M12.9218058,22.4530633 C11.7166893,20.9784304 10.689534,19.363443 9.80748544,17.6723544 C9.59621359,17.269519 9.39315534,16.8566582 9.19739806,16.4442532 C9.19009709,16.4251139 9.1818835,16.4087089 9.1736699,16.3918481 C8.9728932,15.9603038 8.77576699,15.5242025 8.59324272,15.0876456 C8.41984466,14.6752405 8.2551165,14.2623797 8.09723301,13.8472405 C7.91653398,13.3728608 7.74450485,12.8939241 7.58342718,12.4127089 C7.27952427,11.5113418 7.00619417,10.6008608 6.77119417,9.68582278 C6.6525534,9.23058228 6.54532039,8.77032911 6.44721359,8.31782278 C6.39747573,8.09270886 6.35093204,7.86486076 6.30940777,7.64202532 C6.2893301,7.53311392 6.2678835,7.42146835 6.25008738,7.31483544 L6.22362136,7.15853165 L6.21312621,7.08243038 L6.21084466,7.04916456 C6.20719417,7.04187342 6.20856311,7.0441519 6.20856311,7.0441519 L6.20856311,7.03686076 L6.20765049,7.02501266 C6.1825534,6.85913924 6.1401165,6.6718481 6.08535922,6.50551899 C5.54873786,4.87640506 3.79057282,3.98962025 2.16017476,4.52324051 C0.527495146,5.06141772 -0.361398058,6.81356962 0.175223301,8.44313924 L0.189368932,8.48597468 L0.193019417,8.50010127 L0.200320388,8.51924051 L0.210815534,8.55706329 L0.229980583,8.61402532 L0.266941748,8.72339241 L0.339495146,8.93210127 C0.387864078,9.06516456 0.43668932,9.19777215 0.485514563,9.33083544 C0.58407767,9.59149367 0.685378641,9.84759494 0.789417476,10.1014177 C0.99384466,10.6090633 1.20739806,11.108962 1.43190291,11.6002025 C1.87726214,12.5867848 2.35547573,13.5469367 2.86745631,14.4911392 C3.37943689,15.4348861 3.92290291,16.3594937 4.50104854,17.2631392 C4.79080583,17.7133671 5.0887767,18.1594937 5.3963301,18.5983291 C5.7038835,19.039443 6.01965049,19.4709873 6.34636893,19.8979747 C7.64639806,21.6004557 9.09974757,23.1963038 10.7214757,24.6048608 L10.8720583,24.7351899 L11.0262913,24.865519 C11.1294175,24.9530127 11.2307184,25.0386835 11.3361262,25.1238987 C11.5451165,25.2920506 11.7518252,25.4602025 11.9662913,25.6219747 C12.1761942,25.7878481 12.394767,25.9446076 12.6096893,26.1031899 L12.9396019,26.3333165 L13.1047864,26.4472405 L13.2722524,26.5611646 C13.2841165,26.5661772 13.295068,26.5752911 13.306932,26.5848608 C13.7249126,26.4235443 14.1378738,26.2626835 14.5490097,26.0867848 C14.9893495,25.9022278 15.4237573,25.7076456 15.8558835,25.5080506 C15.872767,25.5007595 15.8891942,25.4889114 15.9056214,25.4843544 C14.8095631,24.572962 13.8157184,23.5508354 12.9218058,22.4530633" id="Shape" opacity="0.449999988"></path>
                            <path d="M44.5925049,35.6823797 L43.1998447,32.4738228 C43.185699,32.4432911 43.1820485,32.4168608 43.1820485,32.3813165 C43.1820485,32.276962 43.2746796,32.1803544 43.3873883,32.1803544 C43.4896019,32.1803544 43.563068,32.2468861 43.5972913,32.3366582 L44.845301,35.3223797 L46.1001553,32.3248101 C46.1357476,32.2541772 46.208301,32.1808101 46.2995631,32.1808101 C46.4136408,32.1808101 46.5026214,32.2755949 46.5026214,32.3776709 C46.5026214,32.4082025 46.4980583,32.4318987 46.4861942,32.4606076 L45.0885146,35.6832911 C45.0419709,35.7853671 44.9698738,35.851443 44.8507767,35.851443 L44.830699,35.851443 C44.7111456,35.8505316 44.6340291,35.7844557 44.5925049,35.6823797" id="Shape"></path>
                            <path d="M49.8510291,35.604 L49.8510291,32.4123038 C49.8510291,32.2983797 49.9436602,32.2058734 50.0504369,32.2058734 L52.2941165,32.2058734 C52.3963301,32.2058734 52.4793786,32.2892658 52.4793786,32.3908861 C52.4793786,32.4925063 52.3963301,32.575443 52.2941165,32.575443 L50.2566893,32.575443 L50.2566893,33.8062785 L52.0613981,33.8062785 C52.1658932,33.8062785 52.2466602,33.8960506 52.2466602,33.9908354 C52.2466602,34.0951899 52.1658932,34.1758481 52.0613981,34.1758481 L50.2566893,34.1758481 L50.2566893,35.4394937 L52.3201262,35.4394937 C52.4246214,35.4394937 52.5053883,35.5228861 52.5053883,35.6245063 C52.5053883,35.7261266 52.4246214,35.8117975 52.3201262,35.8117975 L50.0499806,35.8117975 C49.9432039,35.8127089 49.8510291,35.7179241 49.8510291,35.604" id="Shape"></path>
                            <path d="M55.8843689,32.3913418 C55.8843689,32.2847089 55.977,32.1899241 56.0860583,32.1899241 L56.1408155,32.1899241 C56.2334466,32.1899241 56.2904854,32.2373165 56.3475243,32.3084051 L58.5391845,35.1018228 L58.5391845,32.3817722 C58.5391845,32.2755949 58.6267961,32.1808101 58.7408738,32.1808101 C58.849932,32.1808101 58.9357184,32.2755949 58.9357184,32.3817722 L58.9357184,35.6377215 C58.9357184,35.7443544 58.8595146,35.8277468 58.7504563,35.8277468 L58.7312913,35.8277468 C58.6409417,35.8277468 58.5793398,35.7757975 58.5177379,35.7042532 L56.2809029,32.8447595 L56.2809029,35.6377215 C56.2809029,35.7443544 56.1932913,35.8373165 56.0814951,35.8373165 C55.9724369,35.8373165 55.8843689,35.7448101 55.8843689,35.6377215 L55.8843689,32.3913418 L55.8843689,32.3913418 Z" id="Shape"></path>
                            <path d="M63.489699,32.5827342 L62.4447476,32.5827342 C62.3402524,32.5827342 62.2521845,32.497519 62.2521845,32.395443 C62.2521845,32.2933671 62.3402524,32.2058734 62.4447476,32.2058734 L64.9498932,32.2058734 C65.0543883,32.2058734 65.142,32.2933671 65.142,32.395443 C65.142,32.4979747 65.0543883,32.5827342 64.9498932,32.5827342 L63.9026602,32.5827342 L63.9026602,35.6299747 C63.9026602,35.7438987 63.8123107,35.8364051 63.6986893,35.8364051 C63.5846117,35.8364051 63.489699,35.7438987 63.489699,35.6299747 L63.489699,32.5827342 L63.489699,32.5827342 Z" id="Shape"></path>
                            <path d="M68.4023398,34.3020759 L68.4023398,32.3840506 C68.4023398,32.2751392 68.4926893,32.1803544 68.6017476,32.1803544 C68.7158252,32.1803544 68.8084563,32.2751392 68.8084563,32.3840506 L68.8084563,34.2761013 C68.8084563,35.0539747 69.2264369,35.4928101 69.9099903,35.4928101 C70.5798544,35.4928101 71.0001165,35.089519 71.0001165,34.3020759 L71.0001165,32.3840506 C71.0001165,32.2751392 71.0927476,32.1803544 71.2068252,32.1803544 C71.3158835,32.1803544 71.406233,32.2751392 71.406233,32.3840506 L71.406233,34.2715443 C71.406233,35.3223797 70.8029903,35.8673924 69.9008641,35.8673924 C69.0078641,35.8669367 68.4023398,35.3219241 68.4023398,34.3020759" id="Shape"></path>
                            <path d="M74.9522233,32.4123038 C74.9522233,32.2983797 75.0425728,32.2058734 75.1520874,32.2058734 L76.5009417,32.2058734 C76.9472136,32.2058734 77.3035922,32.3412152 77.5312913,32.5663291 C77.7024078,32.7445063 77.8069029,32.9951392 77.8069029,33.2781266 L77.8069029,33.2876962 C77.8069029,33.880557 77.4080874,34.2246076 76.8431748,34.333519 L77.7407379,35.4859747 C77.7836311,35.5333671 77.8073592,35.5807595 77.8073592,35.6372658 C77.8073592,35.7438987 77.7028641,35.8368608 77.6033883,35.8368608 C77.5176019,35.8368608 77.4564563,35.7917468 77.4135631,35.7279494 L76.3969029,34.4091646 L75.3569709,34.4091646 L75.3569709,35.6304304 C75.3569709,35.7443544 75.2670777,35.8368608 75.153,35.8368608 C75.0439417,35.8368608 74.9531359,35.7443544 74.9531359,35.6304304 L74.9531359,32.4123038 L74.9522233,32.4123038 Z M76.4676311,34.0441519 C77.0092718,34.0441519 77.3934854,33.7666329 77.3934854,33.3041013 L77.3934854,33.2927089 C77.3934854,32.8515949 77.0562718,32.5831899 76.4721942,32.5831899 L75.3560583,32.5831899 L75.3560583,34.0441519 L76.4676311,34.0441519 Z" id="Shape"></path>
                            <path d="M81.2593495,35.604 L81.2593495,32.4123038 C81.2593495,32.2983797 81.3492427,32.2058734 81.4587573,32.2058734 L83.7051748,32.2058734 C83.8096699,32.2058734 83.8904369,32.2892658 83.8904369,32.3908861 C83.8904369,32.4925063 83.8096699,32.575443 83.7051748,32.575443 L81.6677476,32.575443 L81.6677476,33.8062785 L83.4724563,33.8062785 C83.5769515,33.8062785 83.6577184,33.8960506 83.6577184,33.9908354 C83.6577184,34.0951899 83.5769515,34.1758481 83.4724563,34.1758481 L81.6677476,34.1758481 L81.6677476,35.4394937 L83.7293592,35.4394937 C83.8338544,35.4394937 83.914165,35.5228861 83.914165,35.6245063 C83.914165,35.7261266 83.8333981,35.8117975 83.7293592,35.8117975 L81.4587573,35.8117975 C81.3492427,35.8127089 81.2593495,35.7179241 81.2593495,35.604" id="Shape"></path>
                            <path d="M91.4168252,32.4123038 C91.4168252,32.2983797 91.5117379,32.2058734 91.6212524,32.2058734 L92.9555049,32.2058734 C93.368466,32.2058734 93.691534,32.3243544 93.9005243,32.5262278 C94.0474563,32.677519 94.1332427,32.8721013 94.1332427,33.0999494 L94.1332427,33.1117975 C94.1332427,33.5784304 93.8434854,33.8208608 93.5587476,33.9461772 C93.9863107,34.0742278 94.3326505,34.323038 94.3326505,34.8188354 L94.3326505,34.8261266 C94.3326505,35.444962 93.8097184,35.8127089 93.0216699,35.8127089 L91.6212524,35.8127089 C91.5117379,35.8127089 91.4168252,35.7179241 91.4168252,35.604 L91.4168252,32.4123038 L91.4168252,32.4123038 Z M92.8893398,33.8117468 C93.3785049,33.8117468 93.7202816,33.5911899 93.7202816,33.1692152 L93.7202816,33.1596456 C93.7202816,32.8042025 93.4355437,32.5717975 92.9226505,32.5717975 L91.8206602,32.5717975 L91.8206602,33.8122025 L92.8893398,33.8122025 L92.8893398,33.8117468 Z M93.0317087,35.4454177 C93.5774563,35.4454177 93.9196893,35.203443 93.9196893,34.8028861 L93.9196893,34.791038 C93.9196893,34.4000506 93.5916019,34.1726582 92.960068,34.1726582 L91.8202039,34.1726582 L91.8202039,35.4458734 L93.0317087,35.4458734 L93.0317087,35.4454177 Z" id="Shape"></path>
                            <path d="M97.6669126,34.3020759 L97.6669126,32.3840506 C97.6669126,32.2751392 97.7568058,32.1803544 97.8667767,32.1803544 C97.9803981,32.1803544 98.0707476,32.2751392 98.0707476,32.3840506 L98.0707476,34.2761013 C98.0707476,35.0539747 98.4887282,35.4928101 99.177301,35.4928101 C99.8421456,35.4928101 100.264689,35.089519 100.264689,34.3020759 L100.264689,32.3840506 C100.264689,32.2751392 100.355039,32.1803544 100.469117,32.1803544 C100.578175,32.1803544 100.673087,32.2751392 100.673087,32.3840506 L100.673087,34.2715443 C100.673087,35.3223797 100.069845,35.8673924 99.1677184,35.8673924 C98.2747184,35.8669367 97.6669126,35.3219241 97.6669126,34.3020759" id="Shape"></path>
                            <path d="M104.253301,32.3886076 C104.253301,32.2751392 104.352301,32.1803544 104.472301,32.1803544 C104.597301,32.1803544 104.695801,32.2751392 104.695801,32.3886076 L104.695801,35.6299747 C104.695801,35.7438987 104.597301,35.8364051 104.472301,35.8364051 C104.352801,35.8364051 104.253301,35.7438987 104.253301,35.6299747 L104.253301,32.3886076 Z" id="Shape"></path>
                            <path d="M108.294845,32.3886076 C108.294845,32.2751392 108.390214,32.1803544 108.494709,32.1803544 C108.608786,32.1803544 108.703699,32.2751392 108.703699,32.3886076 L108.703699,35.4363038 L110.575029,35.4363038 C110.679524,35.4363038 110.759835,35.5237975 110.759835,35.6258734 C110.759835,35.7279494 110.679068,35.8131646 110.575029,35.8131646 L108.494709,35.8131646 C108.390214,35.8131646 108.294845,35.7183797 108.294845,35.6044557 L108.294845,32.3886076 Z" id="Shape"></path>
                            <path d="M114.064893,32.4123038 C114.064893,32.2983797 114.159806,32.2058734 114.264301,32.2058734 L115.318835,32.2058734 C116.45368,32.2058734 117.237621,32.9837468 117.237621,33.9963038 L117.237621,34.0081519 C117.237621,35.0229873 116.45368,35.8127089 115.318835,35.8127089 L114.264301,35.8127089 C114.159806,35.8127089 114.064893,35.7179241 114.064893,35.604 L114.064893,32.4123038 L114.064893,32.4123038 Z M115.318379,35.4358481 C116.230087,35.4358481 116.814165,34.8188354 116.814165,34.02 L116.814165,34.0086076 C116.814165,33.2115949 116.230087,32.5831899 115.318379,32.5831899 L114.472835,32.5831899 L114.472835,35.4363038 L115.318379,35.4363038 L115.318379,35.4358481 Z" id="Shape"></path>
                            <path d="M120.680029,35.604 L120.680029,32.4123038 C120.680029,32.2983797 120.770379,32.2058734 120.879893,32.2058734 L123.121291,32.2058734 C123.225786,32.2058734 123.306097,32.2892658 123.306097,32.3908861 C123.306097,32.4925063 123.22533,32.575443 123.121291,32.575443 L121.083864,32.575443 L121.083864,33.8062785 L122.893136,33.8062785 C122.993068,33.8062785 123.073835,33.8960506 123.073835,33.9908354 C123.073835,34.0951899 122.993068,34.1758481 122.893136,34.1758481 L121.083864,34.1758481 L121.083864,35.4394937 L123.149583,35.4394937 C123.254078,35.4394937 123.334388,35.5228861 123.334388,35.6245063 C123.334388,35.7261266 123.253621,35.8117975 123.149583,35.8117975 L120.879437,35.8117975 C120.770379,35.8127089 120.680029,35.7179241 120.680029,35.604" id="Shape"></path>
                            <path d="M126.711087,32.4123038 C126.711087,32.2983797 126.806456,32.2058734 126.915515,32.2058734 L128.263913,32.2058734 C128.710641,32.2058734 129.066563,32.3412152 129.289699,32.5663291 C129.465835,32.7445063 129.569874,32.9951392 129.569874,33.2781266 L129.569874,33.2876962 C129.569874,33.880557 129.166039,34.2246076 128.606146,34.333519 L129.503709,35.4859747 C129.541583,35.5333671 129.57033,35.5807595 129.57033,35.6372658 C129.57033,35.7438987 129.465835,35.8368608 129.366359,35.8368608 C129.280573,35.8368608 129.218971,35.7917468 129.171515,35.7279494 L128.154854,34.4091646 L127.119485,34.4091646 L127.119485,35.6304304 C127.119485,35.7443544 127.024573,35.8368608 126.915515,35.8368608 C126.806456,35.8368608 126.711087,35.7443544 126.711087,35.6304304 L126.711087,32.4123038 L126.711087,32.4123038 Z M128.231058,34.0441519 C128.76768,34.0441519 129.156913,33.7666329 129.156913,33.3041013 L129.156913,33.2927089 C129.156913,32.8515949 128.815136,32.5831899 128.235165,32.5831899 L127.119485,32.5831899 L127.119485,34.0441519 L128.231058,34.0441519 Z" id="Shape"></path>
                            <path d="M138.237039,27.7550886 C137.84735,27.7550886 137.491427,27.6867342 137.168359,27.5541266 C136.850311,27.4210633 136.574699,27.2387848 136.347,27.0063797 C136.118845,26.773519 135.943165,26.4987342 135.819961,26.1806582 C135.691738,25.863038 135.62968,25.5167089 135.62968,25.1421266 C135.62968,24.7721013 135.691738,24.4262278 135.819961,24.1063291 C135.943621,23.7859747 136.118845,23.5107342 136.347,23.2787848 C136.574699,23.0463797 136.850311,22.8641013 137.168359,22.7287595 C137.491427,22.5961519 137.84735,22.5291646 138.237039,22.5291646 C138.626728,22.5291646 138.98265,22.5956962 139.300699,22.726481 C139.623767,22.8568101 139.894359,23.0413671 140.122515,23.2742278 C140.35067,23.5089114 140.530913,23.7836962 140.659136,24.1035949 C140.782796,24.4216709 140.844398,24.7675443 140.844398,25.1421266 C140.844398,25.5167089 140.78234,25.863038 140.659136,26.1806582 C140.530913,26.4982785 140.35067,26.773519 140.122515,27.0063797 C139.894359,27.2387848 139.623767,27.4210633 139.300699,27.5541266 C138.98265,27.6862785 138.626272,27.7550886 138.237039,27.7550886 L138.237039,27.7550886 Z M138.237039,27.3381266 C138.569689,27.3381266 138.869029,27.283443 139.130039,27.1672405 C139.391049,27.0533165 139.614641,26.8970127 139.794883,26.6978734 C139.979689,26.4982785 140.122515,26.2663291 140.217427,26.0006582 C140.317359,25.7304304 140.364359,25.4456203 140.364359,25.1421266 C140.364359,24.8386329 140.316903,24.552 140.217427,24.2840506 C140.122515,24.0183797 139.979689,23.785519 139.794883,23.5868354 C139.614184,23.3872405 139.391049,23.2313924 139.130039,23.1147342 C138.869029,23.0012658 138.569233,22.9420253 138.237039,22.9420253 C137.904845,22.9420253 137.605505,23.0012658 137.344495,23.1147342 C137.078466,23.2313924 136.859893,23.3876962 136.674631,23.5868354 C136.493932,23.7859747 136.351563,24.0183797 136.251631,24.2840506 C136.156718,24.552 136.104699,24.8386329 136.104699,25.1421266 C136.104699,25.4456203 136.156718,25.7304304 136.251631,26.0006582 C136.351563,26.2663291 136.493932,26.4987342 136.674631,26.6978734 C136.859893,26.8974684 137.078466,27.0533165 137.344495,27.1672405 C137.605505,27.283443 137.904388,27.3381266 138.237039,27.3381266 L138.237039,27.3381266 Z M137.429369,23.7431392 C137.538883,23.7290127 137.643379,23.7189873 137.752437,23.7121519 C137.866515,23.7048608 137.985155,23.7025823 138.118398,23.7025823 C138.242058,23.7025823 138.370282,23.7144304 138.498049,23.7404051 C138.621709,23.7668354 138.74035,23.8092152 138.844845,23.8757468 C138.94934,23.9377215 139.035126,24.022481 139.101748,24.1272911 C139.168369,24.2316456 139.20168,24.3688101 139.20168,24.5305823 C139.20168,24.6394937 139.182515,24.7342785 139.149204,24.8199494 C139.11133,24.9028861 139.068437,24.9767089 139.016417,25.0427848 C138.964398,25.1088608 138.907359,25.1662785 138.840738,25.2109367 C138.77868,25.2583291 138.712515,25.2966076 138.650456,25.3248608 L139.472272,26.4463291 C139.410214,26.4581772 139.358194,26.4604557 139.32032,26.4604557 L139.215825,26.4604557 L139.102204,26.4604557 C139.068893,26.4604557 139.035583,26.4604557 139.002272,26.455443 L138.076417,25.189519 L138.237951,25.1275443 C138.29499,25.1038481 138.352029,25.0755949 138.41865,25.0423291 C138.480709,25.0113418 138.542311,24.9712405 138.59433,24.9233924 C138.651369,24.876 138.698825,24.8235949 138.732136,24.7620759 C138.770466,24.7001013 138.784612,24.6294684 138.784612,24.5510886 C138.784612,24.3920506 138.722553,24.2735696 138.59935,24.1929114 C138.475689,24.1145316 138.328757,24.0744304 138.152621,24.0744304 C138.048126,24.0744304 137.94865,24.0817215 137.844155,24.0953924 L137.844155,26.4549873 C137.819971,26.46 137.79168,26.4622785 137.758369,26.464557 C137.725058,26.4668354 137.682165,26.4691139 137.630146,26.4691139 C137.582689,26.4691139 137.540252,26.4668354 137.511505,26.464557 C137.478194,26.4618228 137.454466,26.4595443 137.430282,26.4549873 L137.430282,23.7431392 L137.429369,23.7431392 Z" id="Shape"></path>
                        </g>
                    </g>
                </g>
            </g>
        </g>
    </g>
</svg>