<?xml version="1.0" encoding="UTF-8"?>
<svg width="200px" height="125px" viewBox="0 0 200 125" version="1.1" xmlns="http://www.w3.org/2000/svg" xmlns:xlink="http://www.w3.org/1999/xlink">
    <!-- Generator: Sketch 42 (36781) - http://www.bohemiancoding.com/sketch -->
    <title>Logo_FBertelsmann</title>
    <desc>Created with Sketch.</desc>
    <defs></defs>
    <g id="V16_1_North-Web-(Desktop)" stroke="none" stroke-width="1" fill="none" fill-rule="evenodd">
        <g id="Logo_FBertelsmann">
            <g id="Group-14">
                <rect id="Rectangle-3" opacity="0.5" x="0" y="0" width="200" height="125"></rect>
                <path d="M59.5913636,58.6292186 C61.1281818,58.950986 66.0762727,59.0051256 67.6949091,60.3923814 L65.3647273,80.290893 L46.7955455,63.2801953 L46.7955455,57.3008465" id="Fill-1" fill="#FFFFFF"></path>
                <path d="M59.5883364,58.6292186 L46.7925182,57.3008465 L43.0667909,57.2679163 L43.0667909,51.4984279 L50.9957909,51.4590791 L51.0887909,45.8835442 C51.0887909,45.8835442 64.7513364,43.290986 66.6672455,46.0504279 C67.2961545,46.9557302 67.4357909,54.1755442 66.3413364,55.1525674" id="Fill-3" fill="#FFFFFF" opacity="0.5"></path>
                <path d="M67.6949636,60.3946419 C68.9988727,61.6814326 71.8166909,78.3608744 68.8592364,79.5999442 L65.3647818,80.2909209" id="Fill-5" fill="#FFFFFF" opacity="0.300000012"></path>
                <polygon id="Fill-8" fill="#FFFFFF" opacity="0.449999988" points="43 63.2801674 43.0231818 80.4362605 65.3647273 80.2886326 46.7955455 63.2801674"></polygon>
                <polygon id="Fill-9" fill="#FFFFFF" points="83.3642091 58.0342977 83.3642091 58.959693 79.4257545 58.959693 79.4257545 61.8946698 82.7914818 61.8946698 82.7914818 62.8200651 79.4257545 62.8200651 79.4257545 66.4284372 78.3094818 66.4284372 78.3094818 58.0342977"></polygon>
                <path d="M85.4307182,60.4945488 L85.4307182,64.2787349 C85.4307182,64.7277581 85.5319,65.0752 85.7339909,65.3210605 C85.9363545,65.5672 86.2418091,65.6902698 86.6500818,65.6902698 C86.9476273,65.6902698 87.2282636,65.6179907 87.4917182,65.4734326 C87.7546273,65.3291535 87.9970818,65.1279442 88.2185364,64.8700837 L88.2185364,60.4945488 L89.2374455,60.4945488 L89.2374455,66.4284093 L88.6306273,66.4284093 C88.4855364,66.4284093 88.3939,66.3561302 88.3559909,66.2115721 L88.2758091,65.5730605 C88.0240818,65.8582698 87.7415364,66.0876651 87.4284455,66.2615256 C87.1156273,66.435107 86.7567182,66.5221767 86.3525364,66.5221767 C86.0356273,66.5221767 85.7560818,66.4683163 85.5139,66.3608744 C85.2714455,66.2537116 85.0682636,66.1021767 84.9040818,65.907107 C84.7399,65.7117581 84.6169,65.4756651 84.5348091,65.1982698 C84.4527182,64.9208744 84.4118091,64.6144558 84.4118091,64.2787349 L84.4118091,60.4945488 L85.4307182,60.4945488 Z" id="Fill-10" fill="#FFFFFF"></path>
                <path d="M91.2466818,66.4283256 L91.2466818,60.4944651 L91.8535,60.4944651 C91.9985909,60.4944651 92.0902273,60.5670233 92.1281364,60.7113023 L92.2083182,61.3556744 C92.4603182,61.0707442 92.7415,60.8402326 93.0526818,60.6644186 C93.3638636,60.4886047 93.7233182,60.4006977 94.1318636,60.4006977 C94.4485,60.4006977 94.7280455,60.4545581 94.9705,60.562 C95.2126818,60.6694419 95.4150455,60.821814 95.5773182,61.0188372 C95.7395909,61.2161395 95.8625909,61.4533488 95.9463182,61.7304651 C96.0303182,62.0078605 96.0723182,62.3142791 96.0723182,62.65 L96.0723182,66.4283256 L95.0534091,66.4283256 L95.0534091,62.65 C95.0534091,62.2012558 94.9533182,61.8526977 94.7528636,61.6046047 C94.5526818,61.3567907 94.2464091,61.2326047 93.8340455,61.2326047 C93.5326818,61.2326047 93.2512273,61.3068372 92.9899545,61.4553023 C92.7284091,61.6034884 92.4870455,61.8046977 92.2655909,62.0586512 L92.2655909,66.4283256 L91.2466818,66.4283256 Z" id="Fill-12" fill="#FFFFFF"></path>
                <path d="M100.062373,65.6668837 C100.394282,65.6668837 100.685282,65.5887442 100.9351,65.4324651 C101.185191,65.2764651 101.4151,65.0557209 101.624827,64.7707907 L101.624827,61.9002791 C101.438009,61.6426977 101.232918,61.4621395 101.009827,61.3586047 C100.786464,61.2550698 100.539373,61.2031628 100.268282,61.2031628 C99.7266455,61.2031628 99.3104636,61.4004651 99.0205545,61.7947907 C98.7303727,62.1893953 98.5852818,62.7517209 98.5852818,63.4817674 C98.5852818,63.8685581 98.6177364,64.1995349 98.6826455,64.4749767 C98.7475545,64.7501395 98.8430091,64.9767442 98.9687364,65.1542326 C99.0947364,65.332 99.2496455,65.4617674 99.4323727,65.543814 C99.6156455,65.6258605 99.8256455,65.6668837 100.062373,65.6668837 L100.062373,65.6668837 Z M102.037191,66.4284651 C101.8921,66.4284651 101.800464,66.356186 101.762282,66.2116279 L101.670645,65.4910698 C101.422736,65.7997209 101.139373,66.0466977 100.820827,66.232 C100.502009,66.4175814 100.136555,66.5102326 99.7247364,66.5102326 C99.3925545,66.5102326 99.0909182,66.4449302 98.8201,66.3140465 C98.5490091,66.1834419 98.3180091,65.9911628 98.1273727,65.7372093 C97.9364636,65.4832558 97.7897364,65.1670698 97.6866455,64.7883721 C97.5835545,64.4093953 97.5322818,63.9740465 97.5322818,63.4817674 C97.5322818,63.0447442 97.5892818,62.6375814 97.7038273,62.2605581 C97.8181,61.883814 97.9833727,61.5567442 98.1991,61.2793488 C98.4145545,61.0022326 98.6769182,60.7845581 98.9861909,60.6263256 C99.2951909,60.4683721 99.6464636,60.3891163 100.039464,60.3891163 C100.394282,60.3891163 100.697555,60.4507907 100.949555,60.5735814 C101.201555,60.6966512 101.426555,60.8693953 101.624827,61.092093 L101.624827,57.800186 L102.644009,57.800186 L102.644009,66.4284651 L102.037191,66.4284651 Z" id="Fill-14" fill="#FFFFFF"></path>
                <path d="M106.313255,65.789814 C106.492709,65.789814 106.656891,65.7713953 106.8058,65.7342791 C106.954709,65.6971628 107.094618,65.6444186 107.226345,65.5760465 C107.358073,65.5076744 107.484073,65.4247907 107.604073,65.3271163 C107.724345,65.2294419 107.841618,65.1183721 107.956164,64.9933488 L107.956164,63.7690698 C107.4868,63.7690698 107.088073,63.7994884 106.759982,63.8603256 C106.431618,63.9214419 106.164345,64.0006977 105.958436,64.0989302 C105.752255,64.1971628 105.602527,64.3129767 105.508982,64.4466512 C105.415436,64.5803256 105.3688,64.7293488 105.3688,64.8942791 C105.3688,65.0513953 105.393618,65.1870233 105.443255,65.3008837 C105.492618,65.4147442 105.559436,65.5079535 105.643436,65.5807907 C105.727709,65.6533488 105.826709,65.7066512 105.941255,65.7398605 C106.0558,65.7730698 106.179891,65.789814 106.313255,65.789814 L106.313255,65.789814 Z M108.957891,66.4283256 L108.505709,66.4283256 C108.406436,66.4283256 108.326527,66.4126977 108.265436,66.3814419 C108.204345,66.350186 108.164255,66.2840465 108.145164,66.1824651 L108.030618,65.6318605 C107.877891,65.7722326 107.728982,65.8983721 107.584164,66.0094419 C107.439073,66.1207907 107.286345,66.2145581 107.125982,66.2907442 C106.966164,66.3669302 106.795164,66.4244186 106.614073,66.4634884 C106.432436,66.5025581 106.231164,66.522093 106.009982,66.522093 C105.784709,66.522093 105.573891,66.4897209 105.377255,66.4249767 C105.180891,66.3605116 105.010164,66.2633953 104.8648,66.134186 C104.719982,66.0049767 104.604345,65.8411628 104.518709,65.6433023 C104.4328,65.4454419 104.389709,65.2113023 104.389709,64.9408837 C104.389709,64.705907 104.452982,64.4795814 104.578982,64.262186 C104.704982,64.0447907 104.908164,63.8516744 105.188527,63.6831163 C105.468891,63.5145581 105.836255,63.3766977 106.290345,63.2686977 C106.744436,63.1609767 107.299709,63.1071163 107.956164,63.1071163 L107.956164,62.6413488 C107.956164,62.177814 107.859891,61.8270233 107.667073,61.5892558 C107.474527,61.3514884 107.189255,61.2326047 106.811255,61.2326047 C106.563345,61.2326047 106.354164,61.2649767 106.184527,61.3294419 C106.014618,61.393907 105.867618,61.465907 105.7438,61.546 C105.619709,61.626093 105.5128,61.6983721 105.423073,61.7628372 C105.333345,61.8273023 105.244709,61.8593953 105.157164,61.8593953 C105.088436,61.8593953 105.028164,61.8409767 104.976618,61.8038605 C104.925073,61.7667442 104.884164,61.7206977 104.853345,61.666 L104.670618,61.3322326 C104.9908,61.0160465 105.336345,60.7796744 105.706436,60.6233953 C106.0768,60.4673953 106.486982,60.3889767 106.937255,60.3889767 C107.2618,60.3889767 107.5498,60.4439535 107.8018,60.5530698 C108.053527,60.6624651 108.265436,60.8148372 108.436982,61.010186 C108.6088,61.2052558 108.738618,61.4416279 108.826436,61.7187442 C108.913982,61.9961395 108.957891,62.3008837 108.957891,62.6326977 L108.957891,66.4283256 Z" id="Fill-16" fill="#FFFFFF"></path>
                <path d="M114.791255,61.548986 C114.760709,61.5919628 114.730164,61.6251721 114.699618,61.648614 C114.669073,61.6717767 114.625436,61.6834977 114.568164,61.6834977 C114.510891,61.6834977 114.448709,61.6594977 114.381891,61.6103814 C114.315073,61.5615442 114.230255,61.5079628 114.127164,61.4493581 C114.024073,61.3907535 113.899164,61.3371721 113.752164,61.2883349 C113.605164,61.2394977 113.424891,61.2149395 113.211345,61.2149395 C112.9288,61.2149395 112.678982,61.2668465 112.461345,61.3703814 C112.243709,61.4736372 112.061527,61.6232186 111.9148,61.8182884 C111.7678,62.0136372 111.657073,62.2500093 111.582618,62.5271256 C111.508436,62.8045209 111.471073,63.1148465 111.471073,63.4586605 C111.471073,63.8178233 111.511164,64.1370791 111.591345,64.4161488 C111.671527,64.6954977 111.784164,64.9299163 111.928982,65.1191256 C112.074073,65.308614 112.250527,65.4531721 112.458345,65.5525209 C112.666436,65.6521488 112.900164,65.7021023 113.1598,65.7021023 C113.407982,65.7021023 113.611982,65.6716837 113.772345,65.6111256 C113.932709,65.5505674 114.066073,65.4833116 114.172982,65.4090791 C114.279891,65.3348465 114.367709,65.2675907 114.436436,65.2070326 C114.504891,65.1464744 114.573618,65.1163349 114.642345,65.1163349 C114.730164,65.1163349 114.795073,65.1495442 114.837073,65.2159628 L115.123436,65.596614 C114.871436,65.9128 114.556709,66.1441488 114.178709,66.2906605 C113.800982,66.4371721 113.401982,66.5102884 112.982255,66.5102884 C112.6198,66.5102884 112.282982,66.4419163 111.972073,66.3051721 C111.660618,66.168707 111.390891,65.9705674 111.1618,65.7107535 C110.932982,65.4512186 110.752436,65.1319628 110.620982,64.752986 C110.489527,64.3742884 110.423527,63.9428465 110.423527,63.4586605 C110.423527,63.0171721 110.483527,62.6091721 110.6038,62.2343814 C110.724073,61.8593116 110.899436,61.5364279 111.130436,61.264893 C111.361436,60.9933581 111.646709,60.7815442 111.986255,60.6294512 C112.3258,60.4770791 112.715255,60.400893 113.154073,60.400893 C113.558527,60.400893 113.917436,60.4681488 114.230255,60.6029395 C114.543073,60.7377302 114.819891,60.9280558 115.060164,61.1741953 L114.791255,61.548986 Z" id="Fill-18" fill="#FFFFFF"></path>
                <path d="M116.628727,66.4284651 L117.647636,66.4284651 L117.647636,60.4946047 L116.628727,60.4946047 L116.628727,66.4284651 Z M117.876727,58.631814 C117.876727,58.7333953 117.856545,58.828 117.816455,58.915907 C117.776364,59.003814 117.723182,59.0819535 117.656091,59.1503256 C117.589273,59.2186977 117.512091,59.2722791 117.424545,59.3113488 C117.336727,59.3504186 117.243182,59.3699535 117.143909,59.3699535 C117.044636,59.3699535 116.951909,59.3504186 116.866273,59.3113488 C116.780636,59.2722791 116.704,59.2186977 116.637182,59.1503256 C116.570364,59.0819535 116.518,59.003814 116.479818,58.915907 C116.441636,58.828 116.422545,58.7333953 116.422545,58.631814 C116.422545,58.5302326 116.441636,58.4336744 116.479818,58.3418605 C116.518,58.2500465 116.570364,58.1702326 116.637182,58.1018605 C116.704,58.0334884 116.780636,57.9796279 116.866273,57.9405581 C116.951909,57.9017674 117.044636,57.8822326 117.143909,57.8822326 C117.243182,57.8822326 117.336727,57.9017674 117.424545,57.9405581 C117.512091,57.9796279 117.589273,58.0334884 117.656091,58.1018605 C117.723182,58.1702326 117.776364,58.2500465 117.816455,58.3418605 C117.856545,58.4336744 117.876727,58.5302326 117.876727,58.631814 L117.876727,58.631814 Z" id="Fill-20" fill="#FFFFFF"></path>
                <path d="M123.807482,57.9406977 L122.473573,59.4518605 C122.420118,59.5104651 122.367755,59.5526047 122.315936,59.578 C122.264664,59.6033953 122.198936,59.6159535 122.118755,59.6159535 L121.511936,59.6159535 L122.359027,58.1982791 C122.412482,58.1086977 122.470845,58.0431163 122.533573,58.002093 C122.596845,57.9610698 122.689027,57.9406977 122.811482,57.9406977 L123.807482,57.9406977 Z M122.135664,65.6963256 C122.708391,65.6963256 123.135482,65.4998605 123.418027,65.1074884 C123.7003,64.7148372 123.841573,64.1673023 123.841573,63.4643256 C123.841573,62.7577209 123.7003,62.2071163 123.418027,61.8125116 C123.135482,61.418186 122.708391,61.2208837 122.135664,61.2208837 C121.845755,61.2208837 121.594027,61.2716744 121.380209,61.3732558 C121.166391,61.4748372 120.988027,61.6210698 120.845118,61.8125116 C120.701664,62.0039535 120.595027,62.2392093 120.524391,62.5182791 C120.453755,62.7976279 120.4183,63.1129767 120.4183,63.4643256 C120.4183,63.8159535 120.453755,64.130186 120.524391,64.4073023 C120.595027,64.6849767 120.701664,64.918 120.845118,65.1074884 C120.988027,65.2969767 121.166391,65.4423721 121.380209,65.5439535 C121.594027,65.6455349 121.845755,65.6963256 122.135664,65.6963256 L122.135664,65.6963256 Z M122.135664,60.4006977 C122.559482,60.4006977 122.941845,60.4732558 123.283573,60.6175349 C123.625027,60.762093 123.915209,60.9672093 124.153845,61.2326047 C124.392209,61.4982791 124.575209,61.8194884 124.703118,62.1962326 C124.831027,62.5732558 124.894845,62.993814 124.894845,63.4584651 C124.894845,63.9273023 124.831027,64.3489767 124.703118,64.7237674 C124.575209,65.0985581 124.392209,65.4189302 124.153845,65.6846047 C123.915209,65.95 123.625027,66.154 123.283573,66.2966047 C122.941845,66.4392093 122.559482,66.5103721 122.135664,66.5103721 C121.712118,66.5103721 121.329482,66.4392093 120.988027,66.2966047 C120.6463,66.154 120.355573,65.95 120.115027,65.6846047 C119.874482,65.4189302 119.6893,65.0985581 119.559755,64.7237674 C119.429936,64.3489767 119.3653,63.9273023 119.3653,63.4584651 C119.3653,62.993814 119.429936,62.5732558 119.559755,62.1962326 C119.6893,61.8194884 119.874482,61.4982791 120.115027,61.2326047 C120.355573,60.9672093 120.6463,60.762093 120.988027,60.6175349 C121.329482,60.4732558 121.712118,60.4006977 122.135664,60.4006977 L122.135664,60.4006977 Z" id="Fill-22" fill="#FFFFFF"></path>
                <path d="M126.497745,66.4283256 L126.497745,60.4944651 L127.104564,60.4944651 C127.249655,60.4944651 127.341291,60.5670233 127.3792,60.7113023 L127.459382,61.3556744 C127.711382,61.0707442 127.992564,60.8402326 128.303745,60.6644186 C128.614927,60.4886047 128.974382,60.4006977 129.382927,60.4006977 C129.699564,60.4006977 129.979109,60.4545581 130.221564,60.562 C130.463745,60.6694419 130.666109,60.821814 130.828382,61.0188372 C130.990655,61.2161395 131.113655,61.4533488 131.197382,61.7304651 C131.281382,62.0078605 131.323382,62.3142791 131.323382,62.65 L131.323382,66.4283256 L130.304473,66.4283256 L130.304473,62.65 C130.304473,62.2012558 130.204382,61.8526977 130.003927,61.6046047 C129.803745,61.3567907 129.497473,61.2326047 129.085109,61.2326047 C128.783745,61.2326047 128.502291,61.3068372 128.241018,61.4553023 C127.979473,61.6034884 127.738109,61.8046977 127.516655,62.0586512 L127.516655,66.4283256 L126.497745,66.4283256 Z" id="Fill-23" fill="#FFFFFF"></path>
                <path d="M79.9817636,75.9423163 L79.9817636,78.8915256 L81.8376727,78.8915256 C82.1774909,78.8915256 82.4619455,78.8499442 82.6907636,78.7665023 C82.9193091,78.6830605 83.1031273,78.5717116 83.2414,78.4324558 C83.3796727,78.2934791 83.4792182,78.1310605 83.5405818,77.9457581 C83.6016727,77.7601767 83.6322182,77.5631535 83.6322182,77.3544093 C83.6322182,77.1364558 83.5984,76.9405488 83.5304909,76.7666884 C83.4623091,76.5928279 83.3556727,76.4443628 83.2108545,76.321293 C83.0657636,76.1985023 82.8800364,76.1047349 82.6534,76.0397116 C82.4267636,75.9749674 82.1526727,75.9423163 81.8308545,75.9423163 L79.9817636,75.9423163 Z M79.9817636,74.6485488 L81.4433091,74.6485488 C82.0643091,74.6485488 82.5353091,74.5327349 82.8574,74.3008279 C83.1792182,74.0689209 83.3398545,73.7002698 83.3398545,73.1945953 C83.3398545,72.6707814 83.1947636,72.297386 82.9048545,72.0749674 C82.6146727,71.8522698 82.1616727,71.7409209 81.5453091,71.7409209 L79.9817636,71.7409209 L79.9817636,74.6485488 Z M78.1531273,80.3524558 L78.1531273,70.2942233 L81.5453091,70.2942233 C82.1889455,70.2942233 82.7382182,70.3567349 83.1936727,70.4820372 C83.6491273,70.6070605 84.0230364,70.7856651 84.3156727,71.0175721 C84.6077636,71.2494791 84.8218545,71.5299442 84.9579455,71.8592465 C85.0937636,72.1885488 85.1616727,72.5594326 85.1616727,72.9721767 C85.1616727,73.2088279 85.1278545,73.4348744 85.0596727,73.6503163 C84.9917636,73.8660372 84.8864909,74.0678047 84.7438545,74.2556186 C84.6009455,74.4431535 84.4195818,74.6136651 84.2000364,74.7668744 C83.9799455,74.9198047 83.7184,75.0495721 83.4148545,75.1564558 C84.7651273,75.4670605 85.4406727,76.2135721 85.4406727,77.3959907 C85.4406727,77.8226884 85.3613091,78.217014 85.2025818,78.5786884 C85.0441273,78.9403628 84.8128545,79.2523628 84.5093091,79.5141302 C84.2054909,79.7761767 83.8315818,79.9815721 83.3875818,80.1297581 C82.9433091,80.2782233 82.4357636,80.3524558 81.8646727,80.3524558 L78.1531273,80.3524558 Z" id="Fill-24" fill="#FFFFFF"></path>
                <path d="M89.9948909,74.3354884 C89.5053455,74.3354884 89.1224364,74.4769767 88.8458909,74.7599535 C88.5693455,75.0426512 88.3928909,75.4439535 88.3157091,75.9633023 L91.4698,75.9633023 C91.4698,75.7406047 91.4403455,75.5307442 91.3817091,75.3337209 C91.3225273,75.1366977 91.2319818,74.9639535 91.1098,74.8154884 C90.9873455,74.6670233 90.8332545,74.550093 90.6475273,74.4641395 C90.4615273,74.3784651 90.2438909,74.3354884 89.9948909,74.3354884 M89.9608,73.1042326 C90.4001636,73.1042326 90.8048909,73.1762326 91.1741636,73.3199535 C91.5437091,73.4636744 91.8619818,73.6735349 92.1292545,73.9495349 C92.3968,74.2252558 92.6051636,74.5640465 92.7546182,74.9650698 C92.9043455,75.366093 92.9790727,75.8240465 92.9790727,76.3389302 C92.9790727,76.4686977 92.9733455,76.5764186 92.9621636,76.662093 C92.9507091,76.7483256 92.9305273,76.8153023 92.9008,76.8641395 C92.8713455,76.9126977 92.8315273,76.9473023 92.7818909,76.9685116 C92.7319818,76.9891628 92.6687091,76.9994884 92.5915273,76.9994884 L88.2818909,76.9994884 C88.3315273,77.7323256 88.5240727,78.2703721 88.8595273,78.6133488 C89.1947091,78.9566047 89.6389818,79.1282326 90.1920727,79.1282326 C90.4639818,79.1282326 90.6982545,79.0958605 90.8957091,79.0308372 C91.0926182,78.965814 91.2647091,78.894093 91.4119818,78.8151163 C91.5592545,78.7364186 91.6885273,78.6644186 91.7995273,78.5993953 C91.9105273,78.5346512 92.0182545,78.502 92.1227091,78.502 C92.1906182,78.502 92.2495273,78.5159535 92.2991636,78.5438605 C92.3490727,78.5717674 92.3921636,78.6111163 92.4284364,78.662186 L92.9179818,79.2881395 C92.7319818,79.5105581 92.5236182,79.6975349 92.2926182,79.8479535 C92.0613455,79.9986512 91.8199818,80.1194884 91.5685273,80.209907 C91.3170727,80.3003256 91.0609818,80.3639535 90.8002545,80.4010698 C90.5398,80.438186 90.2869818,80.4568837 90.0423455,80.4568837 C89.5574364,80.4568837 89.1066182,80.3742791 88.6896182,80.209907 C88.2726182,80.0452558 87.9098909,79.8016279 87.6019818,79.4795814 C87.2938,79.1572558 87.0513455,78.7584651 86.8746182,78.2829302 C86.6978909,77.8076744 86.6095273,77.2570698 86.6095273,76.6311163 C86.6095273,76.1438605 86.6864364,75.686186 86.8408,75.2572558 C86.9946182,74.8283256 87.2158,74.4549302 87.5032545,74.1373488 C87.7912545,73.8197674 88.1425273,73.5680465 88.5573455,73.3824651 C88.9716182,73.1971628 89.4396182,73.1042326 89.9608,73.1042326" id="Fill-25" fill="#FFFFFF"></path>
                <path d="M94.6171545,80.3524 L94.6171545,73.2157488 L95.6027909,73.2157488 C95.7751545,73.2157488 95.8954273,73.2481209 95.9633364,73.3128651 C96.0312455,73.3778884 96.0765182,73.4892372 96.0991545,73.6469116 L96.2011545,74.5095163 C96.4504273,74.0688651 96.7425182,73.7211442 97.0779727,73.4660744 C97.4134273,73.2110047 97.7895182,73.0834698 98.2065182,73.0834698 C98.5509727,73.0834698 98.8365182,73.1646791 99.0631545,73.3268186 L98.8455182,74.6138884 C98.8318818,74.6973302 98.8024273,74.756493 98.7571545,74.7910977 C98.7118818,74.8259814 98.6505182,74.8432837 98.5736091,74.8432837 C98.5057,74.8432837 98.4127,74.8270977 98.2946091,74.7944465 C98.1770636,74.7623535 98.0205182,74.7458884 97.8257909,74.7458884 C97.4767,74.7458884 97.1777909,74.8444 96.9285182,75.0414233 C96.6792455,75.2387256 96.4684273,75.5272837 96.2960636,75.9076558 L96.2960636,80.3524 L94.6171545,80.3524 Z" id="Fill-26" fill="#FFFFFF"></path>
                <path d="M102.733982,80.4637209 C102.130982,80.4637209 101.666527,80.2887442 101.340345,79.9385116 C101.013891,79.5885581 100.851073,79.1049302 100.851073,78.488186 L100.851073,74.5025116 L100.143891,74.5025116 C100.053073,74.5025116 99.9750727,74.4723721 99.9096182,74.412093 C99.8436182,74.351814 99.8106182,74.2613953 99.8106182,74.1408372 L99.8106182,73.4590698 L100.932618,73.2712558 L101.2858,71.3236279 C101.304073,71.2309767 101.3458,71.1589767 101.411527,71.107907 C101.477527,71.0568372 101.559891,71.0314419 101.659982,71.0314419 L102.529982,71.0314419 L102.529982,73.2782326 L104.365164,73.2782326 L104.365164,74.5025116 L102.529982,74.5025116 L102.529982,78.3701395 C102.529982,78.5925581 102.584255,78.7664186 102.693073,78.8917209 C102.801891,79.0167442 102.946709,79.0795349 103.128073,79.0795349 C103.232255,79.0795349 103.319527,79.0666977 103.389891,79.0413023 C103.459982,79.015907 103.521345,78.9891163 103.573436,78.9612093 C103.625527,78.9333023 103.671891,78.9067907 103.7128,78.8813953 C103.753436,78.8557209 103.794345,78.8428837 103.834982,78.8428837 C103.884891,78.8428837 103.9258,78.8557209 103.957436,78.8813953 C103.989345,78.9067907 104.023164,78.9450233 104.059436,78.996093 L104.562345,79.8305116 C104.317982,80.0392558 104.036527,80.1969302 103.719345,80.303814 C103.402164,80.4104186 103.0738,80.4637209 102.733982,80.4637209" id="Fill-27" fill="#FFFFFF"></path>
                <path d="M108.838109,74.3354884 C108.348564,74.3354884 107.965655,74.4769767 107.689109,74.7599535 C107.412564,75.0426512 107.236109,75.4439535 107.158927,75.9633023 L110.313018,75.9633023 C110.313018,75.7406047 110.283564,75.5307442 110.224927,75.3337209 C110.165745,75.1366977 110.0752,74.9639535 109.953018,74.8154884 C109.830564,74.6670233 109.676473,74.550093 109.490745,74.4641395 C109.304745,74.3784651 109.087109,74.3354884 108.838109,74.3354884 M108.804018,73.1042326 C109.243382,73.1042326 109.648109,73.1762326 110.017382,73.3199535 C110.386927,73.4636744 110.7052,73.6735349 110.972473,73.9495349 C111.240018,74.2252558 111.448382,74.5640465 111.597836,74.9650698 C111.747564,75.366093 111.822291,75.8240465 111.822291,76.3389302 C111.822291,76.4686977 111.816564,76.5764186 111.805382,76.662093 C111.793927,76.7483256 111.773745,76.8153023 111.744018,76.8641395 C111.714564,76.9126977 111.674745,76.9473023 111.625109,76.9685116 C111.5752,76.9891628 111.511927,76.9994884 111.434745,76.9994884 L107.125109,76.9994884 C107.174745,77.7323256 107.367291,78.2703721 107.702745,78.6133488 C108.037927,78.9566047 108.4822,79.1282326 109.035291,79.1282326 C109.3072,79.1282326 109.541473,79.0958605 109.738927,79.0308372 C109.935836,78.965814 110.107927,78.894093 110.2552,78.8151163 C110.402473,78.7364186 110.531745,78.6644186 110.642745,78.5993953 C110.753745,78.5346512 110.861473,78.502 110.965927,78.502 C111.033836,78.502 111.092745,78.5159535 111.142382,78.5438605 C111.192291,78.5717674 111.235382,78.6111163 111.271655,78.662186 L111.7612,79.2881395 C111.5752,79.5105581 111.366836,79.6975349 111.135836,79.8479535 C110.904564,79.9986512 110.6632,80.1194884 110.411745,80.209907 C110.160291,80.3003256 109.9042,80.3639535 109.643473,80.4010698 C109.383018,80.438186 109.1302,80.4568837 108.885564,80.4568837 C108.400655,80.4568837 107.949836,80.3742791 107.532836,80.209907 C107.115836,80.0452558 106.753109,79.8016279 106.4452,79.4795814 C106.137018,79.1572558 105.894564,78.7584651 105.717836,78.2829302 C105.541109,77.8076744 105.452745,77.2570698 105.452745,76.6311163 C105.452745,76.1438605 105.529655,75.686186 105.684018,75.2572558 C105.837836,74.8283256 106.059018,74.4549302 106.346473,74.1373488 C106.634473,73.8197674 106.985745,73.5680465 107.400564,73.3824651 C107.814836,73.1971628 108.282836,73.1042326 108.804018,73.1042326" id="Fill-28" fill="#FFFFFF"></path>
                <polygon id="Fill-29" fill="#FFFFFF" points="113.569 80.3523721 115.248182 80.3523721 115.248182 70.015907 113.569 70.015907"></polygon>
                <path d="M121.543109,74.6068 C121.497836,74.6810326 121.450109,74.7332186 121.400473,74.7633581 C121.350564,74.7934977 121.287018,74.8085674 121.209836,74.8085674 C121.128291,74.8085674 121.041018,74.7854047 120.948291,74.7390791 C120.855564,74.6927535 120.747836,74.6405674 120.625382,74.5825209 C120.5032,74.5244744 120.363836,74.4722884 120.207564,74.4259628 C120.051018,74.3796372 119.866382,74.3564744 119.653109,74.3564744 C119.322291,74.3564744 119.061836,74.4281953 118.871473,74.5719163 C118.681382,74.7159163 118.585927,74.9034512 118.585927,75.1356372 C118.585927,75.2885674 118.634745,75.4172186 118.732109,75.5215907 C118.829745,75.6256837 118.958745,75.7174977 119.119655,75.7961953 C119.280564,75.8751721 119.463018,75.9457767 119.666745,76.0082884 C119.870745,76.0710791 120.079382,76.1394512 120.292382,76.2136837 C120.505109,76.2879163 120.713745,76.3724744 120.917745,76.4673581 C121.121745,76.5625209 121.303927,76.6830791 121.464836,76.8293116 C121.625745,76.9752651 121.754745,77.1505209 121.852382,77.3545209 C121.949745,77.5585209 121.998564,77.8043814 121.998564,78.0918233 C121.998564,78.4350791 121.9372,78.7515442 121.815018,79.0412186 C121.692836,79.3311721 121.513655,79.5814977 121.278018,79.7924744 C121.042382,80.0034512 120.751109,80.1681023 120.404473,80.2864279 C120.057836,80.4044744 119.6602,80.4636372 119.211291,80.4636372 C118.971018,80.4636372 118.736745,80.4415907 118.507927,80.3974977 C118.278836,80.3534047 118.059291,80.2922884 117.848473,80.2133116 C117.637927,80.134614 117.442927,80.0416837 117.264018,79.9350791 C117.084564,79.8284744 116.9272,79.7123814 116.791382,79.5873581 L117.178927,78.9332186 C117.228836,78.8545209 117.287473,78.7942419 117.355655,78.7523814 C117.423836,78.7108 117.509745,78.6898698 117.613927,78.6898698 C117.718382,78.6898698 117.816836,78.7200093 117.909836,78.7802884 C118.002564,78.8405674 118.110291,78.9055907 118.232473,78.9750791 C118.354927,79.0445674 118.498655,79.1095907 118.6642,79.1698698 C118.829745,79.2301488 119.0392,79.2602884 119.293109,79.2602884 C119.4922,79.2602884 119.663473,79.2360093 119.806382,79.1874512 C119.949018,79.138614 120.066836,79.074986 120.159836,78.9960093 C120.252564,78.9173116 120.320745,78.8254977 120.363836,78.7211256 C120.406655,78.6170326 120.4282,78.5090326 120.4282,78.3976837 C120.4282,78.2308 120.379382,78.0940558 120.282018,77.9874512 C120.184655,77.8805674 120.055382,77.7879163 119.894745,77.7092186 C119.733564,77.6302419 119.550018,77.5596372 119.344109,77.4968465 C119.137927,77.4343349 118.926836,77.3659628 118.711655,77.2917302 C118.496473,77.2174977 118.285927,77.130707 118.079745,77.0310791 C117.873291,76.9314512 117.689745,76.8047535 117.528836,76.6518233 C117.367927,76.498893 117.238927,76.3110791 117.141291,76.0883814 C117.043927,75.8659628 116.995382,75.5969395 116.995382,75.2815907 C116.995382,74.9894047 117.051836,74.7111721 117.165291,74.446893 C117.278473,74.1823349 117.445109,73.9518233 117.664927,73.7548 C117.884745,73.5577767 118.158836,73.3998233 118.487473,73.2817767 C118.816109,73.1634512 119.195745,73.1042884 119.626109,73.1042884 C120.106382,73.1042884 120.543836,73.1854977 120.937927,73.3476372 C121.332564,73.5100558 121.660927,73.7232651 121.923836,73.9878233 L121.543109,74.6068 Z" id="Fill-30" fill="#FFFFFF"></path>
                <path d="M123.602691,80.3524 L123.602691,73.2157488 L124.629236,73.2157488 C124.846873,73.2157488 124.989509,73.3198419 125.057418,73.528586 L125.166236,74.0571442 C125.288691,73.9181674 125.4166,73.7906326 125.550509,73.6748186 C125.683873,73.5587256 125.826509,73.4590977 125.978691,73.3756558 C126.1306,73.292214 126.293418,73.2260744 126.467964,73.1775163 C126.642509,73.1286791 126.833964,73.1044 127.042327,73.1044 C127.481964,73.1044 127.843327,73.2260744 128.126691,73.4694233 C128.409782,73.7127721 128.621691,74.036493 128.762418,74.4397488 C128.870964,74.2033767 129.006782,74.000493 129.170145,73.8310977 C129.333509,73.6619814 129.512418,73.5241209 129.707145,73.4172372 C129.902145,73.3106326 130.109145,73.2319349 130.329236,73.1808651 C130.549055,73.1297953 130.769691,73.1044 130.991964,73.1044 C131.377055,73.1044 131.719327,73.1646791 132.018236,73.2852372 C132.317418,73.4057953 132.569145,73.5818884 132.772873,73.8137953 C132.976873,74.0457023 133.132055,74.3286791 133.238691,74.6624465 C133.345055,74.996493 133.398509,75.3788186 133.398509,75.8102605 L133.398509,80.3524 L131.719327,80.3524 L131.719327,75.8102605 C131.719327,75.3556558 131.621691,75.0137953 131.426964,74.7841209 C131.232236,74.5547256 130.946691,74.4397488 130.5706,74.4397488 C130.398236,74.4397488 130.238418,74.4701674 130.091145,74.5301674 C129.943873,74.5907256 129.8146,74.6775163 129.703873,74.7910977 C129.5926,74.9046791 129.5056,75.0475628 129.442055,75.2189116 C129.378509,75.3905395 129.346873,75.5875628 129.346873,75.8102605 L129.346873,80.3524 L127.661145,80.3524 L127.661145,75.8102605 C127.661145,75.332493 127.566782,74.9847721 127.378873,74.7668186 C127.190691,74.5488651 126.913327,74.4397488 126.546236,74.4397488 C126.305964,74.4397488 126.080418,74.5014233 125.869873,74.624214 C125.659055,74.7472837 125.462964,74.9152837 125.2816,75.128493 L125.2816,80.3524 L123.602691,80.3524 Z" id="Fill-31" fill="#FFFFFF"></path>
                <path d="M137.510964,79.2812186 C137.683055,79.2812186 137.841782,79.2650326 137.9866,79.2332186 C138.131691,79.2011256 138.268873,79.1534047 138.398145,79.0894977 C138.527418,79.0255907 138.651782,78.946893 138.771782,78.8534047 C138.891782,78.7596372 139.013145,78.6488465 139.1356,78.5210326 L139.1356,77.326614 C138.646055,77.326614 138.236964,77.3581488 137.9086,77.4209395 C137.579964,77.4842884 137.315964,77.5649395 137.1166,77.662893 C136.916964,77.7611256 136.775691,77.8752651 136.691691,78.0061488 C136.607691,78.1367535 136.565964,78.2793581 136.565964,78.4334047 C136.565964,78.7370326 136.652964,78.9544279 136.827782,79.0850326 C137.002055,79.2159163 137.230055,79.2812186 137.510964,79.2812186 L137.510964,79.2812186 Z M140.773873,80.3522884 L140.019236,80.3522884 C139.860509,80.3522884 139.735873,80.3280093 139.645327,80.2794512 C139.554782,80.230614 139.4866,80.1321023 139.441327,79.9836372 L139.291873,79.4760093 C139.115145,79.6384279 138.941691,79.7810326 138.771782,79.9035442 C138.601873,80.026614 138.426236,80.1298698 138.244873,80.2133116 C138.063782,80.2967535 137.871236,80.3592651 137.667236,80.4011256 C137.463236,80.442986 137.2366,80.4636372 136.987327,80.4636372 C136.692782,80.4636372 136.420873,80.422893 136.171873,80.3416837 C135.9226,80.2601953 135.708509,80.1379628 135.529327,79.9752651 C135.350145,79.8122884 135.210782,79.6099628 135.111236,79.3680093 C135.011418,79.1260558 134.961509,78.8447535 134.961509,78.5235442 C134.961509,78.2536837 135.030782,77.9871721 135.169055,77.7242884 C135.307327,77.4614047 135.537236,77.2241953 135.859055,77.0126605 C136.180873,76.8008465 136.609055,76.6250326 137.1436,76.4854977 C137.678418,76.3459628 138.342509,76.2761953 139.1356,76.2761953 L139.1356,75.8556372 C139.1356,75.3745209 139.037145,75.0181488 138.839964,74.7868 C138.642509,74.5554512 138.356145,74.4399163 137.980055,74.4399163 C137.708145,74.4399163 137.481509,74.4722884 137.300418,74.5373116 C137.119055,74.6020558 136.961145,74.6751721 136.827782,74.7563814 C136.694145,74.8375907 136.5706,74.9104279 136.457418,74.9754512 C136.343964,75.0404744 136.219327,75.0728465 136.083509,75.0728465 C135.970055,75.0728465 135.872691,75.042707 135.790873,74.9824279 C135.7096,74.9221488 135.6436,74.8479163 135.593964,74.7597302 L135.288236,74.2102419 C136.090055,73.458986 137.057691,73.0836372 138.1906,73.0836372 C138.5986,73.0836372 138.962145,73.1520093 139.281782,73.2887535 C139.601145,73.4254977 139.871964,73.6155442 140.094236,73.858893 C140.315964,74.1025209 140.484782,74.3935907 140.600418,74.7321023 C140.716055,75.070614 140.773873,75.4414977 140.773873,75.8450326 L140.773873,80.3522884 Z" id="Fill-32" fill="#FFFFFF"></path>
                <path d="M142.684,80.3524 L142.684,73.2157488 L143.710545,73.2157488 C143.928182,73.2157488 144.070818,73.3198419 144.138727,73.528586 L144.254364,74.0920279 C144.394545,73.9438419 144.543182,73.8093302 144.699727,73.6887721 C144.856,73.5679349 145.021273,73.4638419 145.195818,73.3756558 C145.370364,73.2877488 145.557182,73.220214 145.756818,73.1738884 C145.955909,73.1275628 146.173545,73.1044 146.409182,73.1044 C146.789909,73.1044 147.127545,73.1705395 147.422091,73.3025395 C147.716636,73.4348186 147.962364,73.6201209 148.159545,73.8590047 C148.357,74.0978884 148.506455,74.3830977 148.608455,74.7146326 C148.710455,75.0461674 148.761182,75.4114698 148.761182,75.8102605 L148.761182,80.3524 L147.082273,80.3524 L147.082273,75.8102605 C147.082273,75.3743535 146.983818,75.0369581 146.786636,74.7980744 C146.589182,74.5591907 146.293545,74.4397488 145.899455,74.4397488 C145.609545,74.4397488 145.337364,74.5072837 145.083727,74.6415163 C144.829818,74.776307 144.589545,74.9593767 144.362909,75.1910047 L144.362909,80.3524 L142.684,80.3524 Z" id="Fill-33" fill="#FFFFFF"></path>
                <path d="M150.685245,80.3524 L150.685245,73.2157488 L151.711791,73.2157488 C151.929427,73.2157488 152.072064,73.3198419 152.139973,73.528586 L152.255609,74.0920279 C152.395791,73.9438419 152.544427,73.8093302 152.700973,73.6887721 C152.857245,73.5679349 153.022518,73.4638419 153.197064,73.3756558 C153.371609,73.2877488 153.558427,73.220214 153.758064,73.1738884 C153.957155,73.1275628 154.174791,73.1044 154.410427,73.1044 C154.791155,73.1044 155.128791,73.1705395 155.423336,73.3025395 C155.717882,73.4348186 155.963609,73.6201209 156.160791,73.8590047 C156.358245,74.0978884 156.5077,74.3830977 156.6097,74.7146326 C156.7117,75.0461674 156.762427,75.4114698 156.762427,75.8102605 L156.762427,80.3524 L155.083518,80.3524 L155.083518,75.8102605 C155.083518,75.3743535 154.985064,75.0369581 154.787882,74.7980744 C154.590427,74.5591907 154.294791,74.4397488 153.9007,74.4397488 C153.610791,74.4397488 153.338609,74.5072837 153.084973,74.6415163 C152.831064,74.776307 152.590791,74.9593767 152.364155,75.1910047 L152.364155,80.3524 L150.685245,80.3524 Z" id="Fill-34" fill="#FFFFFF"></path>
            </g>
        </g>
    </g>
</svg>