<?xml version="1.0" encoding="UTF-8"?>
<svg width="200px" height="125px" viewBox="0 0 200 125" version="1.1" xmlns="http://www.w3.org/2000/svg" xmlns:xlink="http://www.w3.org/1999/xlink">
    <!-- Generator: Sketch 42 (36781) - http://www.bohemiancoding.com/sketch -->
    <title>Logo_Cl3ver</title>
    <desc>Created with Sketch.</desc>
    <defs></defs>
    <g id="V16_1_North-Web-(Desktop)" stroke="none" stroke-width="1" fill="none" fill-rule="evenodd">
        <g id="Logo_Cl3ver">
            <g id="Group-10-Copy">
                <rect id="Rectangle-3" opacity="0.5" x="0" y="0" width="200" height="125"></rect>
                <g id="Logo-CL3VER-white" transform="translate(34.000000, 49.036377)" fill="#FFFFFF">
                    <path d="M21.3158345,23.5033438 C21.3158345,23.5033438 18.6065392,26.7389444 12.7817803,26.7389444 C5.05629672,26.7389444 0,20.7784194 0,13.4116519 C0,5.96165478 5.05629672,0.0442510699 12.7817803,0.0442510699 C18.6065392,0.0442510699 21.3158345,3.23691869 21.3158345,3.23691869 L19.0102596,6.5145107 C19.0102596,6.5145107 16.461398,4.045301 12.8621854,4.045301 C7.68537518,4.045301 4.12532953,8.13334665 4.12532953,13.4116519 C4.12532953,18.6496605 7.68537518,22.6949615 12.8621854,22.6949615 C16.7455464,22.6949615 19.0102596,20.2675549 19.0102596,20.2675549 L21.3158345,23.5033438" id="Fill-1"></path>
                    <polyline id="Fill-2" points="24.647281 26.1427789 24.647281 0.597295292 28.652097 0.597295292 28.652097 22.3963138 39.4239372 22.3963138 39.4239372 26.1427789 24.647281 26.1427789"></polyline>
                    <path d="M47.58101,15.039903 L47.58101,13.9761826 L53.0830185,4.34376034 L43.0517718,4.34376034 L43.0517718,0.597295292 L59.3516063,0.597295292 L59.3516063,1.44861056 L53.285067,11.3738431 C57.6523652,11.8427161 59.9991783,14.7376776 59.9991783,19.1654208 C59.9991783,23.5931641 56.7635777,26.7389444 50.5746419,26.7389444 C45.1547332,26.7389444 41.8788359,23.3760514 41.7170842,23.2478174 L43.738699,19.9700371 C43.738699,19.9700371 46.6108759,22.7789444 50.4529986,22.7789444 C53.9316976,22.7789444 55.7523937,21.4214722 55.7523937,18.9950071 C55.7523937,16.398505 54.0934494,15.039903 51.1007589,15.039903 L47.58101,15.039903" id="Fill-3"></path>
                    <polyline id="Fill-4" points="74.1568845 18.522368 76.5027561 12.9868417 82.1657632 0.597295292 86.6545164 0.597295292 74.4391498 26.1427789 73.6305792 26.1427789 61.4564508 0.597295292 65.9453923 0.597295292 71.6886163 12.9868417 73.913786 18.522368 74.1568845 18.522368"></polyline>
                    <polyline id="Fill-5" points="105.107213 15.8533695 92.8916576 15.8533695 92.8916576 22.3963138 107.291332 22.3963138 107.291332 26.1427789 88.8877832 26.1427789 88.8877832 0.597295292 107.291332 0.597295292 107.291332 4.34376034 92.8916576 4.34376034 92.8916576 12.277883 105.107213 12.277883 105.107213 15.8533695"></polyline>
                    <path d="M120.99071,4.3403709 L114.599726,4.3403709 L114.599726,12.2831555 L121.233621,12.2831555 C124.590864,12.2831555 126.815281,11.7101512 126.815281,8.30319544 C126.815281,4.94030243 124.549815,4.3403709 120.99071,4.3403709 Z M110.595852,0.594847361 L121.112165,0.594847361 C127.219943,0.594847361 130.940611,2.59819686 130.940611,8.13297004 C130.940611,12.1349615 128.959292,13.7737575 125.885255,15.0500713 L125.885255,15.3054094 L131.911686,25.5436006 L131.911686,26.1395777 L127.462853,26.1395777 L121.516827,15.9446961 L114.599726,15.9446961 L114.599726,26.1395777 L110.595852,26.1395777 L110.595852,0.594847361 L110.595852,0.594847361 Z" id="Fill-6"></path>
                </g>
            </g>
        </g>
    </g>
</svg>