<?xml version="1.0" encoding="UTF-8"?>
<svg width="200px" height="125px" viewBox="0 0 200 125" version="1.1" xmlns="http://www.w3.org/2000/svg" xmlns:xlink="http://www.w3.org/1999/xlink">
    <!-- Generator: Sketch 42 (36781) - http://www.bohemiancoding.com/sketch -->
    <title>Logo_Renault</title>
    <desc>Created with Sketch.</desc>
    <defs></defs>
    <g id="V16_1_North-Web-(Desktop)" stroke="none" stroke-width="1" fill="none" fill-rule="evenodd">
        <g id="Logo_Renault">
            <g id="Group-19">
                <rect id="Rectangle-3" opacity="0.5" x="0" y="0" width="200" height="125"></rect>
                <path d="M33.1737888,78.4469274 L33.1737888,66.7863128 L38.9043256,66.7863128 L45.5233176,78.4469274 L52.0534641,78.4469274 L44.7681306,66.0949721 C46.9892689,65.6648047 48.6255072,64.7276534 49.6768462,63.2835196 C50.7281852,61.8393857 51.2538543,59.7807263 51.2538543,57.1075419 C51.2538543,53.7276539 50.4098218,51.2772346 48.7217567,49.7562849 C47.0336916,48.2353352 44.2646728,47.4748603 40.4146996,47.4748603 L25.4886504,47.4748603 L25,50.1480447 L26.5992196,50.7932961 C26.8953715,50.9162014 27.080466,51.0314248 27.1545041,51.1389665 C27.2285423,51.2465081 27.265561,51.469274 27.265561,51.8072626 L27.265561,78.4469274 L33.1737888,78.4469274 Z M33.1737888,62.1773743 L33.1737888,52.0837989 L39.7483581,52.0837989 C41.7918053,52.0837989 43.2503525,52.4678769 44.1240005,53.2360335 C44.9976484,54.0041902 45.4344721,55.294693 45.4344721,57.1075419 C45.4344721,58.9511173 44.9976484,60.256983 44.1240005,61.0251397 C43.2503525,61.7932963 41.7918053,62.1773743 39.7483581,62.1773743 L33.1737888,62.1773743 Z M53.1614201,67.1550279 C53.1614201,69.2444132 53.390938,71.0342181 53.849973,72.5244413 C54.309008,74.0146646 55.0345803,75.2437151 56.0266885,76.2115922 C57.0187967,77.1794693 58.2848455,77.8861729 59.8248349,78.3317039 C61.3648244,78.7772349 63.2157725,79 65.3776806,79 C66.8288245,79 68.1911222,78.915503 69.464575,78.7465084 C70.7380279,78.5775137 71.9670572,78.3086592 73.1516645,77.9399441 L73.1516645,73.4231844 C70.6936051,74.1606145 68.250353,74.5293296 65.8219083,74.5293296 C63.4230789,74.5293296 61.6683797,74.0914804 60.5578106,73.2157821 C59.4472414,72.3400838 58.8327267,70.8882682 58.7142658,68.8603352 L73.9956971,68.8603352 C74.0253125,68.5223466 74.0475239,68.1920391 74.0623312,67.8694134 C74.0771386,67.5467877 74.0845426,67.1857544 74.0845426,66.7863128 C74.0845426,62.7304469 73.2997402,59.8037709 71.7301361,58.0062849 C70.1605319,56.2087989 67.5988189,55.3100559 64.0449976,55.3100559 C62.1200114,55.3100559 60.468965,55.532821 59.0918593,55.978352 C57.7147536,56.4238829 56.5893771,57.1229048 55.7157291,58.075419 C54.8420812,59.0279332 54.1979511,60.256983 53.7833388,61.7625698 C53.3687266,63.2681567 53.1614201,65.0656427 53.1614201,67.1550279 Z M64.0449976,59.4581006 C65.6442172,59.4581006 66.7918051,59.8882679 67.487762,60.7486034 C68.1837188,61.6089388 68.5613124,63.0530726 68.6205425,65.0810056 L58.7142658,65.0810056 C58.8327267,63.0837991 59.3065691,61.6473464 60.1357943,60.771648 C60.9650195,59.8959497 62.268087,59.4581006 64.0449976,59.4581006 Z M89.8520112,55.3100559 C88.4897129,55.3100559 87.2606835,55.4944134 86.1649217,55.8631285 C85.0691599,56.2318436 84.032629,56.8310056 83.0553281,57.6606145 L83.0553281,56.3240223 C83.0553281,56.0167595 82.9220598,55.8631285 82.6555232,55.8631285 L75.9476857,55.8631285 L75.4146125,58.5824022 L76.9694093,59.2276536 C77.2655613,59.3505589 77.4432523,59.4657824 77.5024824,59.573324 C77.5617126,59.6808657 77.591328,59.9036315 77.591328,60.2416201 L77.591328,78.4469274 L83.2774419,78.4469274 L83.2774419,61.301676 C83.6624395,61.0558662 84.3361843,60.7793298 85.2986778,60.472067 C86.2611712,60.1648042 87.3051062,60.0111732 88.4304827,60.0111732 C90.0000869,60.0111732 91.11806,60.3798883 91.7844015,61.1173184 C92.450743,61.8547486 92.7839137,63.0684355 92.7839137,64.7583799 L92.7839137,77.9860335 C92.7839137,78.2932963 92.917182,78.4469274 93.1837186,78.4469274 L100.11367,78.4469274 L100.646743,75.7276536 L99.0919464,75.0824022 C98.7957944,74.959497 98.6181034,74.8442735 98.5588732,74.7367318 C98.4996431,74.6291902 98.4700277,74.4064243 98.4700277,74.0684358 L98.4700277,64.527933 C98.4700277,61.2402237 97.7518594,58.8819832 96.3155236,57.4532123 C94.8791877,56.0244413 92.7246836,55.3100559 89.8520112,55.3100559 Z M107.218699,71.9944134 C107.218699,70.9804469 107.574081,70.2506986 108.284846,69.8051676 C108.99561,69.3596366 110.106179,69.1368715 111.616553,69.1368715 C113.275003,69.1368715 114.785377,69.3826813 116.147675,69.8743017 L116.147675,71.1648045 C116.147675,72.4553073 115.762678,73.3924579 114.992683,73.976257 C114.222689,74.5600561 112.978852,74.8519553 111.261171,74.8519553 C109.839643,74.8519553 108.810515,74.6215084 108.173789,74.1606145 C107.537063,73.6997207 107.218699,72.9776534 107.218699,71.9944134 Z M110.150602,79 C113.289811,79 115.599795,78.1703911 117.080553,76.5111732 L117.258244,77.4790503 C117.34709,77.8784919 117.450743,78.1396646 117.569204,78.2625698 C117.687665,78.3854751 117.969009,78.4469274 118.413236,78.4469274 L123.255318,78.4469274 L123.788391,75.7276536 L122.233594,75.0824022 C121.937442,74.959497 121.759751,74.8442735 121.700521,74.7367318 C121.641291,74.6291902 121.611675,74.4064243 121.611675,74.0684358 L121.611675,64.4818436 C121.611675,61.2248601 120.789854,58.8819832 119.146212,57.4532123 C117.50257,56.0244413 114.844608,55.3100559 111.172325,55.3100559 C108.56619,55.3100559 106.063707,55.6634081 103.664878,56.3701117 L103.664878,60.8868715 C106.004477,60.1494413 108.284846,59.7807263 110.505984,59.7807263 C112.549431,59.7807263 114.000575,60.103352 114.859415,60.7486034 C115.718255,61.3938547 116.147675,62.4846371 116.147675,64.0209497 L116.147675,66.1410615 C114.45961,65.6187153 112.653084,65.3575419 110.728098,65.3575419 C107.588889,65.3575419 105.293713,65.8952516 103.842569,66.9706704 C102.391425,68.0460892 101.665854,69.7360335 101.665854,72.0405028 C101.665854,74.4371508 102.339599,76.1962293 103.68709,77.3177374 C105.03458,78.4392456 107.189084,79 110.150602,79 Z M147.018884,69.6438547 L147.018884,55.8631285 L141.33277,55.8631285 L141.33277,69.1829609 C141.33277,71.0572628 140.962581,72.393855 140.222201,73.1927374 C139.481821,73.9916199 138.267599,74.3910615 136.579534,74.3910615 C134.891469,74.3910615 133.677247,73.9916199 132.936867,73.1927374 C132.196488,72.393855 131.826298,71.0572628 131.826298,69.1829609 L131.826298,56.3240223 C131.826298,56.0167595 131.69303,55.8631285 131.426493,55.8631285 L124.496542,55.8631285 L123.963469,58.5824022 L125.518266,59.2276536 C125.814418,59.3505589 125.992109,59.4657824 126.051339,59.573324 C126.110569,59.6808657 126.140184,59.9036315 126.140184,60.2416201 L126.140184,69.6438547 C126.140184,71.3030726 126.340087,72.7164807 126.739892,73.8840782 C127.139697,75.0516757 127.761615,76.0195528 128.605648,76.7877095 C129.44968,77.5558662 130.530634,78.1166199 131.84851,78.4699721 C133.166385,78.8233243 134.743393,79 136.579534,79 C140.281431,79 142.946797,78.2625698 144.575632,76.7877095 C146.204467,75.3128492 147.018884,72.931564 147.018884,69.6438547 Z M157.011393,74.0684358 L157.011393,46.4608939 C157.011393,46.1536311 156.878125,46 156.611588,46 L149.681637,46 L149.148564,48.7192737 L150.70336,49.3645251 C150.999512,49.4874304 151.177204,49.6026539 151.236434,49.7101955 C151.295664,49.8177372 151.325279,50.040503 151.325279,50.3784916 L151.325279,77.9860335 C151.325279,78.2932963 151.458547,78.4469274 151.725084,78.4469274 L158.655035,78.4469274 L159.188109,75.7276536 L157.633312,75.0824022 C157.33716,74.959497 157.159469,74.8442735 157.100239,74.7367318 C157.041009,74.6291902 157.011393,74.4064243 157.011393,74.0684358 Z M162.517203,61.2094972 L162.517203,70.7960894 C162.517203,73.7150836 163.168737,75.8121506 164.471805,77.0872905 C165.774872,78.3624304 167.921973,79 170.913106,79 C172.334634,79 173.696932,78.8617318 175,78.5851955 L175,73.976257 C173.963469,74.2527933 172.897323,74.3910615 171.801561,74.3910615 C170.498493,74.3910615 169.565615,74.0991622 169.002927,73.5153631 C168.440238,72.931564 168.158894,71.948324 168.158894,70.5656425 L168.158894,60.3337989 L175,60.3337989 L175,55.8631285 L168.158894,55.8631285 L168.158894,49.3645251 L162.517203,49.3645251 L162.517203,55.8631285 L159.718569,55.8631285 L159.185496,59.273743 L161.939707,60.0572626 C162.235859,60.1187148 162.406146,60.2108936 162.450569,60.3337989 C162.494992,60.4567041 162.517203,60.7486034 162.517203,61.2094972 Z" id="Renault" fill="#FFFFFF"></path>
            </g>
        </g>
    </g>
</svg>