<?xml version="1.0" encoding="UTF-8"?>
<svg width="200px" height="125px" viewBox="0 0 200 125" version="1.1" xmlns="http://www.w3.org/2000/svg" xmlns:xlink="http://www.w3.org/1999/xlink">
    <!-- Generator: Sketch 42 (36781) - http://www.bohemiancoding.com/sketch -->
    <title>Logo_GrupoPlaneta</title>
    <desc>Created with Sketch.</desc>
    <defs>
        <polygon id="path-1" points="10.96032 14.4037739 10.96032 0.404469565 0.0834176 0.404469565 0.0834176 14.4037739 10.96032 14.4037739"></polygon>
    </defs>
    <g id="V16_1_North-Web-(Desktop)" stroke="none" stroke-width="1" fill="none" fill-rule="evenodd">
        <g id="Logo_GrupoPlaneta">
            <g id="Group-18">
                <rect id="Rectangle-3" opacity="0.5" x="0" y="0" width="200" height="125"></rect>
                <g id="Page-1" transform="translate(2.000000, 47.500000)">
                    <path d="M9.3208192,25.8184174 C3.7120832,25.8184174 0.0006272,21.9147652 0.0006272,16.4850261 C0.0006272,10.7453739 3.9958912,6.7572 9.9448832,6.7572 C12.2670912,6.7572 14.1643712,7.35198261 15.2415872,7.83406957 L15.2133632,10.379113 C13.9668032,9.72954783 12.1259712,8.9625913 10.0013312,8.9625913 C5.2126592,8.9625913 2.7211072,12.0194609 2.7211072,16.203287 C2.7211072,20.6985913 5.4682432,23.583287 9.9448832,23.583287 C11.5019072,23.583287 12.6073472,23.303113 13.2878592,22.9055478 L13.2878592,16.4005043 L15.8076352,16.4005043 L15.8076352,24.2641565 C14.5610752,24.9403304 12.1541952,25.8184174 9.3208192,25.8184174" id="Fill-1" fill="#FEFEFE"></path>
                    <path d="M25.8491072,14.5914261 C25.4821952,14.3942087 24.9992512,14.281513 24.4614272,14.281513 C23.6680192,14.281513 22.5076992,14.8762957 21.6578432,15.749687 L21.6578432,25.5354261 L19.1349312,25.5354261 L19.1349312,12.1590783 L21.2329152,12.1590783 L21.5433792,13.6585565 C23.2148672,12.1324696 24.2638592,11.8209913 25.3112832,11.8209913 C25.9337792,11.8209913 26.5013952,12.0463826 26.8416512,12.2717739 L25.8491072,14.5914261" id="Fill-3" fill="#FEFEFE"></path>
                    <path d="M37.3687328,25.5357391 L36.8293408,24.1771304 C35.8383648,25.0254783 34.3362208,25.8190435 32.5518368,25.8190435 C30.7674528,25.8190435 28.3307808,24.8830435 28.3307808,20.955913 L28.3307808,12.1593913 L30.8521248,12.1593913 L30.8521248,20.7571304 C30.8521248,22.7934783 31.7302048,23.7263478 33.3734688,23.7263478 C34.8740448,23.7263478 36.0657248,22.8216522 36.6317728,22.1705217 L36.6317728,12.1593913 L39.1248928,12.1593913 L39.1248928,20.5583478 C39.1248928,24.066 39.2079968,24.9409565 39.4087008,25.5357391 L37.3687328,25.5357391" id="Fill-5" fill="#FEFEFE"></path>
                    <path d="M46.8570144,13.9968 C45.9789344,13.9968 45.3564384,14.1392348 44.7903904,14.3082783 L44.7903904,23.2738435 C45.4693344,23.5555826 46.0071584,23.7261913 46.8287904,23.7261913 C49.4928224,23.7261913 51.1925344,21.830713 51.1925344,18.7488 C51.1925344,15.4681043 49.2090144,13.9968 46.8570144,13.9968 M46.9432544,25.818887 C46.0369504,25.818887 45.3846624,25.6482783 44.7903904,25.4244522 L44.7903904,32.2378435 L42.2972704,32.2378435 L42.2972704,12.7258435 C43.3446944,12.3564522 44.9315104,11.8195826 46.9432544,11.8195826 C51.2489824,11.8195826 53.7703264,14.450713 53.7703264,18.662713 C53.7703264,23.1861913 50.5120224,25.818887 46.9432544,25.818887" id="Fill-7" fill="#FEFEFE"></path>
                    <path d="M58.3689568,18.8040522 C58.3689568,21.7732696 59.7864288,23.7532696 62.1384288,23.7532696 C64.4888608,23.7532696 65.8483168,21.7466609 65.8483168,18.8040522 C65.8483168,15.8364 64.4888608,13.8845739 62.0804128,13.8845739 C59.6735328,13.8845739 58.3689568,15.8645739 58.3689568,18.8040522 M66.5852768,13.6294435 C67.7753888,14.8753565 68.4276768,16.6831826 68.4276768,18.8353565 C68.4276768,20.9828348 67.7471648,22.8204 66.5288288,24.066313 C65.4233888,25.1979652 63.8945888,25.8177913 62.0804128,25.8177913 C60.3242528,25.8177913 58.8519008,25.2527478 57.7464608,24.1774435 C56.4999008,22.9346609 55.8193888,21.0391826 55.8193888,18.8619652 C55.8193888,16.6831826 56.4999008,14.8753565 57.7182368,13.6028348 C58.8236768,12.4711826 60.3242528,11.8200522 62.1102048,11.8200522 C63.9510368,11.8200522 65.4798368,12.4711826 66.5852768,13.6294435" id="Fill-9" fill="#FEFEFE"></path>
                    <path d="M118.304346,9.13445217 L116.918234,9.13445217 L116.918234,16.6819304 L118.447034,16.6819304 C121.137722,16.6819304 122.327834,15.1010609 122.327834,12.7814087 C122.327834,10.6339304 120.968378,9.13445217 118.304346,9.13445217 M118.249466,18.8341043 L116.918234,18.8341043 L116.918234,25.5363652 L114.39689,25.5363652 L114.39689,6.89775652 L118.531706,6.89775652 C122.468954,6.89775652 124.962074,9.0201913 124.962074,12.7548 C124.962074,15.7506261 123.03657,18.8341043 118.249466,18.8341043" id="Fill-11" fill="#FEFEFE"></path>
                    <path d="M130.22679,25.8184174 C128.382822,25.8184174 127.648998,24.6867652 127.648998,23.1857217 L127.648998,5.51285217 L130.14055,5.51285217 L130.14055,22.0853739 C130.14055,23.2436348 130.425926,23.5566783 131.189542,23.5566783 C131.360454,23.5566783 131.61447,23.5566783 131.981382,23.4424174 L132.293414,25.2799826 C131.558022,25.6759826 130.933958,25.8184174 130.22679,25.8184174" id="Fill-13" fill="#FEFEFE"></path>
                    <path d="M142.195021,19.2014609 L139.756781,19.2859826 C137.549037,19.3689391 136.642733,20.1077217 136.642733,21.4632 C136.642733,22.7357217 137.462797,23.7265043 139.107629,23.7265043 C140.663085,23.7265043 141.627405,22.9908522 142.195021,22.4258087 L142.195021,19.2014609 Z M142.905325,25.5358957 L142.364365,24.2633739 C141.512941,25.0553739 140.241293,25.8192 138.312653,25.8192 C136.048461,25.8192 134.121389,24.2336348 134.121389,21.6619826 C134.121389,18.9760696 136.075117,17.3905043 139.589005,17.2793739 L142.195021,17.193287 L142.195021,16.6830261 C142.195021,14.6200696 141.006477,13.8859826 139.419661,13.8859826 C137.774829,13.8859826 136.672525,14.5073739 135.907341,15.0442435 L134.971245,13.3475478 C136.642733,12.1595478 138.143309,11.8198957 139.872813,11.8198957 C142.676397,11.8198957 144.713229,13.0078957 144.713229,16.4576348 L144.713229,20.9560696 C144.713229,24.1225043 144.801037,25.0553739 144.997037,25.5358957 L142.905325,25.5358957 L142.905325,25.5358957 Z" id="Fill-15" fill="#FEFEFE"></path>
                    <path d="M156.876675,25.5357391 L156.876675,17.420087 C156.876675,15.8642609 156.619523,14.1096522 154.665795,14.1096522 C153.191875,14.1096522 151.805763,15.0722609 150.755203,15.9769565 L150.755203,25.5357391 L148.265219,25.5357391 L148.265219,12.1593913 L150.360067,12.1593913 L150.672099,13.6886087 C152.200899,12.5553913 153.563491,11.8197391 155.429411,11.8197391 C157.386275,11.8197391 159.394883,13.1486087 159.394883,16.5717391 L159.394883,25.5357391 L156.876675,25.5357391" id="Fill-17" fill="#FEFEFE"></path>
                    <path d="M167.730058,13.856087 C165.857866,13.856087 164.697546,15.4964348 164.697546,17.420087 L170.646538,17.420087 C170.646538,15.6936522 169.68065,13.856087 167.730058,13.856087 M164.72577,19.3703478 C164.72577,21.7463478 166.256138,23.6966087 168.946826,23.6966087 C170.107146,23.6966087 171.297258,23.3021739 172.20513,22.7637391 L172.913866,24.4322609 C171.75041,25.3072174 170.024042,25.8190435 168.46545,25.8190435 C164.101706,25.8190435 162.089962,22.395913 162.089962,18.6628696 C162.089962,14.8186957 164.330634,11.8197391 167.756714,11.8197391 C171.270602,11.8197391 173.31057,14.5635652 173.31057,18.7192174 L173.31057,19.3703478 L164.72577,19.3703478" id="Fill-19" fill="#FEFEFE"></path>
                    <path d="M179.949482,25.8184174 C177.854634,25.8184174 176.918538,24.6304174 176.918538,22.8773739 L176.918538,14.1685043 L174.68257,14.1685043 L174.68257,12.1587652 L176.918538,12.1587652 L176.918538,9.16137391 L179.438314,8.37093913 L179.438314,12.1587652 L183.576266,12.1587652 L182.754634,14.1685043 L179.438314,14.1685043 L179.438314,22.0290261 C179.438314,23.1309391 179.863242,23.6412 180.74289,23.6412 C181.65233,23.6412 182.528842,23.1606783 183.06353,22.763113 L183.805194,24.4598087 C182.669962,25.2799826 181.196042,25.8184174 179.949482,25.8184174" id="Fill-21" fill="#FEFEFE"></path>
                    <g id="Group-25" transform="translate(185.024000, 11.415426)">
                        <mask id="mask-2" fill="white">
                            <use xlink:href="#path-1"></use>
                        </mask>
                        <g id="Clip-24"></g>
                        <path d="M8.1554816,7.78603478 L5.7203776,7.87055652 C3.5094976,7.95351304 2.6047616,8.69229565 2.6047616,10.0477739 C2.6047616,11.3202957 3.4232576,12.3110783 5.0680896,12.3110783 C6.6235456,12.3110783 7.5894336,11.5754261 8.1554816,11.0103826 L8.1554816,7.78603478 Z M8.8626496,14.1204696 L8.3232576,12.8479478 C7.4749696,13.6399478 6.2001856,14.4037739 4.2715456,14.4037739 C2.0073536,14.4037739 0.0834176,12.8182087 0.0834176,10.2465565 C0.0834176,7.56064348 2.0371456,5.97507826 5.5478976,5.86394783 L8.1554816,5.77786087 L8.1554816,5.2676 C8.1554816,3.20464348 6.9638016,2.47055652 5.3801216,2.47055652 C3.7368576,2.47055652 2.6314176,3.09194783 1.8662336,3.62881739 L0.9317056,1.93212174 C2.6047616,0.744121739 4.1053376,0.404469565 5.8317056,0.404469565 C8.6368576,0.404469565 10.6783936,1.59246957 10.6783936,5.0422087 L10.6783936,9.54064348 C10.6783936,12.7070783 10.7614976,13.6399478 10.9606336,14.1204696 L8.8626496,14.1204696 L8.8626496,14.1204696 Z" id="Fill-23" fill="#FEFEFE" mask="url(#mask-2)"></path>
                    </g>
                    <path d="M102.685654,4.34707826 C99.4540064,1.54377391 95.3144864,0.000469565217 91.0307104,0.000469565217 C86.7469344,0.000469565217 82.6058464,1.54377391 79.3741984,4.34707826 C76.1754784,7.1222087 74.0696544,10.9476 73.4471584,15.109513 C73.3264224,16.0674261 73.2684064,16.9189043 73.2684064,17.7312522 C73.2684064,20.0196 73.6886304,22.2124696 74.5133984,24.2582087 C75.8038624,27.5201217 78.0241504,30.3062087 80.9327904,32.3159478 C83.9104224,34.3726435 87.4007904,35.4589043 91.0307104,35.4589043 C94.6590624,35.4589043 98.1509984,34.3726435 101.12863,32.3159478 C104.035702,30.3062087 106.25599,27.5201217 107.54959,24.2566435 C108.374358,22.2140348 108.793014,20.0180348 108.793014,17.7312522 C108.793014,16.9189043 108.73343,16.0674261 108.614262,15.1220348 C107.991766,10.9476 105.885942,7.1222087 102.685654,4.34707826 M107.670326,15.2394261 C107.78479,16.145687 107.83967,16.9611652 107.83967,17.7312522 C107.83967,19.8959478 107.444534,21.9729913 106.66367,23.9013391 C105.442198,26.9957739 103.341078,29.6331652 100.586102,31.5349043 C97.7699744,33.4804696 94.4646304,34.5103826 91.0307104,34.5103826 C87.5952224,34.5103826 84.2914464,33.4804696 81.4753184,31.5349043 C78.7203424,29.6331652 76.6192224,26.9942087 75.3977504,23.9044696 C74.6168864,21.9729913 74.2217504,19.8959478 74.2217504,17.7312522 C74.2217504,16.9611652 74.2766304,16.145687 74.3895264,15.2394261 C74.9790944,11.3091652 76.9704544,7.69351304 79.9998304,5.06551304 C83.0589984,2.41246957 86.9758624,0.948991304 91.0307104,0.948991304 C95.0855584,0.948991304 99.0039904,2.41246957 102.06159,5.06551304 C105.089398,7.69351304 107.085462,11.3091652 107.670326,15.2394261" id="Fill-26" fill="#FEFEFE"></path>
                    <path d="M76.244,15.2073391 C76.14208,15.6847304 76.107584,16.1621217 76.073088,16.6379478 L105.987392,16.6379478 C105.952896,16.1621217 105.919968,15.6847304 105.81648,15.2073391 C105.509152,13.5028174 104.892928,11.8671652 104.043072,10.4005565 C104.043072,10.4005565 98.746368,13.7407304 91.064736,13.7407304 C83.381536,13.7407304 77.918624,10.4694261 77.918624,10.4694261 C77.096992,11.9016 76.516832,13.5028174 76.244,15.2073391" id="Fill-28" fill="#FEFEFE"></path>
                    <path d="M88.1625248,24.0010435 C82.6980448,24.6161739 79.1465248,26.8653913 79.1465248,26.8653913 C80.2394208,28.296 81.6396448,29.5575652 83.2107808,30.513913 C83.2107808,30.513913 85.9767328,26.6274783 91.0648928,26.6274783 C96.4258848,26.6274783 98.9895648,30.4450435 98.9895648,30.4450435 C100.490141,29.4886957 101.821373,28.296 102.879773,26.8982609 C102.879773,26.8982609 99.5665888,24.6161739 94.0001888,24.0010435 C93.0797728,23.8664348 92.0887968,23.832 91.0648928,23.832 C90.0394208,23.832 89.0829408,23.8664348 88.1625248,24.0010435" id="Fill-30" fill="#FEFEFE"></path>
                    <path d="M104.656317,24.0010435 C104.486973,24.3422609 104.312925,24.717913 104.109085,25.0575652 C104.109085,25.0575652 103.358013,24.5817391 102.026781,24.0010435 C99.8064928,23.0133913 95.9821408,21.7189565 91.0648928,21.7189565 C86.2150688,21.7189565 82.4252128,22.9789565 80.2049248,24.0010435 C78.7717728,24.6161739 77.9862048,25.1577391 77.9862048,25.1577391 C77.7807968,24.7852174 77.5769568,24.3751304 77.4044768,24.0010435 C76.6534048,22.3653913 76.1767328,20.592 76.0732448,18.7184348 L106.020477,18.7184348 C105.884061,20.592 105.407389,22.3653913 104.656317,24.0010435" id="Fill-32" fill="#FEFEFE"></path>
                    <path d="M91.0305536,2.76511304 C88.8447616,2.76511304 86.7969536,3.20806957 84.9169216,4.05954783 C84.9169216,4.05954783 86.5915456,6.75328696 91.0650496,6.75328696 C95.5385536,6.75328696 96.9042816,3.92337391 96.9042816,3.92337391 C95.0932416,3.17363478 93.1144256,2.76511304 91.0305536,2.76511304" id="Fill-34" fill="#FEFEFE"></path>
                    <path d="M98.7810208,5.01511304 C98.7810208,5.01511304 96.4933088,8.7638087 91.0648928,8.7638087 C85.6004128,8.7638087 83.0743648,5.01511304 83.0743648,5.01511304 C81.5377248,6.00433043 80.1719968,7.23146087 79.0791008,8.69650435 C79.0791008,8.69650435 83.4491168,11.6954609 91.0648928,11.6954609 C98.6446048,11.6954609 102.879773,8.56033043 102.879773,8.56033043 C101.786877,7.09372174 100.352157,5.96833043 98.7810208,5.01511304" id="Fill-36" fill="#FEFEFE"></path>
                    <path d="M91.0650496,28.6370609 C86.8988736,28.6370609 85.0549056,31.4669739 85.0549056,31.4669739 C86.8643776,32.2511478 88.9137536,32.6956696 91.0305536,32.6956696 C93.1818496,32.6956696 95.2312256,32.2511478 97.0751936,31.4341043 C97.0751936,31.4341043 95.1967296,28.6370609 91.0650496,28.6370609" id="Fill-38" fill="#FEFEFE"></path>
                </g>
            </g>
        </g>
    </g>
</svg>