<?xml version="1.0" encoding="UTF-8"?>
<svg width="342px" height="214px" viewBox="0 0 342 214" version="1.1" xmlns="http://www.w3.org/2000/svg" xmlns:xlink="http://www.w3.org/1999/xlink">
    <!-- Generator: Sketch 42 (36781) - http://www.bohemiancoding.com/sketch -->
    <title>Artboard</title>
    <desc>Created with Sketch.</desc>
    <defs>
        <polygon id="path-1" points="0.00030096 3.30741135 224.306993 3.30741135 224.306993 0.2826397 0.00030096 0.2826397"></polygon>
    </defs>
    <g id="V16_2_North-Web-(Mobile)" stroke="none" stroke-width="1" fill="none" fill-rule="evenodd">
        <g id="Artboard">
            <g id="Group-16">
                <rect id="Rectangle-3" x="0" y="0" width="342" height="214"></rect>
                <g id="Page-1" transform="translate(58.140000, 76.184000)">
                    <path d="M60.7426063,15.5244995 C61.5536935,15.5244995 61.9013023,16.103239 61.9013023,16.7992297 C61.9013023,20.2746732 57.7284919,24.560352 52.2811159,27.8042997 C53.6715511,22.4753865 57.4967527,15.5244995 60.7426063,15.5244995 M65.7280087,27.2255602 C62.3662855,32.0914818 57.7284919,36.4944117 53.6715511,36.4944117 C52.0478719,36.4944117 51.2367847,35.5669253 51.2367847,33.5977077 C51.2367847,32.4387255 51.5843935,30.7010037 51.7002631,29.8907684 C55.6428391,28.0372987 59.4680407,25.8350821 62.9456335,22.2438907 C64.7995471,20.1589253 66.1914871,18.0724566 66.1914871,15.9874911 C66.1914871,14.0182736 65.0312863,12.8592913 62.4806503,12.8592913 C58.7713183,12.8592913 54.3667687,15.2930037 51.5843935,18.4212035 C47.8750615,22.4753865 44.9768167,28.1530466 44.8609471,33.3662119 C44.8609471,36.9574033 46.6004959,39.8541073 51.2367847,39.7383594 C56.2221871,39.5068636 61.2060847,35.6826732 63.6408511,32.9032203 C63.4091119,34.0606993 63.1773727,35.2196816 63.1773727,36.147168 C63.1773727,39.3911157 64.7995471,41.5918291 67.9295311,42.6350634 L68.5088791,42.2863165 C68.2771399,41.3603333 68.2771399,40.5485947 68.2771399,39.5068636 C68.5088791,36.3786638 69.7849495,32.7859692 71.5229935,28.1530466 C75.0005863,19.3471867 80.1018583,9.3838478 82.4192503,3.4746919 L76.9718743,4.40217834 C76.2766567,4.63367415 75.6958039,5.21391688 75.4640647,5.90840429 C72.9149335,11.2373175 70.2484279,17.1464734 66.8867047,24.6776031 C66.5390959,25.4878384 66.1914871,26.2980738 65.7280087,27.2255602" id="Fill-1" fill="#FEFEFE"></path>
                    <path d="M198.688826,16.3353361 C200.312505,15.6408487 201.702941,15.5251008 202.745767,15.8723445 C202.398158,16.6825798 200.428375,20.5067703 198.920565,24.0979617 C196.603173,29.5426228 193.008206,34.9872838 189.646483,35.9147703 C188.603657,36.1462661 187.908439,35.6832745 187.908439,34.6400401 C188.024309,29.6583707 193.355815,18.8847964 198.688826,16.3353361 M151.740571,35.9147703 C151.856441,38.3484827 153.36425,39.8532054 156.26099,39.7374575 C159.275105,39.7374575 162.405089,37.8839878 164.955725,35.4517787 C165.535073,37.9997357 167.390491,39.9689533 171.215693,39.8532054 C175.272633,39.7374575 179.097835,37.1895004 181.764341,34.2927964 C181.764341,34.5242922 181.764341,34.755788 181.648471,35.1045349 C181.764341,37.7682399 183.156281,39.7374575 186.16889,39.7374575 C189.530613,39.7374575 193.355815,37.3052483 196.25406,33.0180663 L196.369929,33.1338142 C196.13819,34.0613006 195.790581,35.7990224 195.790581,36.9580046 C195.790581,40.2019523 197.646,42.055422 200.312505,42.6341615 L200.891853,42.2869178 C199.964897,39.9689533 201.355332,34.1770485 201.93468,32.2078309 C203.905968,25.8356834 207.035952,18.5360495 208.889865,14.7133623 C208.078778,14.0188748 206.10749,13.55438 204.021837,13.4386321 C197.182521,13.2071363 190.227336,15.9880924 185.126064,25.0239449 C184.314977,26.5301708 183.270645,28.2678926 182.575428,30.2386134 C181.88021,31.1645966 181.184993,31.9763351 180.837384,32.3235788 C179.097835,34.0613006 176.431329,36.3777619 173.766329,36.3777619 C172.258519,36.3777619 171.447432,35.3360308 171.447432,33.4825611 C171.563301,26.298675 177.823269,15.4078497 182.111949,15.4078497 C183.270645,15.4078497 183.851498,15.8723445 183.735629,16.9140756 C183.851498,18.0730579 183.038906,19.8107796 181.88021,20.854014 L182.343689,21.3170056 C185.241933,20.1580233 187.908439,18.1888058 187.908439,16.1038403 C187.908439,13.55438 185.126064,13.2071363 182.575428,13.2071363 C179.329574,13.2071363 175.040894,14.8291102 171.679171,18.5360495 C167.506361,23.0547273 165.419203,28.6151363 164.955725,32.4393268 C163.101811,34.755788 160.898784,36.262014 159.506844,36.262014 C158.695757,36.262014 158.116409,35.9147703 158.116409,34.9872838 C158.116409,34.2927964 158.464017,32.7865705 159.275105,30.8173529 C161.130523,26.1829271 163.797029,20.3895191 167.042882,13.6716311 C167.042882,13.6716311 162.05748,14.4818665 161.362262,14.5976144 C160.551175,14.8291102 159.971827,15.2921018 159.622713,16.1038403 C157.537061,20.5067703 154.986425,25.8356834 153.36425,29.7741186 C152.435789,32.2078309 151.856441,34.5242922 151.740571,35.9147703" id="Fill-3" fill="#FEFEFE"></path>
                    <path d="M90.5343358,15.5244995 C91.345423,15.5244995 91.6930318,16.103239 91.6930318,16.7992297 C91.6930318,20.2746732 87.4043518,24.560352 82.0728454,27.8042997 C83.4632806,22.4753865 87.1726126,15.5244995 90.5343358,15.5244995 M81.376123,18.4212035 C77.666791,22.4753865 74.7685462,28.1530466 74.6526766,33.3662119 C74.6526766,36.8416554 76.508095,39.8541073 81.2602534,39.7383594 C86.3615254,39.5068636 91.1136838,36.4944117 95.054755,32.3229776 C94.1277982,34.9881858 93.2008414,37.304647 92.737363,38.6951251 C91.2295534,42.4020644 90.0708574,45.4145163 87.7519606,47.152238 L87.9836998,47.6167329 C94.8230158,47.9639766 97.3736518,43.2138029 100.040157,35.5669253 C102.938402,27.6885518 105.255794,20.9691606 107.111213,16.3347348 C110.009457,16.3347348 114.298137,16.451986 116.617034,15.9874911 C110.472936,18.6526993 105.255794,28.3845424 105.836647,34.8724379 C106.184256,37.653394 107.80643,39.6226115 111.515762,39.6226115 C118.470948,39.7383594 124.383307,31.3969943 126.702204,25.8350821 C127.976769,22.7068823 128.787857,20.0431774 128.903726,17.3779692 C130.643275,17.0307255 132.265449,16.6834818 132.960667,16.6834818 C134.584346,16.451986 134.236737,18.0724566 133.773259,19.4629346 C130.990884,27.457056 126.006986,39.1581167 125.891117,39.2738646 L131.454362,39.2738646 C133.773259,34.2921951 135.279564,31.1654985 137.134982,27.8042997 C139.453879,23.8658646 144.553646,17.2622213 146.524934,17.2622213 C147.336021,17.2622213 147.451891,17.7252129 147.336021,18.4212035 C146.988413,21.0849085 140.380836,31.3969943 140.496705,36.4944117 C140.612575,39.8541073 142.350619,41.8233249 145.364733,42.5178123 L145.945586,42.1705686 C145.596473,41.4760812 145.596473,40.5485947 145.480603,39.5068636 C145.480603,36.147168 148.262978,30.2380121 149.307309,27.9215508 C151.045353,24.2131083 154.059468,18.999943 153.827729,16.103239 C153.827729,14.7142642 152.669033,13.439534 150.234266,13.439534 C145.828212,13.439534 141.307793,17.7252129 137.598461,23.6343688 L137.482591,23.5186209 C138.988896,20.1589253 140.149097,16.9149776 140.149097,15.5244995 C140.033227,14.1340215 139.336505,13.555282 137.598461,13.555282 C136.439765,13.555282 134.816085,14.0182736 133.193911,14.4812652 C131.106753,14.9442568 128.671987,15.6402474 126.122856,16.2189869 C124.615046,16.3347348 124.035698,16.5677339 124.035698,17.2622213 C124.383307,26.066578 118.355078,36.6101596 114.298137,36.6101596 C112.560093,36.6101596 112.096615,35.3354295 112.096615,33.5977077 C112.096615,27.457056 117.196382,17.1464734 122.18028,15.5244995 C122.645263,15.2930037 122.992872,15.1772558 123.340481,15.1772558 L123.919829,13.555282 C122.877002,13.6710299 120.442236,13.7867778 119.050296,13.7867778 L108.154039,13.7867778 C111.052284,6.95163863 115.109225,2.54870868 121.021584,2.31721288 C124.730916,2.08571707 127.165682,3.4746919 127.281552,5.67690849 C127.513291,7.41463024 127.049813,8.80510829 125.542003,10.3113342 L126.006986,10.7743259 C129.25284,9.152352 131.454362,6.60289171 131.454362,4.86516995 C131.454362,2.08571707 128.208509,0.347995317 122.877002,0.46374322 C116.269425,0.46374322 107.9223,1.96996917 102.12581,14.0182736 C100.503636,14.2497694 98.8814614,14.9442568 97.605391,16.3347348 L97.8371302,16.7992297 C98.764087,16.451986 99.9242878,16.3347348 101.082984,16.451986 C100.387766,18.4212035 98.764087,22.5911344 97.1419126,26.9940644 C92.2738846,33.4819598 87.4043518,36.4944117 83.8108894,36.4944117 C81.8396014,36.4944117 81.0285142,35.4511774 81.0285142,33.5977077 C81.0285142,32.4387255 81.2602534,30.7010037 81.4919926,29.8907684 C85.318699,28.0372987 89.2597702,25.8350821 92.6214934,22.2438907 C94.5912766,20.1589253 95.867347,18.0724566 95.9832166,15.9874911 C95.9832166,14.0182736 94.7071462,12.8592913 92.158015,12.8592913 C88.5630478,12.8592913 84.1584982,15.2930037 81.376123,18.4212035" id="Fill-5" fill="#FEFEFE"></path>
                    <path d="M167.158451,9.38429877 C168.664756,9.38429877 170.288435,7.99382072 170.520174,6.25609897 C170.983652,4.51837721 169.940826,3.24364706 168.433016,3.24364706 C166.926712,3.24364706 165.303032,4.63412511 164.955424,6.37184687 C164.723684,8.10956862 165.652146,9.38429877 167.158451,9.38429877" id="Fill-7" fill="#FEFEFE"></path>
                    <g id="Group-11" transform="translate(0.000000, 58.095498)">
                        <mask id="mask-2" fill="white">
                            <use xlink:href="#path-1"></use>
                        </mask>
                        <g id="Clip-10"></g>
                        <path d="M112.095863,0.295260087 C56.452873,0.179512185 0.00030096,0.873999599 0.00030096,1.80148604 C0.00030096,2.49597345 56.452873,3.19196409 112.095863,3.30771199 C167.737347,3.19196409 224.307294,2.49597345 224.307294,1.80148604 C224.307294,0.873999599 167.737347,0.179512185 112.095863,0.295260087" id="Fill-9" fill="#FEFEFE" mask="url(#mask-2)"></path>
                    </g>
                    <path d="M22.2568949,18.6526993 L22.6045037,18.4212035 C22.1410253,17.4937171 21.9092861,16.103239 21.9092861,15.2930037 C22.1410253,7.99336976 29.7914285,3.82343883 41.7320165,3.93918673 C41.7320165,3.93918673 44.7461309,3.82343883 48.3395933,3.93918673 C44.5143917,6.1399001 41.2670333,9.0366041 38.8337717,14.7142642 C37.7909453,17.0307255 32.6896733,30.0065163 30.6025157,35.914169 C28.0533845,42.7508113 26.4297053,45.8790111 24.3425477,47.152238 L24.6916613,47.7324808 C30.4866461,48.0797245 33.8483693,45.0672726 36.0513965,39.7383594 C38.1385541,34.5251941 40.9194245,26.4153249 42.3113645,22.8241335 C46.7159141,11.2373175 48.6872021,6.255648 52.1647949,3.93918673 C57.0328229,3.82343883 61.7864861,3.82343883 61.7864861,3.93918673 C67.1179925,3.70769093 69.3210197,2.43296078 70.9431941,0.347995317 L70.5955853,0.000751609754 C69.3210197,0.579491122 66.4227749,0.695239024 63.9880085,0.810986927 L40.2242069,0.810986927 C26.8931837,0.810986927 18.6634325,5.09816898 17.2714925,11.7018123 C16.6921445,14.8285089 18.4316933,18.3054556 22.2568949,18.6526993" id="Fill-12" fill="#FEFEFE"></path>
                </g>
            </g>
        </g>
    </g>
</svg>